<svg width="106" height="128" viewBox="0 0 106 128" fill="none" xmlns="http://www.w3.org/2000/svg">
<g clip-path="url(#clip0_201_1418)">
<path d="M64 128C99.3462 128 128 99.3462 128 64C128 28.6538 99.3462 0 64 0C28.6538 0 0 28.6538 0 64C0 99.3462 28.6538 128 64 128Z" fill="#010101" fill-opacity="0.02"/>
<path d="M83.9635 42.5098C80.7472 35.2164 73.3563 33.657 64.3086 35.1676L61.401 23.8945L54.5462 25.6651L57.4051 36.9057C55.602 37.3605 53.7503 37.7504 51.9147 38.2702L49.0558 27.0945L42.201 28.8651L45.1086 40.1382C43.6305 40.5605 31.269 43.728 31.269 43.728L33.1533 51.0702C33.1533 51.0702 38.1888 49.657 38.1401 49.7707C40.934 49.0397 42.2498 50.4367 42.867 51.7524L50.8589 82.6478C50.9564 83.5412 50.7939 85.0681 48.8772 85.5879C48.9909 85.6529 43.8904 86.8712 43.8904 86.8712L44.6376 95.4316C44.6376 95.4316 56.8853 92.2966 58.4934 91.8905L61.4335 103.294L68.2883 101.523L65.3482 90.0387C67.2325 89.6001 69.068 89.1453 70.8548 88.6742L73.7787 100.094L80.6335 98.323L77.6934 86.9362C88.2518 84.3697 95.7076 77.7098 94.1807 67.525C93.2061 61.3849 86.4975 56.3493 80.9259 55.7808C84.3533 52.7433 86.0914 48.3087 83.9635 42.5098ZM80.666 69.393C82.0305 79.4803 68.0122 80.7148 63.3828 81.9331L59.3543 66.8428C64 65.6245 78.3594 60.5077 80.666 69.393ZM72.2193 48.8448C73.665 57.8113 61.6772 58.8509 57.8112 59.8417L54.1401 46.1483C58.0223 45.19 69.2792 40.5443 72.2193 48.8448Z" fill="#010101" fill-opacity="0.05"/>
</g>
<defs>
<clipPath id="clip0_201_1418">
<rect width="128" height="128" fill="white"/>
</clipPath>
</defs>
</svg>
