<svg width="1344" height="664" viewBox="0 0 1344 664" fill="none" xmlns="http://www.w3.org/2000/svg">
<g clip-path="url(#clip0_776_25604)">
<path d="M672.016 1343.26C1042.74 1343.26 1343.27 1042.73 1343.27 672.005C1343.27 301.281 1042.74 0.75 672.016 0.75C301.292 0.75 0.761154 301.281 0.761154 672.005C0.761154 1042.73 301.292 1343.26 672.016 1343.26Z" stroke="#F8F8F8" stroke-opacity="0.2" stroke-width="1.36986" stroke-miterlimit="10"/>
<path d="M672.016 1308.17C1023.36 1308.17 1308.18 1023.35 1308.18 672.005C1308.18 320.663 1023.36 35.8438 672.016 35.8438C320.674 35.8438 35.8545 320.663 35.8545 672.005C35.8545 1023.35 320.674 1308.17 672.016 1308.17Z" stroke="#F8F8F8" stroke-opacity="0.3" stroke-width="1.36986" stroke-miterlimit="10"/>
<path d="M672.016 1273.06C1003.97 1273.06 1273.07 1003.96 1273.07 672.006C1273.07 340.053 1003.97 70.9512 672.016 70.9512C340.062 70.9512 70.9607 340.053 70.9607 672.006C70.9607 1003.96 340.062 1273.06 672.016 1273.06Z" stroke="#F8F8F8" stroke-opacity="0.4" stroke-width="1.36986" stroke-miterlimit="10"/>
<path d="M672.011 1237.97C984.583 1237.97 1237.97 984.577 1237.97 672.005C1237.97 359.433 984.583 106.043 672.011 106.043C359.439 106.043 106.049 359.433 106.049 672.005C106.049 984.577 359.439 1237.97 672.011 1237.97Z" stroke="#F8F8F8" stroke-opacity="0.5" stroke-width="1.36986" stroke-miterlimit="10"/>
<path d="M672.013 1202.86C965.196 1202.86 1202.87 965.189 1202.87 672.006C1202.87 378.822 965.196 141.15 672.013 141.15C378.829 141.15 141.157 378.822 141.157 672.006C141.157 965.189 378.829 1202.86 672.013 1202.86Z" stroke="#F8F8F8" stroke-opacity="0.6" stroke-width="1.36986" stroke-miterlimit="10"/>
<path d="M672.013 1167.77C945.815 1167.77 1167.78 945.808 1167.78 672.006C1167.78 398.204 945.815 176.244 672.013 176.244C398.211 176.244 176.251 398.204 176.251 672.006C176.251 945.808 398.211 1167.77 672.013 1167.77Z" stroke="#F8F8F8" stroke-opacity="0.7" stroke-width="1.36986" stroke-miterlimit="10"/>
<path d="M672.016 1132.67C926.436 1132.67 1132.68 926.425 1132.68 672.005C1132.68 417.584 926.436 211.336 672.016 211.336C417.595 211.336 211.347 417.584 211.347 672.005C211.347 926.425 417.595 1132.67 672.016 1132.67Z" stroke="#F8F8F8" stroke-opacity="0.8" stroke-width="1.36986" stroke-miterlimit="10"/>
<path d="M672.013 1097.57C907.044 1097.57 1097.57 907.037 1097.57 672.005C1097.57 436.974 907.044 246.443 672.013 246.443C436.981 246.443 246.45 436.974 246.45 672.005C246.45 907.037 436.981 1097.57 672.013 1097.57Z" stroke="#F8F8F8" stroke-opacity="0.9" stroke-width="1.36986" stroke-miterlimit="10"/>
<path d="M672.018 1062.47C887.668 1062.47 1062.49 887.656 1062.49 672.006C1062.49 456.356 887.668 281.537 672.018 281.537C456.368 281.537 281.549 456.356 281.549 672.006C281.549 887.656 456.368 1062.47 672.018 1062.47Z" stroke="#F8F8F8" stroke-width="1.36986" stroke-miterlimit="10"/>
<path d="M672.013 1027.38C868.281 1027.38 1027.39 868.273 1027.39 672.005C1027.39 475.736 868.281 316.629 672.013 316.629C475.744 316.629 316.637 475.736 316.637 672.005C316.637 868.273 475.744 1027.38 672.013 1027.38Z" stroke="#F8F8F8" stroke-width="1.36986" stroke-miterlimit="10"/>
<path d="M672.012 992.275C848.892 992.275 992.281 848.885 992.281 672.005C992.281 495.126 848.892 351.736 672.012 351.736C495.133 351.736 351.743 495.126 351.743 672.005C351.743 848.885 495.133 992.275 672.012 992.275Z" stroke="#F8F8F8" stroke-width="1.36986" stroke-miterlimit="10"/>
<path d="M672.012 957.18C829.511 957.18 957.188 829.502 957.188 672.004C957.188 514.506 829.511 386.828 672.012 386.828C514.514 386.828 386.836 514.506 386.836 672.004C386.836 829.502 514.514 957.18 672.012 957.18Z" stroke="#F8F8F8" stroke-width="1.36986" stroke-miterlimit="10"/>
<path d="M672.014 922.074C810.124 922.074 922.084 810.114 922.084 672.005C922.084 533.895 810.124 421.936 672.014 421.936C533.905 421.936 421.945 533.895 421.945 672.005C421.945 810.114 533.905 922.074 672.014 922.074Z" stroke="#F8F8F8" stroke-width="1.36986" stroke-miterlimit="10"/>
<path d="M672.015 886.981C790.743 886.981 886.991 790.733 886.991 672.005C886.991 553.277 790.743 457.029 672.015 457.029C553.287 457.029 457.039 553.277 457.039 672.005C457.039 790.733 553.287 886.981 672.015 886.981Z" stroke="#F8F8F8" stroke-width="1.36986" stroke-miterlimit="10"/>
<path d="M672.012 851.889C771.359 851.889 851.895 771.352 851.895 672.006C851.895 572.659 771.359 492.123 672.012 492.123C572.666 492.123 492.129 572.659 492.129 672.006C492.129 771.352 572.666 851.889 672.012 851.889Z" stroke="#F8F8F8" stroke-width="1.36986" stroke-miterlimit="10"/>
<path d="M672.014 816.781C751.972 816.781 816.791 751.962 816.791 672.005C816.791 592.047 751.972 527.229 672.014 527.229C592.057 527.229 527.238 592.047 527.238 672.005C527.238 751.962 592.057 816.781 672.014 816.781Z" stroke="#F8F8F8" stroke-width="1.36986" stroke-miterlimit="10"/>
<path d="M672.014 781.688C732.591 781.688 781.698 732.582 781.698 672.005C781.698 611.429 732.591 562.322 672.014 562.322C611.438 562.322 562.331 611.429 562.331 672.005C562.331 732.582 611.438 781.688 672.014 781.688Z" stroke="#F8F8F8" stroke-width="1.36986" stroke-miterlimit="10"/>
<path d="M672.02 746.594C713.215 746.594 746.61 713.199 746.61 672.004C746.61 630.809 713.215 597.414 672.02 597.414C630.825 597.414 597.43 630.809 597.43 672.004C597.43 713.199 630.825 746.594 672.02 746.594Z" stroke="#F8F8F8" stroke-width="1.36986" stroke-miterlimit="10"/>
</g>
<defs>
<clipPath id="clip0_776_25604">
<rect width="1344" height="1344" fill="white"/>
</clipPath>
</defs>
</svg>
