<svg width="340" height="340" viewBox="0 0 340 340" fill="none" xmlns="http://www.w3.org/2000/svg">
<path d="M243.047 262.471C248.64 262.471 253.174 257.937 253.174 252.344L253.174 118.203C253.174 112.61 248.64 108.076 243.047 108.076L41.1719 108.076C35.5789 108.076 31.0449 112.61 31.0449 118.203L31.0449 252.344C31.0449 257.937 35.5789 262.471 41.1719 262.471L243.047 262.471Z" fill="black" stroke="black" stroke-width="0.996094"/>
<path d="M247.695 262.471C253.288 262.471 257.822 257.937 257.822 252.344L257.822 118.203C257.822 112.61 253.288 108.076 247.695 108.076L45.1563 108.076C39.5633 108.076 35.0293 112.61 35.0293 118.203L35.0293 252.344C35.0293 257.937 39.5633 262.471 45.1563 262.471L247.695 262.471Z" fill="#91A8ED" stroke="black" stroke-width="0.996094"/>
<circle cx="144.102" cy="114.883" r="2.82227" fill="black" stroke="black" stroke-width="0.996094"/>
<circle cx="134.805" cy="114.883" r="2.82227" fill="black" stroke="black" stroke-width="0.996094"/>
<path d="M243.047 231.26C247.173 231.26 250.518 227.915 250.518 223.789L250.518 122.188C250.518 118.062 247.173 114.717 243.047 114.717L198.721 114.717L172.935 114.717C171.085 114.717 169.585 116.217 169.585 118.067C169.585 120.467 167.639 122.413 165.239 122.413L146.426 122.413L127.613 122.413C125.212 122.413 123.267 120.467 123.267 118.067C123.267 116.217 121.767 114.717 119.917 114.717L94.1309 114.717L49.8047 114.717C45.6787 114.717 42.334 118.062 42.334 122.187L42.334 223.789C42.334 227.915 45.6787 231.26 49.8047 231.26L243.047 231.26Z" fill="#AB98F9" stroke="black" stroke-width="0.996094"/>
<mask id="path-6-inside-1_1410_8055" fill="white">
<path fill-rule="evenodd" clip-rule="evenodd" d="M45.1611 115.74C45.2714 115.736 45.3822 115.734 45.4936 115.734L89.8577 115.734L115.675 115.734C117.795 115.734 119.513 117.452 119.513 119.571C119.513 121.691 121.231 123.409 123.351 123.409L142.19 123.409L161.03 123.409C162.223 123.409 163.289 122.865 163.993 122.011L146.377 122.011L127.537 122.011C125.418 122.011 123.7 120.293 123.7 118.174C123.7 116.054 121.981 114.336 119.862 114.336H94.0443L49.6803 114.336C48.0022 114.336 46.4453 114.855 45.1611 115.74ZM169.93 115.734C170.634 114.88 171.7 114.336 172.892 114.336L198.71 114.336L243.074 114.336C247.475 114.336 251.043 117.904 251.043 122.305V223.593C251.043 227.882 247.653 231.38 243.407 231.555C245.49 230.117 246.856 227.713 246.856 224.99V123.702C246.856 119.301 243.288 115.734 238.887 115.734L194.523 115.734L169.93 115.734Z"/>
</mask>
<path fill-rule="evenodd" clip-rule="evenodd" d="M45.1611 115.74C45.2714 115.736 45.3822 115.734 45.4936 115.734L89.8577 115.734L115.675 115.734C117.795 115.734 119.513 117.452 119.513 119.571C119.513 121.691 121.231 123.409 123.351 123.409L142.19 123.409L161.03 123.409C162.223 123.409 163.289 122.865 163.993 122.011L146.377 122.011L127.537 122.011C125.418 122.011 123.7 120.293 123.7 118.174C123.7 116.054 121.981 114.336 119.862 114.336H94.0443L49.6803 114.336C48.0022 114.336 46.4453 114.855 45.1611 115.74ZM169.93 115.734C170.634 114.88 171.7 114.336 172.892 114.336L198.71 114.336L243.074 114.336C247.475 114.336 251.043 117.904 251.043 122.305V223.593C251.043 227.882 247.653 231.38 243.407 231.555C245.49 230.117 246.856 227.713 246.856 224.99V123.702C246.856 119.301 243.288 115.734 238.887 115.734L194.523 115.734L169.93 115.734Z" fill="black"/>
<path d="M45.4936 115.734L45.4936 114.737H45.4936V115.734ZM45.1611 115.74L44.5956 114.92L41.759 116.877L45.202 116.736L45.1611 115.74ZM89.8577 115.734V116.73V115.734ZM115.675 115.734V114.737V115.734ZM123.351 123.409V122.413V123.409ZM142.19 123.409V124.405V123.409ZM161.03 123.409V124.405V123.409ZM163.993 122.011L164.761 122.645L166.105 121.015H163.993V122.011ZM146.377 122.011V121.015V122.011ZM127.537 122.011V121.015V122.011ZM94.0443 114.336V115.332V114.336ZM49.6803 114.336V113.34V114.336ZM172.892 114.336V113.34V114.336ZM169.93 115.734L169.162 115.1L167.818 116.73H169.93V115.734ZM198.71 114.336V113.34V114.336ZM243.074 114.336V115.332V114.336ZM243.407 231.555L242.841 230.735L240.004 232.691L243.447 232.55L243.407 231.555ZM238.887 115.734V116.73V115.734ZM194.523 115.734V114.737V115.734ZM45.4936 114.737C45.3686 114.737 45.2441 114.74 45.1203 114.745L45.202 116.736C45.2986 116.732 45.3958 116.73 45.4936 116.73V114.737ZM89.8577 114.737L45.4936 114.737L45.4936 116.73L89.8577 116.73V114.737ZM115.675 114.737L89.8577 114.737V116.73L115.675 116.73V114.737ZM120.509 119.571C120.509 116.902 118.345 114.737 115.675 114.737V116.73C117.245 116.73 118.517 118.002 118.517 119.571H120.509ZM123.351 122.413C121.781 122.413 120.509 121.141 120.509 119.571H118.517C118.517 122.241 120.681 124.405 123.351 124.405V122.413ZM142.19 122.413L123.351 122.413V124.405L142.19 124.405V122.413ZM161.03 122.413L142.19 122.413V124.405L161.03 124.405V122.413ZM163.224 121.378C162.701 122.012 161.913 122.413 161.03 122.413V124.405C162.533 124.405 163.876 123.718 164.761 122.645L163.224 121.378ZM163.993 121.015L146.377 121.015V123.008L163.993 123.008V121.015ZM146.377 121.015L127.537 121.015V123.008L146.377 123.008V121.015ZM127.537 121.015C125.968 121.015 124.696 119.743 124.696 118.174H122.704C122.704 120.843 124.868 123.008 127.537 123.008V121.015ZM124.696 118.174C124.696 115.504 122.532 113.34 119.862 113.34V115.332C121.431 115.332 122.704 116.604 122.704 118.174H124.696ZM119.862 113.34H94.0443V115.332H119.862V113.34ZM94.0443 113.34L49.6803 113.34V115.332L94.0443 115.332V113.34ZM49.6803 113.34C47.7938 113.34 46.0407 113.924 44.5956 114.92L45.7267 116.56C46.8499 115.786 48.2106 115.332 49.6803 115.332V113.34ZM172.892 113.34C171.39 113.34 170.047 114.027 169.162 115.1L170.699 116.367C171.222 115.733 172.01 115.332 172.892 115.332V113.34ZM198.71 113.34L172.892 113.34V115.332L198.71 115.332V113.34ZM243.074 113.34L198.71 113.34V115.332L243.074 115.332V113.34ZM252.039 122.305C252.039 117.354 248.025 113.34 243.074 113.34V115.332C246.925 115.332 250.047 118.454 250.047 122.305H252.039ZM252.039 223.593V122.305H250.047V223.593H252.039ZM243.447 232.55C248.226 232.354 252.039 228.419 252.039 223.593H250.047C250.047 227.346 247.081 230.407 243.366 230.559L243.447 232.55ZM243.972 232.375C246.314 230.759 247.852 228.055 247.852 224.99H245.86C245.86 227.372 244.667 229.475 242.841 230.735L243.972 232.375ZM247.852 224.99V123.702H245.86V224.99H247.852ZM247.852 123.702C247.852 118.751 243.839 114.737 238.887 114.737V116.73C242.738 116.73 245.86 119.851 245.86 123.702H247.852ZM238.887 114.737L194.523 114.737V116.73L238.887 116.73V114.737ZM194.523 114.737L169.93 114.737V116.73L194.523 116.73V114.737Z" fill="black" mask="url(#path-6-inside-1_1410_8055)"/>
<path d="M296.172 263.135C298.831 263.135 300.986 260.979 300.986 258.32L300.986 251.68C300.986 249.021 298.831 246.865 296.172 246.865L35.8594 246.865C33.2004 246.865 31.0449 249.021 31.0449 251.68L31.0449 258.32C31.0449 260.979 33.2004 263.135 35.8594 263.135L296.172 263.135Z" fill="black" stroke="black" stroke-width="0.996094"/>
<path d="M300.156 261.807C302.815 261.807 304.971 259.651 304.971 256.992L304.971 251.68C304.971 249.021 302.815 246.865 300.156 246.865L35.0293 246.865L35.0293 256.992C35.0293 259.651 37.1848 261.807 39.8438 261.807L300.156 261.807Z" fill="#424242" stroke="black" stroke-width="0.996094"/>
<rect x="39.6777" y="257.158" width="5.64453" height="18.2617" rx="2.82227" transform="rotate(-90 39.6777 257.158)" fill="#91A8ED" stroke="black" stroke-width="0.996094"/>
<path d="M300.156 263.135C302.815 263.135 304.971 260.979 304.971 258.32L304.971 251.68C304.971 249.021 302.815 246.865 300.156 246.865L251.68 246.865L226.914 246.865C225.676 246.865 224.485 247.342 223.589 248.197L221.604 250.092C220.523 251.124 219.086 251.7 217.592 251.7L197.891 251.7L178.692 251.7C177.327 251.7 176.004 251.219 174.958 250.341L172.157 247.991C171.29 247.264 170.195 246.865 169.063 246.865L144.102 246.865L95.625 246.865C92.9661 246.865 90.8106 249.021 90.8106 251.68L90.8106 258.32C90.8106 260.979 92.9661 263.135 95.625 263.135L300.156 263.135Z" fill="#91A8ED" stroke="black" stroke-width="0.996094"/>
<mask id="path-12-outside-2_1410_8055" maskUnits="userSpaceOnUse" x="155.719" y="57.4463" width="143" height="150" fill="black">
<rect fill="white" x="155.719" y="57.4463" width="143" height="150"/>
<path fill-rule="evenodd" clip-rule="evenodd" d="M227.109 199.228C265.985 199.228 297.5 167.713 297.5 128.837C297.5 89.9612 265.985 58.4463 227.109 58.4463C188.234 58.4463 156.719 89.9612 156.719 128.837C156.719 142.843 160.809 155.893 167.861 166.858L157.269 205.551C165.995 201.544 181.613 194.464 192.146 189.944C202.447 195.851 214.384 199.228 227.109 199.228Z"/>
</mask>
<path fill-rule="evenodd" clip-rule="evenodd" d="M227.109 199.228C265.985 199.228 297.5 167.713 297.5 128.837C297.5 89.9612 265.985 58.4463 227.109 58.4463C188.234 58.4463 156.719 89.9612 156.719 128.837C156.719 142.843 160.809 155.893 167.861 166.858L157.269 205.551C165.995 201.544 181.613 194.464 192.146 189.944C202.447 195.851 214.384 199.228 227.109 199.228Z" fill="black"/>
<path d="M167.861 166.858L168.821 167.121L168.939 166.693L168.698 166.32L167.861 166.858ZM157.269 205.551L156.308 205.288L155.744 207.348L157.684 206.457L157.269 205.551ZM192.146 189.944L192.641 189.08L192.21 188.833L191.753 189.029L192.146 189.944ZM296.504 128.837C296.504 167.162 265.435 198.231 227.109 198.231V200.224C266.535 200.224 298.496 168.263 298.496 128.837H296.504ZM227.109 59.4424C265.435 59.4424 296.504 90.5114 296.504 128.837H298.496C298.496 89.4111 266.535 57.4502 227.109 57.4502V59.4424ZM157.715 128.837C157.715 90.5114 188.784 59.4424 227.109 59.4424V57.4502C187.684 57.4502 155.723 89.4111 155.723 128.837H157.715ZM168.698 166.32C161.747 155.51 157.715 142.646 157.715 128.837H155.723C155.723 143.039 159.871 156.276 167.023 167.397L168.698 166.32ZM166.9 166.595L156.308 205.288L158.229 205.814L168.821 167.121L166.9 166.595ZM157.684 206.457C166.409 202.45 182.018 195.374 192.539 190.859L191.753 189.029C181.208 193.554 165.581 200.638 156.853 204.646L157.684 206.457ZM227.109 198.231C214.562 198.231 202.795 194.902 192.641 189.08L191.65 190.808C202.098 196.799 214.205 200.224 227.109 200.224V198.231Z" fill="black" mask="url(#path-12-outside-2_1410_8055)"/>
<mask id="path-14-outside-3_1410_8055" maskUnits="userSpaceOnUse" x="167.672" y="51.4609" width="143" height="150" fill="black">
<rect fill="white" x="167.672" y="51.4609" width="143" height="150"/>
<path fill-rule="evenodd" clip-rule="evenodd" d="M239.062 193.242C277.938 193.242 309.453 161.727 309.453 122.852C309.453 83.9759 277.938 52.4609 239.062 52.4609C200.187 52.4609 168.672 83.9759 168.672 122.852C168.672 136.857 172.762 149.908 179.814 160.873L169.222 199.566C177.948 195.559 193.566 188.479 204.099 183.959C214.4 189.865 226.337 193.242 239.062 193.242Z"/>
</mask>
<path fill-rule="evenodd" clip-rule="evenodd" d="M239.062 193.242C277.938 193.242 309.453 161.727 309.453 122.852C309.453 83.9759 277.938 52.4609 239.062 52.4609C200.187 52.4609 168.672 83.9759 168.672 122.852C168.672 136.857 172.762 149.908 179.814 160.873L169.222 199.566C177.948 195.559 193.566 188.479 204.099 183.959C214.4 189.865 226.337 193.242 239.062 193.242Z" fill="#91A8ED"/>
<path d="M179.814 160.873L180.774 161.136L180.892 160.708L180.652 160.334L179.814 160.873ZM169.222 199.566L168.261 199.303L167.697 201.362L169.638 200.471L169.222 199.566ZM204.099 183.959L204.594 183.094L204.163 182.847L203.706 183.043L204.099 183.959ZM308.457 122.852C308.457 161.177 277.388 192.246 239.062 192.246V194.238C278.488 194.238 310.449 162.277 310.449 122.852H308.457ZM239.062 53.457C277.388 53.457 308.457 84.526 308.457 122.852H310.449C310.449 83.4258 278.488 51.4648 239.062 51.4648V53.457ZM169.668 122.852C169.668 84.526 200.737 53.457 239.062 53.457V51.4648C199.637 51.4648 167.676 83.4258 167.676 122.852H169.668ZM180.652 160.334C173.7 149.525 169.668 136.661 169.668 122.852H167.676C167.676 137.054 171.824 150.29 178.976 161.412L180.652 160.334ZM178.853 160.61L168.261 199.303L170.183 199.829L180.774 161.136L178.853 160.61ZM169.638 200.471C178.362 196.464 193.971 189.389 204.492 184.874L203.706 183.043C193.161 187.568 177.534 194.653 168.806 198.661L169.638 200.471ZM239.062 192.246C226.515 192.246 214.749 188.917 204.594 183.094L203.603 184.823C214.051 190.814 226.158 194.238 239.062 194.238V192.246Z" fill="black" mask="url(#path-14-outside-3_1410_8055)"/>
<circle cx="239.062" cy="122.852" r="55.9473" fill="#98F9D0" stroke="black" stroke-width="0.996094"/>
<mask id="path-17-inside-4_1410_8055" fill="white">
<path fill-rule="evenodd" clip-rule="evenodd" d="M263.397 173.796C282.389 164.708 295.508 145.312 295.508 122.852C295.508 91.6777 270.236 66.4062 239.062 66.4062C227.907 66.4062 217.507 69.6423 208.751 75.227C216.119 71.701 224.372 69.7266 233.085 69.7266C264.259 69.7266 289.531 94.998 289.531 126.172C289.531 146.19 279.11 163.775 263.397 173.796Z"/>
</mask>
<path fill-rule="evenodd" clip-rule="evenodd" d="M263.397 173.796C282.389 164.708 295.508 145.312 295.508 122.852C295.508 91.6777 270.236 66.4062 239.062 66.4062C227.907 66.4062 217.507 69.6423 208.751 75.227C216.119 71.701 224.372 69.7266 233.085 69.7266C264.259 69.7266 289.531 94.998 289.531 126.172C289.531 146.19 279.11 163.775 263.397 173.796Z" fill="black"/>
<path d="M263.397 173.796L262.861 172.957L263.827 174.695L263.397 173.796ZM208.751 75.227L208.215 74.3871L209.181 76.1255L208.751 75.227ZM294.511 122.852C294.511 144.914 281.626 163.969 262.967 172.898L263.827 174.695C283.152 165.447 296.504 145.71 296.504 122.852H294.511ZM239.062 67.4023C269.686 67.4023 294.511 92.2278 294.511 122.852H296.504C296.504 91.1276 270.786 65.4102 239.062 65.4102V67.4023ZM209.287 76.0668C217.888 70.5812 228.102 67.4023 239.062 67.4023V65.4102C227.711 65.4102 217.127 68.7035 208.215 74.3871L209.287 76.0668ZM209.181 76.1255C216.418 72.6624 224.524 70.7227 233.085 70.7227V68.7305C224.22 68.7305 215.821 70.7396 208.321 74.3284L209.181 76.1255ZM233.085 70.7227C263.709 70.7227 288.535 95.5481 288.535 126.172H290.527C290.527 94.4479 264.809 68.7305 233.085 68.7305V70.7227ZM288.535 126.172C288.535 145.836 278.299 163.11 262.861 172.957L263.932 174.636C279.92 164.439 290.527 146.545 290.527 126.172H288.535Z" fill="black" mask="url(#path-17-inside-4_1410_8055)"/>
<mask id="path-19-inside-5_1410_8055" fill="white">
<path fill-rule="evenodd" clip-rule="evenodd" d="M198.207 84.7927C202.357 80.6433 209.084 80.6433 213.234 84.7927L235.197 106.756L257.16 84.7927C261.309 80.6433 268.037 80.6433 272.186 84.7927L273.375 85.9819C277.525 90.1312 277.525 96.8586 273.375 101.008L251.412 122.971L273.375 144.934C277.524 149.084 277.524 155.811 273.375 159.96L272.186 161.149C268.036 165.299 261.309 165.299 257.16 161.149L235.197 139.186L213.234 161.149C209.084 165.299 202.357 165.299 198.208 161.149L197.018 159.96C192.869 155.811 192.869 149.084 197.018 144.934L218.981 122.971L197.018 101.008C192.869 96.8586 192.869 90.1312 197.018 85.9819L198.207 84.7927Z"/>
</mask>
<path fill-rule="evenodd" clip-rule="evenodd" d="M198.207 84.7927C202.357 80.6433 209.084 80.6433 213.234 84.7927L235.197 106.756L257.16 84.7927C261.309 80.6433 268.037 80.6433 272.186 84.7927L273.375 85.9819C277.525 90.1312 277.525 96.8586 273.375 101.008L251.412 122.971L273.375 144.934C277.524 149.084 277.524 155.811 273.375 159.96L272.186 161.149C268.036 165.299 261.309 165.299 257.16 161.149L235.197 139.186L213.234 161.149C209.084 165.299 202.357 165.299 198.208 161.149L197.018 159.96C192.869 155.811 192.869 149.084 197.018 144.934L218.981 122.971L197.018 101.008C192.869 96.8586 192.869 90.1312 197.018 85.9819L198.207 84.7927Z" fill="black"/>
<path d="M213.234 84.7927L213.938 84.0883L213.234 84.7927ZM198.207 84.7927L198.912 85.497L198.207 84.7927ZM235.197 106.756L234.492 107.46L235.197 108.165L235.901 107.46L235.197 106.756ZM257.16 84.7927L256.456 84.0883L257.16 84.7927ZM272.186 84.7927L271.482 85.497V85.497L272.186 84.7927ZM273.375 85.9819L274.08 85.2776V85.2776L273.375 85.9819ZM273.375 101.008L272.671 100.304V100.304L273.375 101.008ZM251.412 122.971L250.708 122.267L250.003 122.971L250.708 123.676L251.412 122.971ZM273.375 144.934L272.671 145.639L273.375 144.934ZM273.375 159.96L274.079 160.665L273.375 159.96ZM272.186 161.149L272.89 161.854L272.186 161.149ZM235.197 139.186L235.901 138.482L235.197 137.778L234.492 138.482L235.197 139.186ZM213.234 161.149L212.529 160.445L213.234 161.149ZM198.208 161.149L197.503 161.854H197.503L198.208 161.149ZM197.018 159.96L197.723 159.256H197.723L197.018 159.96ZM197.018 144.934L197.723 145.639H197.723L197.018 144.934ZM218.981 122.971L219.686 123.676L220.39 122.971L219.686 122.267L218.981 122.971ZM197.018 101.008L196.314 101.712L197.018 101.008ZM197.018 85.9819L197.723 86.6863L197.018 85.9819ZM213.938 84.0883C209.4 79.55 202.041 79.55 197.503 84.0883L198.912 85.497C202.672 81.7367 208.769 81.7367 212.529 85.497L213.938 84.0883ZM235.901 106.052L213.938 84.0883L212.529 85.497L234.492 107.46L235.901 106.052ZM235.901 107.46L257.864 85.497L256.456 84.0883L234.492 106.052L235.901 107.46ZM257.864 85.497C261.625 81.7367 267.721 81.7367 271.482 85.497L272.89 84.0883C268.352 79.55 260.994 79.55 256.456 84.0883L257.864 85.497ZM271.482 85.497L272.671 86.6863L274.08 85.2776L272.89 84.0883L271.482 85.497ZM272.671 86.6863C276.431 90.4466 276.431 96.5433 272.671 100.304L274.08 101.712C278.618 97.174 278.618 89.8159 274.08 85.2776L272.671 86.6863ZM272.671 100.304L250.708 122.267L252.116 123.676L274.08 101.712L272.671 100.304ZM274.079 144.23L252.116 122.267L250.708 123.676L272.671 145.639L274.079 144.23ZM274.079 160.665C278.618 156.126 278.618 148.768 274.079 144.23L272.671 145.639C276.431 149.399 276.431 155.496 272.671 159.256L274.079 160.665ZM272.89 161.854L274.079 160.665L272.671 159.256L271.481 160.445L272.89 161.854ZM256.455 161.854C260.994 166.392 268.352 166.392 272.89 161.854L271.481 160.445C267.721 164.205 261.624 164.205 257.864 160.445L256.455 161.854ZM234.492 139.891L256.455 161.854L257.864 160.445L235.901 138.482L234.492 139.891ZM234.492 138.482L212.529 160.445L213.938 161.854L235.901 139.891L234.492 138.482ZM212.529 160.445C208.769 164.205 202.672 164.205 198.912 160.445L197.503 161.854C202.042 166.392 209.4 166.392 213.938 161.854L212.529 160.445ZM198.912 160.445L197.723 159.256L196.314 160.665L197.503 161.854L198.912 160.445ZM197.723 159.256C193.962 155.496 193.962 149.399 197.723 145.639L196.314 144.23C191.776 148.768 191.776 156.126 196.314 160.665L197.723 159.256ZM197.723 145.639L219.686 123.676L218.277 122.267L196.314 144.23L197.723 145.639ZM196.314 101.712L218.277 123.676L219.686 122.267L197.723 100.304L196.314 101.712ZM196.314 85.2776C191.776 89.8159 191.776 97.174 196.314 101.712L197.723 100.304C193.962 96.5433 193.962 90.4466 197.723 86.6863L196.314 85.2776ZM197.503 84.0883L196.314 85.2776L197.723 86.6863L198.912 85.497L197.503 84.0883Z" fill="black" mask="url(#path-19-inside-5_1410_8055)"/>
<mask id="path-21-inside-6_1410_8055" fill="white">
<path fill-rule="evenodd" clip-rule="evenodd" d="M205.617 84.7927C209.766 80.6433 216.493 80.6433 220.643 84.7927L242.606 106.756L264.569 84.7927C268.718 80.6433 275.446 80.6433 279.595 84.7927L280.784 85.9819C284.934 90.1312 284.934 96.8586 280.784 101.008L258.821 122.971L280.784 144.934C284.934 149.084 284.934 155.811 280.784 159.96L279.595 161.149C275.446 165.299 268.718 165.299 264.569 161.149L242.606 139.186L220.643 161.149C216.493 165.299 209.766 165.299 205.617 161.149L204.428 159.96C200.278 155.811 200.278 149.084 204.428 144.934L226.391 122.971L204.427 101.008C200.278 96.8586 200.278 90.1312 204.427 85.9819L205.617 84.7927Z"/>
</mask>
<path fill-rule="evenodd" clip-rule="evenodd" d="M205.617 84.7927C209.766 80.6433 216.493 80.6433 220.643 84.7927L242.606 106.756L264.569 84.7927C268.718 80.6433 275.446 80.6433 279.595 84.7927L280.784 85.9819C284.934 90.1312 284.934 96.8586 280.784 101.008L258.821 122.971L280.784 144.934C284.934 149.084 284.934 155.811 280.784 159.96L279.595 161.149C275.446 165.299 268.718 165.299 264.569 161.149L242.606 139.186L220.643 161.149C216.493 165.299 209.766 165.299 205.617 161.149L204.428 159.96C200.278 155.811 200.278 149.084 204.428 144.934L226.391 122.971L204.427 101.008C200.278 96.8586 200.278 90.1312 204.427 85.9819L205.617 84.7927Z" fill="#FF91E7"/>
<path d="M220.643 84.7927L221.347 84.0883L220.643 84.7927ZM205.617 84.7927L206.321 85.497L205.617 84.7927ZM242.606 106.756L241.902 107.46L242.606 108.165L243.31 107.46L242.606 106.756ZM264.569 84.7927L263.865 84.0883L264.569 84.7927ZM279.595 84.7927L278.891 85.497V85.497L279.595 84.7927ZM280.784 85.9819L281.489 85.2776V85.2776L280.784 85.9819ZM280.784 101.008L280.08 100.304V100.304L280.784 101.008ZM258.821 122.971L258.117 122.267L257.412 122.971L258.117 123.675L258.821 122.971ZM280.784 144.934L280.08 145.639L280.784 144.934ZM280.784 159.96L281.489 160.665L280.784 159.96ZM279.595 161.149L280.299 161.854L279.595 161.149ZM242.606 139.186L243.31 138.482L242.606 137.778L241.902 138.482L242.606 139.186ZM220.643 161.149L219.938 160.445L220.643 161.149ZM205.617 161.149L204.912 161.854H204.912L205.617 161.149ZM204.428 159.96L205.132 159.256H205.132L204.428 159.96ZM204.428 144.934L205.132 145.639H205.132L204.428 144.934ZM226.391 122.971L227.095 123.675L227.799 122.971L227.095 122.267L226.391 122.971ZM204.427 101.008L203.723 101.712L204.427 101.008ZM204.427 85.9819L205.132 86.6863L204.427 85.9819ZM221.347 84.0883C216.809 79.55 209.451 79.55 204.912 84.0883L206.321 85.497C210.081 81.7367 216.178 81.7367 219.938 85.497L221.347 84.0883ZM243.31 106.051L221.347 84.0883L219.938 85.497L241.902 107.46L243.31 106.051ZM243.31 107.46L265.273 85.497L263.865 84.0883L241.902 106.051L243.31 107.46ZM265.273 85.497C269.034 81.7367 275.13 81.7367 278.891 85.497L280.299 84.0883C275.761 79.55 268.403 79.55 263.865 84.0883L265.273 85.497ZM278.891 85.497L280.08 86.6863L281.489 85.2776L280.299 84.0883L278.891 85.497ZM280.08 86.6863C283.84 90.4466 283.84 96.5433 280.08 100.304L281.489 101.712C286.027 97.174 286.027 89.8159 281.489 85.2776L280.08 86.6863ZM280.08 100.304L258.117 122.267L259.526 123.675L281.489 101.712L280.08 100.304ZM281.489 144.23L259.526 122.267L258.117 123.675L280.08 145.639L281.489 144.23ZM281.489 160.665C286.027 156.126 286.027 148.768 281.489 144.23L280.08 145.639C283.84 149.399 283.84 155.496 280.08 159.256L281.489 160.665ZM280.299 161.854L281.489 160.665L280.08 159.256L278.891 160.445L280.299 161.854ZM263.865 161.854C268.403 166.392 275.761 166.392 280.299 161.854L278.891 160.445C275.13 164.205 269.034 164.205 265.273 160.445L263.865 161.854ZM241.902 139.891L263.865 161.854L265.273 160.445L243.31 138.482L241.902 139.891ZM241.902 138.482L219.938 160.445L221.347 161.854L243.31 139.891L241.902 138.482ZM219.938 160.445C216.178 164.205 210.081 164.205 206.321 160.445L204.912 161.854C209.451 166.392 216.809 166.392 221.347 161.854L219.938 160.445ZM206.321 160.445L205.132 159.256L203.723 160.665L204.912 161.854L206.321 160.445ZM205.132 159.256C201.372 155.496 201.372 149.399 205.132 145.639L203.723 144.23C199.185 148.768 199.185 156.126 203.723 160.665L205.132 159.256ZM205.132 145.639L227.095 123.675L225.686 122.267L203.723 144.23L205.132 145.639ZM203.723 101.712L225.686 123.675L227.095 122.267L205.132 100.304L203.723 101.712ZM203.723 85.2776C199.185 89.8159 199.185 97.174 203.723 101.712L205.132 100.304C201.371 96.5433 201.371 90.4466 205.132 86.6863L203.723 85.2776ZM204.912 84.0883L203.723 85.2776L205.132 86.6863L206.321 85.497L204.912 84.0883Z" fill="black" mask="url(#path-21-inside-6_1410_8055)"/>
<path d="M218.632 246.266C218.584 246.035 218.381 245.869 218.145 245.869C217.909 245.869 217.705 246.035 217.657 246.266L214.17 263.033L197.128 266.465C196.896 266.512 196.729 266.716 196.729 266.953C196.729 267.19 196.896 267.395 197.128 267.441L214.17 270.873L217.657 287.64C217.705 287.871 217.909 288.037 218.145 288.037C218.381 288.037 218.584 287.871 218.632 287.64L222.119 270.873L239.161 267.441C239.393 267.395 239.561 267.19 239.561 266.953C239.561 266.716 239.393 266.512 239.161 266.465L222.119 263.033L218.632 246.266Z" fill="white" stroke="black" stroke-width="0.996094" stroke-linejoin="round"/>
<path d="M89.14 82.9064C89.0919 82.6754 88.8883 82.5098 88.6523 82.5098C88.4164 82.5098 88.2128 82.6754 88.1647 82.9064L84.6783 99.6735L67.636 103.106C67.4036 103.152 67.2363 103.357 67.2363 103.594C67.2363 103.831 67.4036 104.035 67.636 104.082L84.6783 107.514L88.1647 124.281C88.2128 124.512 88.4164 124.678 88.6523 124.678C88.8883 124.678 89.0919 124.512 89.14 124.281L92.6264 107.514L109.669 104.082C109.901 104.035 110.068 103.831 110.068 103.594C110.068 103.357 109.901 103.152 109.669 103.106L92.6264 99.6735L89.14 82.9064Z" fill="white" stroke="black" stroke-width="0.996094" stroke-linejoin="round"/>
</svg>
