<svg width="24" height="25" viewBox="0 0 24 25" fill="none" xmlns="http://www.w3.org/2000/svg">
<g id="mingcute:github-line" clip-path="url(#clip0_776_25671)">
<g id="Group">
<path id="Vector" d="M6.31523 6.27908C6.06523 5.64108 6.07523 4.91208 6.18623 4.24508C6.95019 4.47464 7.66779 4.83683 8.30623 5.31508C8.58623 5.52908 8.95323 5.59808 9.29523 5.49508C10.1727 5.2319 11.0842 5.09981 12.0002 5.10308C12.9612 5.10308 13.8742 5.24308 14.7032 5.49408C15.0452 5.59808 15.4122 5.52808 15.6912 5.31408C16.3294 4.83593 17.0466 4.47374 17.8102 4.24408C17.9212 4.91108 17.9302 5.64008 17.6822 6.27708C17.5322 6.66108 17.6072 7.10308 17.8902 7.41708C18.6142 8.22008 19.0002 9.14308 19.0002 10.1031C19.0002 12.2171 17.0302 14.2901 13.8662 14.9211C13.0742 15.0791 12.7652 16.0761 13.3712 16.6471C13.7602 17.0131 14.0002 17.5291 14.0002 18.1031V21.1031C14.0002 21.3683 14.1056 21.6227 14.2931 21.8102C14.4807 21.9977 14.735 22.1031 15.0002 22.1031C15.2654 22.1031 15.5198 21.9977 15.7073 21.8102C15.8949 21.6227 16.0002 21.3683 16.0002 21.1031V18.1031C16.0002 17.5331 15.8802 16.9911 15.6662 16.5001C18.6832 15.4531 21.0002 13.0961 21.0002 10.1031C21.0002 8.75608 20.5162 7.51808 19.7132 6.48108C19.9232 5.66108 19.9042 4.83508 19.8242 4.20108C19.7532 3.63308 19.6542 2.88908 19.2542 2.44508C18.6592 1.78608 17.6742 2.17408 16.9742 2.41308C16.223 2.6663 15.5084 3.01767 14.8492 3.45808C13.9183 3.22016 12.9611 3.10088 12.0002 3.10308C11.0062 3.10308 10.0472 3.22808 9.14923 3.45908C8.49001 3.01867 7.7755 2.6673 7.02423 2.41408C6.32423 2.17408 5.33823 1.78608 4.74323 2.44508C4.33523 2.89708 4.25023 3.58208 4.17723 4.16408L4.17223 4.20208C4.09223 4.83708 4.07423 5.66408 4.28423 6.48508C3.48423 7.52108 3.00023 8.75708 3.00023 10.1031C3.00023 13.0951 5.31723 15.4531 8.33423 16.5001C8.11623 16.9995 8.00258 17.5382 8.00023 18.0831L7.83223 18.1171C7.11523 18.2161 6.65623 18.1271 6.34423 17.9951C5.58423 17.6731 5.19223 16.8621 4.71423 16.2421C4.41623 15.8571 3.98223 15.3761 3.31623 15.1541C3.1916 15.1126 3.06003 15.096 2.92901 15.1054C2.79799 15.1147 2.6701 15.1498 2.55263 15.2086C2.3154 15.3273 2.13504 15.5354 2.05123 15.7871C1.96742 16.0388 1.98703 16.3134 2.10574 16.5507C2.22445 16.7879 2.43254 16.9683 2.68423 17.0521C3.24223 17.2381 3.62823 18.1941 3.98223 18.6181C4.35523 19.0661 4.85123 19.5341 5.56223 19.8361C6.24423 20.1261 7.04523 20.2291 8.00023 20.1121V21.1031C8.00023 21.3683 8.10559 21.6227 8.29312 21.8102C8.48066 21.9977 8.73501 22.1031 9.00023 22.1031C9.26545 22.1031 9.5198 21.9977 9.70734 21.8102C9.89487 21.6227 10.0002 21.3683 10.0002 21.1031V18.1031C10.0002 17.5291 10.2402 17.0131 10.6292 16.6471C11.2362 16.0751 10.9262 15.0791 10.1342 14.9211C6.96923 14.2901 5.00023 12.2171 5.00023 10.1031C5.00023 9.14508 5.38523 8.22208 6.10823 7.41908C6.39123 7.10508 6.46523 6.66308 6.31523 6.27908Z" fill="white"/>
</g>
</g>
<defs>
<clipPath id="clip0_776_25671">
<rect width="24" height="24" fill="white" transform="translate(0 0.103516)"/>
</clipPath>
</defs>
</svg>
