<svg width="240" height="240" viewBox="0 0 240 240" fill="none" xmlns="http://www.w3.org/2000/svg">
<g id="Time_Hourglass">
<path id="Ellipse 188" d="M186.211 191.719C186.211 192.325 185.881 192.964 185.146 193.631C184.411 194.297 183.307 194.956 181.854 195.593C178.948 196.867 174.723 198.023 169.474 198.997C158.982 200.943 144.474 202.148 128.438 202.148C112.401 202.148 97.8927 200.943 87.401 198.997C82.1523 198.023 77.9266 196.867 75.0214 195.593C73.5676 194.956 72.4641 194.297 71.7295 193.631C70.994 192.964 70.6641 192.325 70.6641 191.719C70.6641 191.113 70.994 190.473 71.7295 189.806C72.4641 189.141 73.5676 188.482 75.0214 187.844C77.9266 186.57 82.1523 185.414 87.401 184.441C97.8927 182.495 112.401 181.289 128.438 181.289C144.474 181.289 158.982 182.495 169.474 184.441C174.723 185.414 178.948 186.57 181.854 187.844C183.307 188.482 184.411 189.141 185.146 189.806C185.881 190.473 186.211 191.113 186.211 191.719Z" fill="#444444" stroke="#444444" stroke-width="0.703125"/>
<path id="Union" d="M76.7578 72.3819V50.0391H180.117V72.2286C180.117 80.839 175.838 88.8864 168.699 93.7007L136.014 115.743C135.215 116.281 134.736 117.181 134.736 118.144C134.736 119.083 135.191 119.963 135.956 120.507L169.21 144.112C176.052 148.969 180.117 156.84 180.117 165.23V186.211H76.7578V165.076C76.7578 156.77 80.7415 148.968 87.4695 144.098L120.047 120.514C120.807 119.964 121.257 119.083 121.257 118.145C121.257 117.182 120.783 116.28 119.989 115.734L87.9806 93.7209C80.9549 88.8891 76.7578 80.9087 76.7578 72.3819Z" fill="#98B1F9" stroke="#444444" stroke-width="0.703125"/>
<path id="Ellipse 184" d="M180.117 49.4531C180.117 49.9779 179.831 50.5381 179.176 51.1288C178.523 51.7185 177.539 52.3038 176.239 52.8713C173.642 54.0053 169.863 55.0347 165.165 55.9023C155.776 57.6363 142.791 58.7109 128.438 58.7109C114.084 58.7109 101.099 57.6363 91.7097 55.9023C87.0123 55.0347 83.2327 54.0053 80.6358 52.8713C79.3361 52.3038 78.3523 51.7185 77.6989 51.1288C77.0445 50.5381 76.7578 49.9779 76.7578 49.4531C76.7578 48.9284 77.0445 48.3681 77.6989 47.7775C78.3523 47.1878 79.3361 46.6024 80.6358 46.0349C83.2327 44.901 87.0123 43.8715 91.7097 43.004C101.099 41.27 114.084 40.1953 128.438 40.1953C142.791 40.1953 155.776 41.27 165.165 43.004C169.863 43.8715 173.642 44.901 176.239 46.0349C177.539 46.6024 178.523 47.1878 179.176 47.7775C179.831 48.3681 180.117 48.9284 180.117 49.4531Z" fill="#98F9D0" stroke="#444444" stroke-width="0.703125"/>
<path id="Ellipse 181" d="M180.117 186.797C180.117 187.322 179.831 187.882 179.176 188.473C178.523 189.062 177.539 189.648 176.239 190.215C173.642 191.349 169.863 192.378 165.165 193.246C155.776 194.98 142.791 196.055 128.438 196.055C114.084 196.055 101.099 194.98 91.7097 193.246C87.0123 192.378 83.2327 191.349 80.6358 190.215C79.3361 189.648 78.3523 189.062 77.6989 188.473C77.0445 187.882 76.7578 187.322 76.7578 186.797C76.7578 186.272 77.0445 185.712 77.6989 185.121C78.3523 184.532 79.3361 183.946 80.6358 183.379C83.2327 182.245 87.0123 181.215 91.7097 180.348C101.099 178.614 114.084 177.539 128.438 177.539C142.791 177.539 155.776 178.614 165.165 180.348C169.863 181.215 173.642 182.245 176.239 183.379C177.539 183.946 178.523 184.532 179.176 185.121C179.831 185.712 180.117 186.272 180.117 186.797Z" fill="#98B1F9" stroke="black" stroke-width="0.703125"/>
<path id="Ellipse 191" d="M165.117 186.797C165.117 187.04 164.961 187.344 164.501 187.7C164.048 188.05 163.358 188.403 162.435 188.748C160.594 189.437 157.909 190.064 154.568 190.593C147.889 191.65 138.651 192.305 128.438 192.305C118.224 192.305 108.986 191.65 102.307 190.593C98.9655 190.064 96.2809 189.437 94.4395 188.748C93.5169 188.403 92.8267 188.05 92.3736 187.7C91.9138 187.344 91.7578 187.04 91.7578 186.797C91.7578 186.554 91.9138 186.25 92.3736 185.894C92.8267 185.544 93.5169 185.191 94.4395 184.845C96.2809 184.157 98.9655 183.53 102.307 183.001C108.986 181.944 118.224 181.289 128.438 181.289C138.651 181.289 147.889 181.944 154.568 183.001C157.909 183.53 160.594 184.157 162.435 184.845C163.358 185.191 164.048 185.544 164.501 185.894C164.961 186.25 165.117 186.554 165.117 186.797Z" fill="#FF91E7" stroke="#444444" stroke-width="0.703125"/>
<g id="Union_2">
<mask id="path-6-inside-1_1410_7839" fill="white">
<path d="M172.166 71.1924H84.3057C84.3057 80.0563 88.8647 88.2971 96.374 93.0067L117.995 106.566C121.26 108.614 123.642 111.806 124.676 115.519V124.348C124.676 126.108 126.103 127.535 127.864 127.535C129.624 127.535 131.051 126.108 131.051 124.348V115.519C132.44 111.778 135.03 108.603 138.416 106.491L160.079 92.9775C167.597 88.2878 172.166 80.0532 172.166 71.1924Z"/>
</mask>
<path d="M172.166 71.1924H84.3057C84.3057 80.0563 88.8647 88.2971 96.374 93.0067L117.995 106.566C121.26 108.614 123.642 111.806 124.676 115.519V124.348C124.676 126.108 126.103 127.535 127.864 127.535C129.624 127.535 131.051 126.108 131.051 124.348V115.519C132.44 111.778 135.03 108.603 138.416 106.491L160.079 92.9775C167.597 88.2878 172.166 80.0532 172.166 71.1924Z" fill="#FF91E7"/>
<path d="M84.3057 71.1924V70.4893H83.6025V71.1924H84.3057ZM172.166 71.1924H172.869V70.4893H172.166V71.1924ZM117.995 106.566L118.368 105.971L117.995 106.566ZM96.374 93.0067L96.0005 93.6023L96.374 93.0067ZM160.079 92.9775L159.707 92.3809V92.3809L160.079 92.9775ZM138.416 106.491L138.788 107.088H138.788L138.416 106.491ZM124.676 115.519H125.379V115.423L125.354 115.33L124.676 115.519ZM131.051 115.519L130.392 115.274L130.348 115.392V115.519H131.051ZM84.3057 71.8955H172.166V70.4893H84.3057V71.8955ZM118.368 105.971L96.7476 92.411L96.0005 93.6023L117.621 107.162L118.368 105.971ZM159.707 92.3809L138.044 105.895L138.788 107.088L160.451 93.5741L159.707 92.3809ZM125.379 124.348V115.519H123.973V124.348H125.379ZM130.348 115.519V124.348H131.754V115.519H130.348ZM123.973 124.348C123.973 126.496 125.715 128.238 127.864 128.238V126.832C126.492 126.832 125.379 125.719 125.379 124.348H123.973ZM130.348 124.348C130.348 125.719 129.235 126.832 127.864 126.832V128.238C130.012 128.238 131.754 126.496 131.754 124.348H130.348ZM160.451 93.5741C168.175 88.7559 172.869 80.2958 172.869 71.1924H171.463C171.463 79.8105 167.019 87.8196 159.707 92.3809L160.451 93.5741ZM138.044 105.895C134.526 108.089 131.835 111.387 130.392 115.274L131.71 115.764C133.045 112.169 135.534 109.117 138.788 107.088L138.044 105.895ZM117.621 107.162C120.738 109.117 123.012 112.164 123.999 115.708L125.354 115.33C124.273 111.449 121.782 108.111 118.368 105.971L117.621 107.162ZM83.6025 71.1924C83.6025 80.2984 88.2861 88.7642 96.0005 93.6023L96.7476 92.411C89.4434 87.83 85.0088 79.8143 85.0088 71.1924H83.6025Z" fill="#444444" mask="url(#path-6-inside-1_1410_7839)"/>
</g>
<path id="Ellipse 189" d="M171.68 71.7188C171.68 72.0869 171.462 72.5031 170.915 72.9606C170.372 73.4153 169.549 73.8698 168.455 74.3122C166.272 75.1956 163.091 75.9986 159.135 76.6755C151.229 78.0285 140.292 78.8672 128.203 78.8672C116.114 78.8672 105.178 78.0285 97.2713 76.6755C93.3152 75.9986 90.1346 75.1956 87.9511 74.3122C86.8577 73.8698 86.0347 73.4153 85.491 72.9606C84.9439 72.5031 84.7266 72.0869 84.7266 71.7188C84.7266 71.3506 84.9439 70.9344 85.491 70.4769C86.0347 70.0222 86.8577 69.5677 87.9511 69.1253C90.1346 68.2419 93.3152 67.4389 97.2713 66.762C105.178 65.409 116.114 64.5703 128.203 64.5703C140.292 64.5703 151.229 65.409 159.135 66.762C163.091 67.4389 166.272 68.2419 168.455 69.1253C169.549 69.5677 170.372 70.0222 170.915 70.4769C171.462 70.9344 171.68 71.3506 171.68 71.7188Z" fill="#FF91E7" stroke="black" stroke-width="0.703125"/>
<path id="Ellipse 190" d="M179.596 59.2653C180.212 58.684 180.469 58.1457 180.469 57.6562L76.875 57.7859C76.9202 58.2824 77.2326 58.8306 77.9105 59.4172C78.5855 60.0012 79.5826 60.5873 80.9023 61.1599C83.5394 62.3044 87.3861 63.3624 92.3028 64.2605C102.131 66.0557 115.362 67.0529 129.114 67.0309C142.865 67.0089 156.003 65.9695 165.665 64.1434C170.499 63.2297 174.246 62.16 176.775 61.009C178.041 60.4329 178.98 59.8462 179.596 59.2653Z" fill="#98B1F9"/>
<path id="Ellipse 186" d="M180.117 57.4219C180.117 57.9207 179.852 58.4613 179.231 59.0376C178.612 59.6134 177.671 60.1925 176.407 60.7595C173.881 61.8926 170.141 62.9443 165.321 63.8421C155.687 65.6366 142.589 66.6577 128.881 66.6793C115.173 66.7009 101.982 65.7213 92.1821 63.9571C87.2799 63.0747 83.4415 62.0345 80.8078 60.9081C79.4901 60.3445 78.491 59.7665 77.8129 59.1882C77.1321 58.6076 76.8106 58.0585 76.7639 57.5535" stroke="black" stroke-width="0.703125"/>
<path id="Ellipse 189_2" d="M186.211 48.2812C186.211 48.8875 185.881 49.5269 185.146 50.1936C184.411 50.8594 183.307 51.5183 181.854 52.1558C178.948 53.4299 174.723 54.5855 169.474 55.5591C158.982 57.5051 144.474 58.7109 128.438 58.7109C112.401 58.7109 97.8927 57.5051 87.401 55.5591C82.1523 54.5855 77.9266 53.4299 75.0214 52.1558C73.5676 51.5183 72.4641 50.8594 71.7295 50.1936C70.994 49.5269 70.6641 48.8875 70.6641 48.2812C70.6641 47.675 70.994 47.0356 71.7295 46.3689C72.4641 45.7031 73.5676 45.0442 75.0214 44.4067C77.9266 43.1326 82.1523 41.977 87.401 41.0034C97.8927 39.0574 112.401 37.8516 128.438 37.8516C144.474 37.8516 158.982 39.0574 169.474 41.0034C174.723 41.977 178.948 43.1326 181.854 44.4067C183.307 45.0442 184.411 45.7031 185.146 46.3689C185.881 47.0356 186.211 47.675 186.211 48.2812Z" fill="#444444" stroke="#444444" stroke-width="0.703125"/>
<path id="Polygon 2" d="M67.8446 61.8056C67.8116 61.6415 67.6674 61.5234 67.5 61.5234C67.3326 61.5234 67.1884 61.6415 67.1554 61.8056L64.7327 73.8354L52.8972 76.2964C52.7341 76.3303 52.6172 76.474 52.6172 76.6406C52.6172 76.8072 52.7341 76.9509 52.8972 76.9848L64.7327 79.4458L67.1554 91.4757C67.1884 91.6398 67.3326 91.7578 67.5 91.7578C67.6674 91.7578 67.8116 91.6398 67.8446 91.4757L70.2673 79.4458L82.1028 76.9848C82.2659 76.9509 82.3828 76.8072 82.3828 76.6406C82.3828 76.474 82.2659 76.3303 82.1028 76.2964L70.2673 73.8354L67.8446 61.8056Z" fill="#98F9D0" stroke="#444444" stroke-width="0.703125" stroke-linejoin="round"/>
<path id="Polygon 3" d="M164.89 151.336C164.923 151.172 165.067 151.055 165.234 151.055C165.401 151.055 165.545 151.172 165.579 151.336L167.722 161.809L178.195 163.952C178.359 163.986 178.477 164.13 178.477 164.297C178.477 164.464 178.359 164.608 178.195 164.641L167.722 166.785L165.579 177.258C165.545 177.422 165.401 177.539 165.234 177.539C165.067 177.539 164.923 177.422 164.89 177.258L162.747 166.785L152.273 164.641C152.11 164.608 151.992 164.464 151.992 164.297C151.992 164.13 152.11 163.986 152.273 163.952L162.747 161.809L164.89 151.336Z" fill="#98F9D0" stroke="#444444" stroke-width="0.703125" stroke-linejoin="round"/>
</g>
</svg>
