<svg width="220" height="220" viewBox="0 0 220 220" fill="none" xmlns="http://www.w3.org/2000/svg">
<g id="Secure_Password_Lock">
<g id="Group 62">
<path id="Vector" d="M170.396 146.124C188.604 139.85 201.842 130.362 199.964 124.932C198.086 119.502 181.803 120.187 163.594 126.461C145.386 132.735 132.148 142.223 134.026 147.652C135.904 153.082 152.187 152.398 170.396 146.124ZM170.396 146.124C152.187 152.398 138.98 161.976 140.897 167.516C142.813 173.057 159.127 172.463 177.336 166.189C195.544 159.915 208.751 150.337 206.835 144.796C204.918 139.256 188.604 139.85 170.396 146.124ZM173.866 156.156C192.074 149.882 205.281 140.305 203.365 134.764C201.448 129.223 185.134 129.818 166.926 136.092C148.717 142.366 135.51 151.943 137.427 157.484C139.343 163.025 155.657 162.43 173.866 156.156ZM173.866 156.156C155.657 162.43 142.419 171.918 144.297 177.348C146.175 182.778 162.459 182.094 180.667 175.82C198.875 169.546 212.114 160.058 210.235 154.628C208.357 149.198 192.074 149.882 173.866 156.156Z" stroke="white" stroke-width="0.870052"/>
<g id="Subtract">
<mask id="path-2-inside-1_1410_7905" fill="white">
<path fill-rule="evenodd" clip-rule="evenodd" d="M95.0396 26C116.182 26 133.322 43.0588 133.322 64.1017V148.387L121.721 148.387V66.5742C121.721 51.854 109.775 39.9208 95.0396 39.9208C80.3038 39.9208 68.358 51.854 68.358 66.5742V148.387L56.7573 148.387V64.1017C56.7573 43.0588 73.897 26 95.0396 26Z"/>
</mask>
<path fill-rule="evenodd" clip-rule="evenodd" d="M95.0396 26C116.182 26 133.322 43.0588 133.322 64.1017V148.387L121.721 148.387V66.5742C121.721 51.854 109.775 39.9208 95.0396 39.9208C80.3038 39.9208 68.358 51.854 68.358 66.5742V148.387L56.7573 148.387V64.1017C56.7573 43.0588 73.897 26 95.0396 26Z" fill="#262626"/>
<path d="M133.322 148.387V148.967H133.902V148.387H133.322ZM121.721 148.387H121.141V148.967H121.721V148.387ZM68.358 148.387V148.967H68.9381V148.387H68.358ZM56.7573 148.387H56.1773V148.967H56.7573L56.7573 148.387ZM133.902 64.1017C133.902 42.7359 116.5 25.42 95.0396 25.42V26.58C115.865 26.58 132.742 43.3817 132.742 64.1017H133.902ZM133.902 148.387V64.1017H132.742V148.387H133.902ZM121.721 148.967L133.322 148.967V147.807L121.721 147.807V148.967ZM122.301 148.387V66.5742H121.141V148.387H122.301ZM122.301 66.5742C122.301 51.5331 110.095 39.3408 95.0396 39.3408V40.5009C109.456 40.5009 121.141 52.1749 121.141 66.5742H122.301ZM95.0396 39.3408C79.9841 39.3408 67.778 51.5331 67.778 66.5742H68.9381C68.9381 52.1749 80.6236 40.5009 95.0396 40.5009V39.3408ZM67.778 66.5742V148.387H68.9381V66.5742H67.778ZM56.7573 148.967L68.358 148.967V147.807L56.7573 147.807L56.7573 148.967ZM56.1773 64.1017V148.387H57.3374V64.1017H56.1773ZM95.0396 25.42C73.5792 25.42 56.1773 42.7359 56.1773 64.1017H57.3374C57.3374 43.3817 74.2147 26.58 95.0396 26.58V25.42Z" fill="#262626" mask="url(#path-2-inside-1_1410_7905)"/>
</g>
<g id="Subtract_2">
<mask id="path-4-inside-2_1410_7905" fill="white">
<path fill-rule="evenodd" clip-rule="evenodd" d="M100.26 26C121.403 26 138.542 43.0588 138.542 64.1017V148.387L126.942 148.387V66.5742C126.942 51.854 114.996 39.9208 100.26 39.9208C85.5243 39.9208 73.5785 51.854 73.5785 66.5742V148.387L61.9778 148.387V64.1017C61.9778 43.0588 79.1174 26 100.26 26Z"/>
</mask>
<path fill-rule="evenodd" clip-rule="evenodd" d="M100.26 26C121.403 26 138.542 43.0588 138.542 64.1017V148.387L126.942 148.387V66.5742C126.942 51.854 114.996 39.9208 100.26 39.9208C85.5243 39.9208 73.5785 51.854 73.5785 66.5742V148.387L61.9778 148.387V64.1017C61.9778 43.0588 79.1174 26 100.26 26Z" fill="#91A8ED"/>
<path d="M138.542 148.387V148.967H139.122V148.387H138.542ZM126.942 148.387H126.362V148.967H126.942V148.387ZM73.5785 148.387V148.967H74.1585V148.387H73.5785ZM61.9778 148.387H61.3977V148.967H61.9778L61.9778 148.387ZM139.122 64.1017C139.122 42.7359 121.72 25.42 100.26 25.42V26.58C121.085 26.58 137.962 43.3817 137.962 64.1017H139.122ZM139.122 148.387V64.1017H137.962V148.387H139.122ZM126.942 148.967L138.542 148.967V147.807L126.942 147.807V148.967ZM127.522 148.387V66.5742H126.362V148.387H127.522ZM127.522 66.5742C127.522 51.5331 115.316 39.3408 100.26 39.3408V40.5009C114.676 40.5009 126.362 52.1749 126.362 66.5742H127.522ZM100.26 39.3408C85.2045 39.3408 72.9984 51.5331 72.9984 66.5742H74.1585C74.1585 52.1749 85.844 40.5009 100.26 40.5009V39.3408ZM72.9984 66.5742V148.387H74.1585V66.5742H72.9984ZM61.9778 148.967L73.5785 148.967V147.807L61.9778 147.807L61.9778 148.967ZM61.3977 64.1017V148.387H62.5578V64.1017H61.3977ZM100.26 25.42C78.7997 25.42 61.3977 42.7359 61.3977 64.1017H62.5578C62.5578 43.3817 79.4352 26.58 100.26 26.58V25.42Z" fill="#262626" mask="url(#path-4-inside-2_1410_7905)"/>
</g>
<rect id="Rectangle 144" x="25.2905" y="81.5383" width="133.698" height="120.937" rx="27.4066" fill="#262626" stroke="#262626" stroke-width="0.870052"/>
<rect id="Rectangle 143" x="36.3111" y="82.1184" width="133.698" height="120.937" rx="27.4066" fill="#AB98F9" stroke="#262626" stroke-width="0.870052"/>
<path id="Ellipse 143" d="M138.107 142.587C138.107 161.884 122.334 177.534 102.87 177.534C83.4059 177.534 67.633 161.884 67.633 142.587C67.633 123.29 83.4059 107.64 102.87 107.64C122.334 107.64 138.107 123.29 138.107 142.587Z" fill="#91A8ED" stroke="#262626" stroke-width="0.870052"/>
<g id="Union">
<mask id="path-9-inside-3_1410_7905" fill="white">
<path fill-rule="evenodd" clip-rule="evenodd" d="M108.272 141.942C111.742 140.088 114.103 136.43 114.103 132.221C114.103 126.138 109.172 121.207 103.089 121.207C97.006 121.207 92.075 126.138 92.075 132.221C92.075 136.687 94.7331 140.532 98.5536 142.261V160.999C98.5536 162.28 99.5923 163.319 100.874 163.319H105.952C107.233 163.319 108.272 162.28 108.272 160.999V141.942Z"/>
</mask>
<path fill-rule="evenodd" clip-rule="evenodd" d="M108.272 141.942C111.742 140.088 114.103 136.43 114.103 132.221C114.103 126.138 109.172 121.207 103.089 121.207C97.006 121.207 92.075 126.138 92.075 132.221C92.075 136.687 94.7331 140.532 98.5536 142.261V160.999C98.5536 162.28 99.5923 163.319 100.874 163.319H105.952C107.233 163.319 108.272 162.28 108.272 160.999V141.942Z" fill="#FF91E7"/>
<path d="M108.272 141.942L107.862 141.174L107.402 141.42V141.942H108.272ZM98.5536 142.261H99.4236V141.699L98.9122 141.468L98.5536 142.261ZM113.233 132.221C113.233 136.096 111.06 139.466 107.862 141.174L108.682 142.709C112.424 140.71 114.973 136.764 114.973 132.221H113.233ZM103.089 122.077C108.691 122.077 113.233 126.619 113.233 132.221H114.973C114.973 125.658 109.652 120.337 103.089 120.337V122.077ZM92.945 132.221C92.945 126.619 97.4865 122.077 103.089 122.077V120.337C96.5255 120.337 91.2049 125.658 91.2049 132.221H92.945ZM98.9122 141.468C95.3916 139.875 92.945 136.333 92.945 132.221H91.2049C91.2049 137.041 94.0746 141.189 98.1949 143.053L98.9122 141.468ZM99.4236 160.999V142.261H97.6835V160.999H99.4236ZM100.874 162.449C100.073 162.449 99.4236 161.8 99.4236 160.999H97.6835C97.6835 162.761 99.1118 164.189 100.874 164.189V162.449ZM105.952 162.449H100.874V164.189H105.952V162.449ZM107.402 160.999C107.402 161.8 106.752 162.449 105.952 162.449V164.189C107.713 164.189 109.142 162.761 109.142 160.999H107.402ZM107.402 141.942V160.999H109.142V141.942H107.402Z" fill="#262626" mask="url(#path-9-inside-3_1410_7905)"/>
</g>
<path id="Subtract_3" fill-rule="evenodd" clip-rule="evenodd" d="M109.262 132.14C109.262 136.349 106.901 140.006 103.432 141.86V160.646C103.432 162.012 102.375 163.131 101.034 163.23C101.094 163.235 101.155 163.238 101.217 163.238H106.295C107.576 163.238 108.615 162.199 108.615 160.917V141.86C112.085 140.006 114.446 136.349 114.446 132.14C114.446 126.057 109.514 121.126 103.432 121.126C102.539 121.126 101.671 121.232 100.84 121.432C105.672 122.598 109.262 126.949 109.262 132.14Z" fill="#262626"/>
<g id="Subtract_4">
<mask id="path-12-inside-4_1410_7905" fill="white">
<path fill-rule="evenodd" clip-rule="evenodd" d="M99.97 177.854C118.315 176.39 132.742 161.16 132.742 142.587C132.742 124.014 118.315 108.784 99.97 107.32C100.927 107.244 101.894 107.205 102.87 107.205C122.571 107.205 138.542 123.046 138.542 142.587C138.542 162.128 122.571 177.969 102.87 177.969C101.894 177.969 100.927 177.93 99.97 177.854Z"/>
</mask>
<path fill-rule="evenodd" clip-rule="evenodd" d="M99.97 177.854C118.315 176.39 132.742 161.16 132.742 142.587C132.742 124.014 118.315 108.784 99.97 107.32C100.927 107.244 101.894 107.205 102.87 107.205C122.571 107.205 138.542 123.046 138.542 142.587C138.542 162.128 122.571 177.969 102.87 177.969C101.894 177.969 100.927 177.93 99.97 177.854Z" fill="#262626"/>
<path d="M99.97 177.854L99.9008 176.987L99.9008 178.721L99.97 177.854ZM99.97 107.32L99.9008 106.453V108.187L99.97 107.32ZM131.872 142.587C131.872 160.696 117.803 175.558 99.9008 176.987L100.039 178.721C118.827 177.222 133.612 161.623 133.612 142.587H131.872ZM99.9008 108.187C117.803 109.616 131.872 124.478 131.872 142.587H133.612C133.612 123.551 118.827 107.952 100.039 106.453L99.9008 108.187ZM100.039 108.187C100.973 108.113 101.917 108.075 102.87 108.075V106.335C101.871 106.335 100.88 106.375 99.9008 106.453L100.039 108.187ZM102.87 108.075C122.098 108.075 137.672 123.533 137.672 142.587H139.412C139.412 122.559 123.045 106.335 102.87 106.335V108.075ZM137.672 142.587C137.672 161.641 122.098 177.099 102.87 177.099V178.839C123.045 178.839 139.412 162.615 139.412 142.587H137.672ZM102.87 177.099C101.917 177.099 100.973 177.061 100.039 176.987L99.9008 178.721C100.88 178.799 101.871 178.839 102.87 178.839V177.099Z" fill="#262626" mask="url(#path-12-inside-4_1410_7905)"/>
</g>
<rect id="Rectangle 66" x="-0.435026" y="-0.435026" width="46.6928" height="181.841" rx="20.4462" transform="matrix(3.41176e-08 -1 -1 -5.60029e-08 204.677 213.942)" fill="#262626" stroke="#262626" stroke-width="0.870052"/>
<rect id="Rectangle 65" x="-0.435026" y="-0.435026" width="46.6928" height="181.841" rx="20.4462" transform="matrix(3.41176e-08 -1 -1 -5.60029e-08 215.118 213.942)" fill="#AB98F9" stroke="#262626" stroke-width="0.870052"/>
<rect id="Rectangle 67" x="-0.435026" y="-0.435026" width="35.0921" height="160.96" rx="17.546" transform="matrix(3.41176e-08 -1 -1 -5.60029e-08 204.677 208.142)" fill="#98F99C" stroke="#262626" stroke-width="0.870052"/>
<g id="Subtract_5">
<mask id="path-17-inside-5_1410_7905" fill="white">
<path fill-rule="evenodd" clip-rule="evenodd" d="M177.126 173.05H187.566C197.497 173.05 205.547 181.1 205.547 191.031C205.547 200.962 197.497 209.012 187.566 209.012H177.131C187.059 209.01 195.107 200.96 195.107 191.031C195.107 181.1 187.056 173.05 177.126 173.05Z"/>
</mask>
<path fill-rule="evenodd" clip-rule="evenodd" d="M177.126 173.05H187.566C197.497 173.05 205.547 181.1 205.547 191.031C205.547 200.962 197.497 209.012 187.566 209.012H177.131C187.059 209.01 195.107 200.96 195.107 191.031C195.107 181.1 187.056 173.05 177.126 173.05Z" fill="#262626"/>
<path d="M177.131 209.012L177.13 208.142L177.131 209.882V209.012ZM187.566 172.18H177.126V173.92H187.566V172.18ZM206.417 191.031C206.417 180.62 197.978 172.18 187.566 172.18V173.92C197.017 173.92 204.677 181.581 204.677 191.031H206.417ZM187.566 209.882C197.978 209.882 206.417 201.442 206.417 191.031H204.677C204.677 200.481 197.016 208.142 187.566 208.142V209.882ZM177.131 209.882H187.566V208.142H177.131V209.882ZM177.131 209.882C187.54 209.88 195.977 201.441 195.977 191.031H194.237C194.237 200.48 186.578 208.14 177.13 208.142L177.131 209.882ZM195.977 191.031C195.977 180.62 187.537 172.18 177.126 172.18V173.92C186.576 173.92 194.237 181.581 194.237 191.031H195.977Z" fill="#262626" mask="url(#path-17-inside-5_1410_7905)"/>
</g>
<g id="Group 2">
<path id="Vector 66" d="M72.7195 180.59V200.892" stroke="#262626" stroke-width="4.64028" stroke-linecap="round"/>
<path id="Vector 68" d="M79.843 183.563L65.4879 197.919" stroke="#262626" stroke-width="4.64028" stroke-linecap="round"/>
<path id="Vector 69" d="M65.488 183.563L79.8432 197.919" stroke="#262626" stroke-width="4.64028" stroke-linecap="round"/>
<path id="Vector 67" d="M82.5801 190.451L62.2789 190.451" stroke="#262626" stroke-width="4.64028" stroke-linecap="round"/>
</g>
<g id="Group 3">
<path id="Vector 66_2" d="M107.522 180.59V200.892" stroke="#262626" stroke-width="4.64028" stroke-linecap="round"/>
<path id="Vector 68_2" d="M114.645 183.563L100.29 197.919" stroke="#262626" stroke-width="4.64028" stroke-linecap="round"/>
<path id="Vector 69_2" d="M100.29 183.563L114.645 197.919" stroke="#262626" stroke-width="4.64028" stroke-linecap="round"/>
<path id="Vector 67_2" d="M117.382 190.451L97.0811 190.451" stroke="#262626" stroke-width="4.64028" stroke-linecap="round"/>
</g>
<path id="Vector 2" d="M189.596 190.451L163.205 190.451" stroke="#262626" stroke-width="0.870052" stroke-linecap="round"/>
<path id="Vector 38" d="M152.474 190.451L126.083 190.451" stroke="#262626" stroke-width="0.870052" stroke-linecap="round"/>
<path id="Polygon 2" d="M178.138 50.8556C178.179 50.6526 178.357 50.5065 178.565 50.5065C178.772 50.5065 178.95 50.6526 178.991 50.8556L181.989 65.7414L196.634 68.7867C196.836 68.8287 196.981 69.0065 196.981 69.2126C196.981 69.4187 196.836 69.5966 196.634 69.6385L181.989 72.6838L178.991 87.5696C178.95 87.7727 178.772 87.9187 178.565 87.9187C178.357 87.9187 178.179 87.7727 178.138 87.5696L175.14 72.6838L160.495 69.6385C160.293 69.5966 160.148 69.4187 160.148 69.2126C160.148 69.0065 160.293 68.8287 160.495 68.7867L175.14 65.7414L178.138 50.8556Z" fill="white" stroke="#262626" stroke-width="0.870052" stroke-linejoin="round"/>
<path id="Polygon 3" d="M65.0141 136.119C64.9727 135.917 64.7946 135.772 64.5879 135.772C64.3813 135.772 64.2032 135.917 64.1617 136.119L61.5097 149.079L48.5497 151.731C48.3473 151.773 48.2019 151.951 48.2019 152.157C48.2019 152.364 48.3473 152.542 48.5497 152.584L61.5097 155.236L64.1617 168.196C64.2032 168.398 64.3813 168.543 64.5879 168.543C64.7946 168.543 64.9727 168.398 65.0141 168.196L67.6661 155.236L80.6261 152.584C80.8285 152.542 80.9739 152.364 80.9739 152.157C80.9739 151.951 80.8285 151.773 80.6261 151.731L67.6661 149.079L65.0141 136.119Z" fill="white" stroke="#262626" stroke-width="0.870052" stroke-linejoin="round"/>
</g>
</g>
</svg>
