<svg width="56" height="56" viewBox="0 0 56 56" fill="none" xmlns="http://www.w3.org/2000/svg">
<g id="Frame 861">
<path d="M2.33333 14C2.33333 7.55668 7.55668 2.33333 14 2.33333H42C48.4433 2.33333 53.6667 7.55668 53.6667 14V42C53.6667 48.4433 48.4433 53.6667 42 53.6667H14C7.55668 53.6667 2.33333 48.4433 2.33333 42V14Z" fill="white"/>
<path d="M2.33333 14C2.33333 7.55668 7.55668 2.33333 14 2.33333H42C48.4433 2.33333 53.6667 7.55668 53.6667 14V42C53.6667 48.4433 48.4433 53.6667 42 53.6667H14C7.55668 53.6667 2.33333 48.4433 2.33333 42V14Z" stroke="black" stroke-width="4.66667"/>
<path id="Vector" d="M43.5534 28.1866L43.3187 27.9887L43.5534 27.8086C43.7185 27.6885 43.8728 27.5506 43.9929 27.4196C45.7439 25.6849 46.7102 23.3689 46.7102 20.8876C46.7102 15.8037 42.5707 11.667 37.4896 11.667H22.2815L25.1681 15.8761H37.4909C40.2519 15.8761 42.5011 18.1212 42.5011 20.8876C42.5011 22.2265 41.9743 23.478 41.0244 24.4211C40.0636 25.3819 38.8066 25.9088 37.4909 25.9088H30.7542L35.8559 18.6043H30.7242L26.7144 24.3351L18.5338 12.621L14.857 14.7446L22.6678 25.9088H10.2275V30.1192H22.6664L14.8556 41.2833L18.5324 43.407L26.713 31.6928L30.7229 37.4236H35.8545L30.7529 30.1192H37.4896C40.2506 30.1192 42.4998 32.3575 42.4998 35.1185C42.4998 36.4533 41.973 37.7157 41.0285 38.6711C40.0677 39.6101 38.8107 40.1301 37.4896 40.1301H25.1599L25.1681 40.1546L22.302 44.3337H37.4909C39.9544 44.3337 42.2664 43.3851 43.9942 41.6559C45.7453 39.9158 46.7116 37.5956 46.7116 35.1185C46.7116 32.4639 45.5583 29.9322 43.5534 28.1866Z" fill="black"/>
</g>
</svg>
