<svg width="150" height="208" viewBox="0 0 150 208" fill="none" xmlns="http://www.w3.org/2000/svg">
<g clip-path="url(#clip0_609_7622)">
<path d="M150.002 250.39C232.753 250.39 299.835 183.307 299.835 100.556C299.835 17.8055 232.753 -49.2773 150.002 -49.2773C67.2508 -49.2773 0.167969 17.8055 0.167969 100.556C0.167969 183.307 67.2508 250.39 150.002 250.39Z" stroke="#262626" stroke-width="0.749168" stroke-miterlimit="10"/>
<path d="M150.001 242.557C228.426 242.557 292.002 178.981 292.002 100.557C292.002 22.1319 228.426 -41.4438 150.001 -41.4438C71.5767 -41.4438 8.00098 22.1319 8.00098 100.557C8.00098 178.981 71.5767 242.557 150.001 242.557Z" stroke="#262626" stroke-width="0.749168" stroke-miterlimit="10"/>
<path d="M150.001 234.72C224.098 234.72 284.166 174.653 284.166 100.556C284.166 26.4594 224.098 -33.6079 150.001 -33.6079C75.9047 -33.6079 15.8374 26.4594 15.8374 100.556C15.8374 174.653 75.9047 234.72 150.001 234.72Z" stroke="#262626" stroke-width="0.749168" stroke-miterlimit="10"/>
<path d="M150.002 226.887C219.772 226.887 276.332 170.327 276.332 100.556C276.332 30.7858 219.772 -25.7744 150.002 -25.7744C80.2311 -25.7744 23.6709 30.7858 23.6709 100.556C23.6709 170.327 80.2311 226.887 150.002 226.887Z" stroke="#262626" stroke-width="0.749168" stroke-miterlimit="10"/>
<path d="M150.002 219.051C215.444 219.051 268.496 165.999 268.496 100.556C268.496 35.1138 215.444 -17.938 150.002 -17.938C84.5591 -17.938 31.5073 35.1138 31.5073 100.556C31.5073 165.999 84.5591 219.051 150.002 219.051Z" stroke="#262626" stroke-width="0.749168" stroke-miterlimit="10"/>
<path d="M150.002 211.217C211.118 211.217 260.663 161.673 260.663 100.556C260.663 39.4397 211.118 -10.105 150.002 -10.105C88.885 -10.105 39.3403 39.4397 39.3403 100.556C39.3403 161.673 88.885 211.217 150.002 211.217Z" stroke="#262626" stroke-width="0.749168" stroke-miterlimit="10"/>
<path d="M150.002 203.384C206.792 203.384 252.83 157.347 252.83 100.556C252.83 43.7661 206.792 -2.27148 150.002 -2.27148C93.2114 -2.27148 47.1738 43.7661 47.1738 100.556C47.1738 157.347 93.2114 203.384 150.002 203.384Z" stroke="#262626" stroke-width="0.749168" stroke-miterlimit="10"/>
<path d="M150.002 195.548C202.464 195.548 244.993 153.019 244.993 100.556C244.993 48.0941 202.464 5.56494 150.002 5.56494C97.5394 5.56494 55.0103 48.0941 55.0103 100.556C55.0103 153.019 97.5394 195.548 150.002 195.548Z" stroke="#262626" stroke-width="0.749168" stroke-miterlimit="10"/>
<path d="M150.002 187.714C198.138 187.714 237.16 148.692 237.16 100.556C237.16 52.42 198.138 13.3979 150.002 13.3979C101.866 13.3979 62.8438 52.42 62.8438 100.556C62.8438 148.692 101.866 187.714 150.002 187.714Z" stroke="#262626" stroke-width="0.749168" stroke-miterlimit="10"/>
<path d="M150.002 179.881C193.812 179.881 229.327 144.366 229.327 100.556C229.327 56.7464 193.812 21.2314 150.002 21.2314C106.192 21.2314 70.6768 56.7464 70.6768 100.556C70.6768 144.366 106.192 179.881 150.002 179.881Z" stroke="#262626" stroke-width="0.749168" stroke-miterlimit="10"/>
<path d="M150.002 172.045C189.484 172.045 221.49 140.039 221.49 100.557C221.49 61.0744 189.484 29.0679 150.002 29.0679C110.52 29.0679 78.5132 61.0744 78.5132 100.557C78.5132 140.039 110.52 172.045 150.002 172.045Z" stroke="#262626" stroke-width="0.749168" stroke-miterlimit="10"/>
<path d="M150.002 164.212C185.157 164.212 213.657 135.712 213.657 100.556C213.657 65.4003 185.157 36.9009 150.002 36.9009C114.846 36.9009 86.3462 65.4003 86.3462 100.556C86.3462 135.712 114.846 164.212 150.002 164.212Z" stroke="#262626" stroke-width="0.749168" stroke-miterlimit="10"/>
<path d="M150.002 156.375C180.83 156.375 205.821 131.384 205.821 100.556C205.821 69.7283 180.83 44.7373 150.002 44.7373C119.174 44.7373 94.1826 69.7283 94.1826 100.556C94.1826 131.384 119.174 156.375 150.002 156.375Z" stroke="#262626" stroke-width="0.749168" stroke-miterlimit="10"/>
<path d="M150.002 148.542C176.504 148.542 197.988 127.058 197.988 100.557C197.988 74.0547 176.504 52.5708 150.002 52.5708C123.5 52.5708 102.016 74.0547 102.016 100.557C102.016 127.058 123.5 148.542 150.002 148.542Z" stroke="#262626" stroke-width="0.749168" stroke-miterlimit="10"/>
<path d="M150.002 140.709C172.177 140.709 190.154 122.732 190.154 100.556C190.154 78.3807 172.177 60.4038 150.002 60.4038C127.826 60.4038 109.849 78.3807 109.849 100.556C109.849 122.732 127.826 140.709 150.002 140.709Z" stroke="#262626" stroke-width="0.749168" stroke-miterlimit="10"/>
<path d="M150.002 132.872C167.849 132.872 182.318 118.404 182.318 100.556C182.318 82.7087 167.849 68.2402 150.002 68.2402C132.154 68.2402 117.686 82.7087 117.686 100.556C117.686 118.404 132.154 132.872 150.002 132.872Z" stroke="#262626" stroke-width="0.749168" stroke-miterlimit="10"/>
<path d="M150.002 125.039C163.523 125.039 174.485 114.078 174.485 100.557C174.485 87.0351 163.523 76.0737 150.002 76.0737C136.48 76.0737 125.519 87.0351 125.519 100.557C125.519 114.078 136.48 125.039 150.002 125.039Z" stroke="#262626" stroke-width="0.749168" stroke-miterlimit="10"/>
<path d="M150.002 117.206C159.197 117.206 166.651 109.752 166.651 100.556C166.651 91.361 159.197 83.9067 150.002 83.9067C140.806 83.9067 133.352 91.361 133.352 100.556C133.352 109.752 140.806 117.206 150.002 117.206Z" stroke="#262626" stroke-width="0.749168" stroke-miterlimit="10"/>
</g>
<defs>
<clipPath id="clip0_609_7622">
<rect width="300" height="300" fill="white" transform="translate(0 -49.4448)"/>
</clipPath>
</defs>
</svg>
