<svg width="328" height="363" viewBox="0 0 328 363" fill="none" xmlns="http://www.w3.org/2000/svg">
<g clip-path="url(#clip0_948_4972)">
<path d="M163.839 755.242C372.276 755.242 541.249 586.27 541.249 377.832C541.249 169.394 372.276 0.421875 163.839 0.421875C-44.5992 0.421875 -213.572 169.394 -213.572 377.832C-213.572 586.27 -44.5992 755.242 163.839 755.242Z" stroke="#F8F8F8" stroke-opacity="0.2" stroke-width="0.7702" stroke-miterlimit="10"/>
<path d="M163.839 735.511C361.379 735.511 521.518 575.372 521.518 377.832C521.518 180.291 361.379 20.1523 163.839 20.1523C-33.7023 20.1523 -193.841 180.291 -193.841 377.832C-193.841 575.372 -33.7023 735.511 163.839 735.511Z" stroke="#F8F8F8" stroke-opacity="0.3" stroke-width="0.7702" stroke-miterlimit="10"/>
<path d="M163.838 715.774C350.478 715.774 501.779 564.473 501.779 377.833C501.779 191.194 350.478 39.8926 163.838 39.8926C-22.8011 39.8926 -174.102 191.194 -174.102 377.833C-174.102 564.473 -22.8011 715.774 163.838 715.774Z" stroke="#F8F8F8" stroke-opacity="0.4" stroke-width="0.7702" stroke-miterlimit="10"/>
<path d="M163.834 696.042C339.577 696.042 482.044 553.575 482.044 377.833C482.044 202.09 339.577 59.623 163.834 59.623C-11.9079 59.623 -154.375 202.09 -154.375 377.833C-154.375 553.575 -11.9079 696.042 163.834 696.042Z" stroke="#F8F8F8" stroke-opacity="0.5" stroke-width="0.7702" stroke-miterlimit="10"/>
<path d="M163.836 676.303C328.677 676.303 462.307 542.673 462.307 377.832C462.307 212.991 328.677 79.3613 163.836 79.3613C-1.00496 79.3613 -134.635 212.991 -134.635 377.832C-134.635 542.673 -1.00496 676.303 163.836 676.303Z" stroke="#F8F8F8" stroke-opacity="0.6" stroke-width="0.7702" stroke-miterlimit="10"/>
<path d="M163.838 656.572C317.782 656.572 442.578 531.776 442.578 377.832C442.578 223.888 317.782 99.0918 163.838 99.0918C9.89397 99.0918 -114.902 223.888 -114.902 377.832C-114.902 531.776 9.89397 656.572 163.838 656.572Z" stroke="#F8F8F8" stroke-opacity="0.7" stroke-width="0.7702" stroke-miterlimit="10"/>
<path d="M163.838 636.842C306.884 636.842 422.847 520.88 422.847 377.833C422.847 234.787 306.884 118.824 163.838 118.824C20.7909 118.824 -95.1714 234.787 -95.1714 377.833C-95.1714 520.88 20.7909 636.842 163.838 636.842Z" stroke="#F8F8F8" stroke-opacity="0.8" stroke-width="0.7702" stroke-miterlimit="10"/>
<path d="M163.838 617.103C295.983 617.103 403.108 509.978 403.108 377.833C403.108 245.688 295.983 138.562 163.838 138.562C31.6921 138.562 -75.433 245.688 -75.433 377.833C-75.433 509.978 31.6921 617.103 163.838 617.103Z" stroke="#F8F8F8" stroke-opacity="0.9" stroke-width="0.7702" stroke-miterlimit="10"/>
<path d="M163.839 597.372C285.087 597.372 383.379 499.081 383.379 377.832C383.379 256.584 285.087 158.293 163.839 158.293C42.5908 158.293 -55.7003 256.584 -55.7003 377.832C-55.7003 499.081 42.5908 597.372 163.839 597.372Z" stroke="#F8F8F8" stroke-width="0.7702" stroke-miterlimit="10"/>
<path d="M163.837 577.641C274.188 577.641 363.646 488.183 363.646 377.832C363.646 267.481 274.188 178.023 163.837 178.023C53.486 178.023 -35.9713 267.481 -35.9713 377.832C-35.9713 488.183 53.486 577.641 163.837 577.641Z" stroke="#F8F8F8" stroke-width="0.7702" stroke-miterlimit="10"/>
<path d="M163.837 557.902C263.287 557.902 343.907 477.282 343.907 377.832C343.907 278.382 263.287 197.762 163.837 197.762C64.3871 197.762 -16.2329 278.382 -16.2329 377.832C-16.2329 477.282 64.3871 557.902 163.837 557.902Z" stroke="#F8F8F8" stroke-width="0.7702" stroke-miterlimit="10"/>
<path d="M163.837 538.17C252.39 538.17 324.176 466.384 324.176 377.831C324.176 289.278 252.39 217.492 163.837 217.492C75.2841 217.492 3.49792 289.278 3.49792 377.831C3.49792 466.384 75.2841 538.17 163.837 538.17Z" stroke="#F8F8F8" stroke-width="0.7702" stroke-miterlimit="10"/>
<path d="M163.837 518.433C241.488 518.433 304.437 455.484 304.437 377.833C304.437 300.181 241.488 237.232 163.837 237.232C86.1853 237.232 23.2363 300.181 23.2363 377.833C23.2363 455.484 86.1853 518.433 163.837 518.433Z" stroke="#F8F8F8" stroke-width="0.7702" stroke-miterlimit="10"/>
<path d="M163.838 498.702C230.593 498.702 284.708 444.587 284.708 377.832C284.708 311.078 230.593 256.963 163.838 256.963C97.0841 256.963 42.969 311.078 42.969 377.832C42.969 444.587 97.0841 498.702 163.838 498.702Z" stroke="#F8F8F8" stroke-width="0.7702" stroke-miterlimit="10"/>
<path d="M163.836 478.97C219.694 478.97 264.975 433.689 264.975 377.832C264.975 321.975 219.694 276.693 163.836 276.693C107.979 276.693 62.698 321.975 62.698 377.832C62.698 433.689 107.979 478.97 163.836 478.97Z" stroke="#F8F8F8" stroke-width="0.7702" stroke-miterlimit="10"/>
<path d="M163.838 459.231C208.794 459.231 245.238 422.787 245.238 377.831C245.238 332.876 208.794 296.432 163.838 296.432C118.882 296.432 82.4382 332.876 82.4382 377.831C82.4382 422.787 118.882 459.231 163.838 459.231Z" stroke="#F8F8F8" stroke-width="0.7702" stroke-miterlimit="10"/>
<path d="M163.838 439.502C197.897 439.502 225.507 411.892 225.507 377.833C225.507 343.774 197.897 316.164 163.838 316.164C129.779 316.164 102.169 343.774 102.169 377.833C102.169 411.892 129.779 439.502 163.838 439.502Z" stroke="#F8F8F8" stroke-width="0.7702" stroke-miterlimit="10"/>
<path d="M163.84 419.77C187.001 419.77 205.778 400.994 205.778 377.832C205.778 354.671 187.001 335.895 163.84 335.895C140.678 335.895 121.902 354.671 121.902 377.832C121.902 400.994 140.678 419.77 163.84 419.77Z" stroke="#F8F8F8" stroke-width="0.7702" stroke-miterlimit="10"/>
</g>
<defs>
<clipPath id="clip0_948_4972">
<rect width="755.658" height="755.658" fill="white" transform="translate(-214)"/>
</clipPath>
</defs>
</svg>
