<svg width="150" height="208" viewBox="0 0 150 208" fill="none" xmlns="http://www.w3.org/2000/svg">
<g clip-path="url(#clip0_1922_93768)">
<path d="M150.002 250.39C232.753 250.39 299.835 183.307 299.835 100.557C299.835 17.8057 232.753 -49.2772 150.002 -49.2772C67.2508 -49.2772 0.167969 17.8057 0.167969 100.557C0.167969 183.307 67.2508 250.39 150.002 250.39Z" stroke="#E2E8F0" stroke-width="0.749168" stroke-miterlimit="10"/>
<path d="M150.002 242.557C228.427 242.557 292.003 178.981 292.003 100.557C292.003 22.1319 228.427 -41.4438 150.002 -41.4438C71.5777 -41.4438 8.00195 22.1319 8.00195 100.557C8.00195 178.981 71.5777 242.557 150.002 242.557Z" stroke="#E2E8F0" stroke-width="0.749168" stroke-miterlimit="10"/>
<path d="M150.002 234.721C224.099 234.721 284.166 174.653 284.166 100.557C284.166 26.4598 224.099 -33.6075 150.002 -33.6075C75.9052 -33.6075 15.8379 26.4598 15.8379 100.557C15.8379 174.653 75.9052 234.721 150.002 234.721Z" stroke="#E2E8F0" stroke-width="0.749168" stroke-miterlimit="10"/>
<path d="M150.001 226.887C219.771 226.887 276.331 170.327 276.331 100.557C276.331 30.7861 219.771 -25.7742 150.001 -25.7742C80.2301 -25.7742 23.6699 30.7861 23.6699 100.557C23.6699 170.327 80.2301 226.887 150.001 226.887Z" stroke="#E2E8F0" stroke-width="0.749168" stroke-miterlimit="10"/>
<path d="M150.002 219.051C215.445 219.051 268.497 165.999 268.497 100.557C268.497 35.1139 215.445 -17.9379 150.002 -17.9379C84.5596 -17.9379 31.5078 35.1139 31.5078 100.557C31.5078 165.999 84.5596 219.051 150.002 219.051Z" stroke="#E2E8F0" stroke-width="0.749168" stroke-miterlimit="10"/>
<path d="M150.001 211.218C211.117 211.218 260.662 161.673 260.662 100.557C260.662 39.4401 211.117 -10.1046 150.001 -10.1046C88.8845 -10.1046 39.3398 39.4401 39.3398 100.557C39.3398 161.673 88.8845 211.218 150.001 211.218Z" stroke="#E2E8F0" stroke-width="0.749168" stroke-miterlimit="10"/>
<path d="M150.002 203.384C206.792 203.384 252.83 157.347 252.83 100.556C252.83 43.7662 206.792 -2.27136 150.002 -2.27136C93.2114 -2.27136 47.1738 43.7662 47.1738 100.556C47.1738 157.347 93.2114 203.384 150.002 203.384Z" stroke="#E2E8F0" stroke-width="0.749168" stroke-miterlimit="10"/>
<path d="M150.001 195.548C202.464 195.548 244.993 153.019 244.993 100.557C244.993 48.0942 202.464 5.56506 150.001 5.56506C97.5389 5.56506 55.0098 48.0942 55.0098 100.557C55.0098 153.019 97.5389 195.548 150.001 195.548Z" stroke="#E2E8F0" stroke-width="0.749168" stroke-miterlimit="10"/>
<path d="M150.002 187.715C198.138 187.715 237.16 148.693 237.16 100.557C237.16 52.4203 198.138 13.3983 150.002 13.3983C101.866 13.3983 62.8438 52.4203 62.8438 100.557C62.8438 148.693 101.866 187.715 150.002 187.715Z" stroke="#E2E8F0" stroke-width="0.749168" stroke-miterlimit="10"/>
<path d="M150.001 179.881C193.811 179.881 229.326 144.366 229.326 100.557C229.326 56.7466 193.811 21.2316 150.001 21.2316C106.191 21.2316 70.6758 56.7466 70.6758 100.557C70.6758 144.366 106.191 179.881 150.001 179.881Z" stroke="#E2E8F0" stroke-width="0.749168" stroke-miterlimit="10"/>
<path d="M150.002 172.045C189.484 172.045 221.491 140.039 221.491 100.557C221.491 61.0744 189.484 29.0679 150.002 29.0679C110.52 29.0679 78.5137 61.0744 78.5137 100.557C78.5137 140.039 110.52 172.045 150.002 172.045Z" stroke="#E2E8F0" stroke-width="0.749168" stroke-miterlimit="10"/>
<path d="M150.001 164.212C185.157 164.212 213.656 135.712 213.656 100.557C213.656 65.4006 185.157 36.9012 150.001 36.9012C114.845 36.9012 86.3457 65.4006 86.3457 100.557C86.3457 135.712 114.845 164.212 150.001 164.212Z" stroke="#E2E8F0" stroke-width="0.749168" stroke-miterlimit="10"/>
<path d="M150.003 156.376C180.831 156.376 205.822 131.385 205.822 100.557C205.822 69.7285 180.831 44.7375 150.003 44.7375C119.175 44.7375 94.1836 69.7285 94.1836 100.557C94.1836 131.385 119.175 156.376 150.003 156.376Z" stroke="#E2E8F0" stroke-width="0.749168" stroke-miterlimit="10"/>
<path d="M150.001 148.542C176.503 148.542 197.987 127.058 197.987 100.557C197.987 74.0547 176.503 52.5708 150.001 52.5708C123.5 52.5708 102.016 74.0547 102.016 100.557C102.016 127.058 123.5 148.542 150.001 148.542Z" stroke="#E2E8F0" stroke-width="0.749168" stroke-miterlimit="10"/>
<path d="M150.002 140.709C172.178 140.709 190.154 122.732 190.154 100.557C190.154 78.381 172.178 60.4042 150.002 60.4042C127.826 60.4042 109.85 78.381 109.85 100.557C109.85 122.732 127.826 140.709 150.002 140.709Z" stroke="#E2E8F0" stroke-width="0.749168" stroke-miterlimit="10"/>
<path d="M150.002 132.873C167.849 132.873 182.318 118.404 182.318 100.557C182.318 82.7088 167.849 68.2404 150.002 68.2404C132.154 68.2404 117.686 82.7088 117.686 100.557C117.686 118.404 132.154 132.873 150.002 132.873Z" stroke="#E2E8F0" stroke-width="0.749168" stroke-miterlimit="10"/>
<path d="M150.002 125.039C163.524 125.039 174.485 114.078 174.485 100.557C174.485 87.0351 163.524 76.0737 150.002 76.0737C136.481 76.0737 125.52 87.0351 125.52 100.557C125.52 114.078 136.481 125.039 150.002 125.039Z" stroke="#E2E8F0" stroke-width="0.749168" stroke-miterlimit="10"/>
<path d="M150.001 117.206C159.196 117.206 166.651 109.752 166.651 100.557C166.651 91.3612 159.196 83.907 150.001 83.907C140.806 83.907 133.352 91.3612 133.352 100.557C133.352 109.752 140.806 117.206 150.001 117.206Z" stroke="#E2E8F0" stroke-width="0.749168" stroke-miterlimit="10"/>
</g>
<defs>
<clipPath id="clip0_1922_93768">
<rect width="300" height="300" fill="white" transform="translate(0 -49.4448)"/>
</clipPath>
</defs>
</svg>
