<svg width="180" height="180" viewBox="0 0 180 180" fill="none" xmlns="http://www.w3.org/2000/svg">
<g id="Success_Circle">
<circle id="Ellipse 162" cx="87.5391" cy="90" r="57.041" fill="black" stroke="black" stroke-width="0.527344"/>
<circle id="Ellipse 163" cx="92.4609" cy="90" r="57.041" fill="#91A8ED" stroke="black" stroke-width="0.527344"/>
<circle id="Ellipse 165" cx="92.4609" cy="90" r="46.4941" fill="#91A8ED" stroke="black" stroke-width="0.527344"/>
<circle id="Ellipse 166" cx="92.4609" cy="90" r="35.5957" fill="#FF91E7" stroke="black" stroke-width="0.527344"/>
<g id="Subtract">
<mask id="path-5-inside-1_968_9244" fill="white">
<path fill-rule="evenodd" clip-rule="evenodd" d="M89.4727 136.664C113.904 135.123 133.242 114.82 133.242 90C133.242 65.1802 113.904 44.877 89.4727 43.3361C90.4607 43.2738 91.4571 43.2422 92.4609 43.2422C118.285 43.2422 139.219 64.1764 139.219 90C139.219 115.824 118.285 136.758 92.4609 136.758C91.4571 136.758 90.4607 136.726 89.4727 136.664Z"/>
</mask>
<path fill-rule="evenodd" clip-rule="evenodd" d="M89.4727 136.664C113.904 135.123 133.242 114.82 133.242 90C133.242 65.1802 113.904 44.877 89.4727 43.3361C90.4607 43.2738 91.4571 43.2422 92.4609 43.2422C118.285 43.2422 139.219 64.1764 139.219 90C139.219 115.824 118.285 136.758 92.4609 136.758C91.4571 136.758 90.4607 136.726 89.4727 136.664Z" fill="black"/>
<path d="M89.4727 136.664L89.4395 136.138L89.4395 137.19L89.4727 136.664ZM89.4727 43.3361L89.4395 42.8098L89.4395 43.8624L89.4727 43.3361ZM132.715 90C132.715 114.54 113.595 134.614 89.4395 136.138L89.5059 137.19C114.213 135.632 133.77 115.1 133.77 90H132.715ZM89.4395 43.8624C113.595 45.3859 132.715 65.4603 132.715 90H133.77C133.77 64.9 114.213 44.3682 89.5059 42.8098L89.4395 43.8624ZM89.5059 43.8624C90.4829 43.8008 91.4682 43.7695 92.4609 43.7695V42.7148C91.4461 42.7148 90.4386 42.7468 89.4395 42.8098L89.5059 43.8624ZM92.4609 43.7695C117.993 43.7695 138.691 64.4676 138.691 90H139.746C139.746 63.8851 118.576 42.7148 92.4609 42.7148V43.7695ZM138.691 90C138.691 115.532 117.993 136.23 92.4609 136.23V137.285C118.576 137.285 139.746 116.115 139.746 90H138.691ZM92.4609 136.23C91.4682 136.23 90.4829 136.199 89.5059 136.138L89.4395 137.19C90.4386 137.253 91.4461 137.285 92.4609 137.285V136.23Z" fill="black" mask="url(#path-5-inside-1_968_9244)"/>
</g>
<g id="Union">
<mask id="path-7-inside-2_968_9244" fill="white">
<path fill-rule="evenodd" clip-rule="evenodd" d="M131.856 66.2144C129.66 64.0177 126.098 64.0177 123.901 66.2144L91.6354 98.4803L74.8734 81.7184C72.6767 79.5217 69.1152 79.5217 66.9185 81.7184L64.9298 83.7071C62.7331 85.9038 62.7331 89.4653 64.9297 91.662L87.4756 114.208C88.1561 114.888 88.9676 115.358 89.829 115.617C91.813 116.327 94.116 115.887 95.705 114.298L133.845 76.1581C136.042 73.9614 136.042 70.3999 133.845 68.2032L131.856 66.2144Z"/>
</mask>
<path fill-rule="evenodd" clip-rule="evenodd" d="M131.856 66.2144C129.66 64.0177 126.098 64.0177 123.901 66.2144L91.6354 98.4803L74.8734 81.7184C72.6767 79.5217 69.1152 79.5217 66.9185 81.7184L64.9298 83.7071C62.7331 85.9038 62.7331 89.4653 64.9297 91.662L87.4756 114.208C88.1561 114.888 88.9676 115.358 89.829 115.617C91.813 116.327 94.116 115.887 95.705 114.298L133.845 76.1581C136.042 73.9614 136.042 70.3999 133.845 68.2032L131.856 66.2144Z" fill="black"/>
<path d="M123.901 66.2144L124.274 66.5873V66.5873L123.901 66.2144ZM131.856 66.2144L132.229 65.8415V65.8415L131.856 66.2144ZM91.6354 98.4803L91.2625 98.8532L91.6354 99.2261L92.0083 98.8532L91.6354 98.4803ZM74.8734 81.7184L75.2463 81.3455L74.8734 81.7184ZM66.9185 81.7184L67.2914 82.0912L66.9185 81.7184ZM64.9298 83.7071L64.5569 83.3342H64.5569L64.9298 83.7071ZM64.9297 91.662L64.5569 92.0349L64.9297 91.662ZM87.4756 114.208L87.1027 114.581V114.581L87.4756 114.208ZM89.829 115.617L90.0066 115.12L89.9938 115.116L89.9808 115.112L89.829 115.617ZM95.705 114.298L95.3321 113.925L95.705 114.298ZM133.845 76.1581L134.218 76.531V76.531L133.845 76.1581ZM133.845 68.2032L134.218 67.8303V67.8303L133.845 68.2032ZM124.274 66.5873C126.265 64.5965 129.493 64.5965 131.483 66.5873L132.229 65.8415C129.827 63.4389 125.931 63.4389 123.528 65.8415L124.274 66.5873ZM92.0083 98.8532L124.274 66.5873L123.528 65.8415L91.2625 98.1074L92.0083 98.8532ZM74.5006 82.0912L91.2625 98.8532L92.0083 98.1074L75.2463 81.3455L74.5006 82.0912ZM67.2914 82.0912C69.2821 80.1005 72.5098 80.1005 74.5006 82.0912L75.2463 81.3455C72.8437 78.9428 68.9482 78.9428 66.5456 81.3455L67.2914 82.0912ZM65.3026 84.08L67.2914 82.0912L66.5456 81.3455L64.5569 83.3342L65.3026 84.08ZM65.3026 91.2892C63.3119 89.2984 63.3119 86.0707 65.3026 84.08L64.5569 83.3342C62.1542 85.7368 62.1542 89.6323 64.5569 92.0349L65.3026 91.2892ZM87.8485 113.835L65.3026 91.2892L64.5569 92.0349L87.1027 114.581L87.8485 113.835ZM89.9808 115.112C89.2008 114.878 88.4659 114.452 87.8485 113.835L87.1027 114.581C87.8464 115.324 88.7344 115.839 89.6772 116.122L89.9808 115.112ZM95.3321 113.925C93.8927 115.365 91.8059 115.764 90.0066 115.12L89.6514 116.114C91.8202 116.889 94.3394 116.409 96.0779 114.671L95.3321 113.925ZM133.472 75.7852L95.3321 113.925L96.0779 114.671L134.218 76.531L133.472 75.7852ZM133.472 68.576C135.463 70.5668 135.463 73.7945 133.472 75.7852L134.218 76.531C136.621 74.1284 136.621 70.2329 134.218 67.8303L133.472 68.576ZM131.483 66.5873L133.472 68.576L134.218 67.8303L132.229 65.8415L131.483 66.5873Z" fill="black" mask="url(#path-7-inside-2_968_9244)"/>
</g>
<g id="Union_2">
<mask id="path-9-inside-3_968_9244" fill="white">
<path fill-rule="evenodd" clip-rule="evenodd" d="M135.492 65.6324C133.295 63.4357 129.734 63.4357 127.537 65.6324L95.2711 97.8983L78.5092 81.1363C76.3125 78.9396 72.7509 78.9396 70.5542 81.1363L68.5655 83.1251C66.3688 85.3218 66.3688 88.8833 68.5655 91.08L91.1113 113.626C91.7919 114.306 92.6034 114.776 93.4647 115.035C95.4488 115.745 97.7518 115.305 99.3407 113.716L137.481 75.5761C139.677 73.3794 139.677 69.8178 137.481 67.6211L135.492 65.6324Z"/>
</mask>
<path fill-rule="evenodd" clip-rule="evenodd" d="M135.492 65.6324C133.295 63.4357 129.734 63.4357 127.537 65.6324L95.2711 97.8983L78.5092 81.1363C76.3125 78.9396 72.7509 78.9396 70.5542 81.1363L68.5655 83.1251C66.3688 85.3218 66.3688 88.8833 68.5655 91.08L91.1113 113.626C91.7919 114.306 92.6034 114.776 93.4647 115.035C95.4488 115.745 97.7518 115.305 99.3407 113.716L137.481 75.5761C139.677 73.3794 139.677 69.8178 137.481 67.6211L135.492 65.6324Z" fill="#4ADE80"/>
<path d="M127.537 65.6324L127.91 66.0053V66.0053L127.537 65.6324ZM135.492 65.6324L135.865 65.2595V65.2595L135.492 65.6324ZM95.2711 97.8983L94.8983 98.2712L95.2711 98.6441L95.644 98.2712L95.2711 97.8983ZM78.5092 81.1363L78.8821 80.7634L78.5092 81.1363ZM70.5542 81.1363L70.9271 81.5092L70.5542 81.1363ZM68.5655 83.1251L68.1926 82.7522H68.1926L68.5655 83.1251ZM68.5655 91.08L68.1926 91.4529L68.5655 91.08ZM91.1113 113.626L90.7384 113.999V113.999L91.1113 113.626ZM93.4647 115.035L93.6423 114.538L93.6295 114.534L93.6165 114.53L93.4647 115.035ZM99.3407 113.716L98.9678 113.343L99.3407 113.716ZM137.481 75.5761L137.854 75.949V75.949L137.481 75.5761ZM137.481 67.6211L137.854 67.2482V67.2482L137.481 67.6211ZM127.91 66.0053C129.901 64.0145 133.128 64.0145 135.119 66.0053L135.865 65.2595C133.462 62.8569 129.567 62.8569 127.164 65.2595L127.91 66.0053ZM95.644 98.2712L127.91 66.0053L127.164 65.2595L94.8983 97.5254L95.644 98.2712ZM78.1363 81.5092L94.8983 98.2712L95.644 97.5254L78.8821 80.7634L78.1363 81.5092ZM70.9271 81.5092C72.9179 79.5185 76.1455 79.5185 78.1363 81.5092L78.8821 80.7634C76.4794 78.3608 72.584 78.3608 70.1813 80.7634L70.9271 81.5092ZM68.9384 83.498L70.9271 81.5092L70.1813 80.7634L68.1926 82.7522L68.9384 83.498ZM68.9384 90.7071C66.9476 88.7164 66.9476 85.4887 68.9384 83.498L68.1926 82.7522C65.79 85.1548 65.79 89.0503 68.1926 91.4529L68.9384 90.7071ZM91.4842 113.253L68.9384 90.7071L68.1926 91.4529L90.7384 113.999L91.4842 113.253ZM93.6165 114.53C92.8366 114.296 92.1016 113.87 91.4842 113.253L90.7384 113.999C91.4821 114.742 92.3702 115.257 93.3129 115.54L93.6165 114.53ZM98.9678 113.343C97.5284 114.783 95.4417 115.182 93.6423 114.538L93.2871 115.532C95.4559 116.307 97.9752 115.827 99.7136 114.089L98.9678 113.343ZM137.108 75.2032L98.9678 113.343L99.7136 114.089L137.854 75.949L137.108 75.2032ZM137.108 67.994C139.099 69.9848 139.099 73.2124 137.108 75.2032L137.854 75.949C140.256 73.5463 140.256 69.6509 137.854 67.2482L137.108 67.994ZM135.119 66.0053L137.108 67.994L137.854 67.2482L135.865 65.2595L135.119 66.0053Z" fill="black" mask="url(#path-9-inside-3_968_9244)"/>
</g>
<path id="Polygon 3" d="M116.636 114.907C116.662 114.785 116.77 114.697 116.895 114.697C117.019 114.697 117.127 114.785 117.153 114.907L118.998 123.784L128.021 125.601C128.144 125.626 128.232 125.734 128.232 125.859C128.232 125.985 128.144 126.093 128.021 126.118L118.998 127.935L117.153 136.811C117.127 136.934 117.019 137.021 116.895 137.021C116.77 137.021 116.662 136.934 116.636 136.811L114.791 127.935L105.768 126.118C105.645 126.093 105.557 125.985 105.557 125.859C105.557 125.734 105.645 125.626 105.768 125.601L114.791 123.784L116.636 114.907Z" fill="white" stroke="black" stroke-width="0.527344" stroke-linejoin="round"/>
<path id="Polygon 4" d="M38.4027 56.1963C38.3772 56.074 38.2695 55.9863 38.1445 55.9863C38.0196 55.9863 37.9118 56.074 37.8864 56.1963L36.0406 65.073L27.0183 66.89C26.8952 66.9147 26.8066 67.0229 26.8066 67.1484C26.8066 67.274 26.8952 67.3821 27.0183 67.4069L36.0406 69.2239L37.8864 78.1006C37.9118 78.2229 38.0196 78.3105 38.1445 78.3105C38.2695 78.3105 38.3772 78.2229 38.4027 78.1006L40.2484 69.2239L49.2708 67.4069C49.3939 67.3821 49.4824 67.274 49.4824 67.1484C49.4824 67.0229 49.3939 66.9147 49.2708 66.89L40.2484 65.073L38.4027 56.1963Z" fill="white" stroke="black" stroke-width="0.527344" stroke-linejoin="round"/>
</g>
</svg>
