<svg width="202" height="274" viewBox="0 0 202 274" fill="none" xmlns="http://www.w3.org/2000/svg">
<g clip-path="url(#clip0_201_1419)">
<path d="M114.603 50C162.43 77.613 178.818 138.775 151.205 186.603C123.592 234.43 62.4279 250.817 14.6025 223.205C-33.2228 195.593 -49.619 134.44 -22 86.6025C5.619 38.765 66.7702 22.384 114.603 50Z" fill="#010101" fill-opacity="0.02"/>
<path d="M81.953 131.235L89.391 118.352L118.851 135.361L130.184 115.731L49.9628 69.4153L38.6298 89.0446L68.0937 106.056L60.6617 118.928C36.0811 106.203 15.3385 100.55 12.0585 106.232C8.77845 111.913 24.0538 127.055 47.3517 141.982L23.5267 183.248L44.8309 195.548L68.6579 154.278C93.1973 166.975 113.902 172.61 117.179 166.934C120.456 161.258 105.223 146.145 81.958 131.242M70.6759 150.783L70.6819 150.773C70.0589 150.464 66.8637 148.866 59.9874 144.896C54.4899 141.722 50.7122 139.333 49.3901 138.475L49.3801 138.493C28.7658 125.342 15.1017 112.54 17.6467 108.132C20.1917 103.724 38.1086 109.163 59.8041 120.438L51.4991 134.822C52.8298 135.718 56.6577 138.239 62.1275 141.397C68.6972 145.19 72.1582 146.824 72.7964 147.118L81.1014 132.734C101.672 145.864 115.298 158.648 112.762 163.04C110.226 167.433 92.3342 162.022 70.6844 150.776" fill="#010101" fill-opacity="0.05"/>
</g>
<defs>
<clipPath id="clip0_201_1419">
<rect width="200" height="200" fill="white" transform="translate(28) rotate(30)"/>
</clipPath>
</defs>
</svg>
