<svg width="220" height="220" viewBox="0 0 220 220" fill="none" xmlns="http://www.w3.org/2000/svg">
<g id="Secure_Touch_ID">
<rect id="Rectangle 21" x="-0.380859" y="-0.380859" width="181.035" height="119.082" rx="11.8066" transform="matrix(7.93709e-09 -1 -1 -2.40729e-07 157.988 200.137)" fill="black" stroke="black" stroke-width="0.761719"/>
<rect id="Rectangle 20" x="-0.380859" y="-0.380859" width="181.035" height="104.355" rx="11.8066" transform="matrix(7.93709e-09 -1 -1 -2.40729e-07 157.988 200.137)" fill="#91A8ED" stroke="black" stroke-width="0.761719"/>
<path id="Rectangle 63" d="M145.039 195.439C149.877 195.439 153.799 191.518 153.799 186.68L153.799 32.3047C153.799 27.4668 149.877 23.545 145.039 23.545L137.295 23.5449C133.579 23.5449 130.566 26.5574 130.566 30.2735C130.566 33.0079 128.35 35.2246 125.615 35.2246L106.191 35.2246L86.7676 35.2246C84.0331 35.2246 81.8164 33.0079 81.8164 30.2734C81.8164 26.5574 78.8039 23.5449 75.0879 23.5449L67.3438 23.5449C62.5059 23.5449 58.584 27.4668 58.584 32.3047L58.584 186.68C58.584 191.518 62.5059 195.439 67.3438 195.439L145.039 195.439Z" fill="#AB98F9" stroke="black" stroke-width="0.761719"/>
<path id="Subtract" fill-rule="evenodd" clip-rule="evenodd" d="M141.484 23.1641H145.039C150.087 23.1641 154.18 27.2565 154.18 32.3047L154.18 186.68C154.18 191.728 150.087 195.82 145.039 195.82H141.488C146.535 195.818 150.625 191.727 150.625 186.68L150.625 32.3047C150.625 27.2565 146.533 23.1641 141.484 23.1641Z" fill="black"/>
<rect id="Rectangle 60" x="43.3496" y="51.4746" width="6.85547" height="22.5977" rx="3.42773" fill="#91A8ED" stroke="black" stroke-width="0.761719"/>
<rect id="Rectangle 61" x="43.3496" y="77.8809" width="6.85547" height="22.5977" rx="3.42773" fill="#91A8ED" stroke="black" stroke-width="0.761719"/>
<circle id="Ellipse 38" cx="90.1953" cy="27.2266" r="3.68164" fill="white" stroke="black" stroke-width="0.761719"/>
<path id="Union" d="M185.283 126.587V126.782L185.282 126.978C185.073 154.168 163.042 176.143 135.898 176.143C108.755 176.143 86.7241 154.168 86.5152 126.978L86.5137 126.783V126.587V101.03V100.231H86.5186L86.5272 99.8589C87.147 73.0301 109.015 51.4746 135.898 51.4746C162.782 51.4746 184.65 73.0301 185.27 99.8589L185.278 100.231H185.283V101.03V126.587Z" fill="black" stroke="black" stroke-width="0.761719"/>
<path id="Union_2" d="M193.408 126.587V126.782L193.407 126.978C193.198 154.168 171.167 176.143 144.023 176.143C116.88 176.143 94.8491 154.168 94.6402 126.978L94.6387 126.783V126.587V101.03V100.231H94.6436L94.6522 99.8589C95.272 73.0301 117.14 51.4746 144.023 51.4746C170.907 51.4746 192.775 73.0301 193.395 99.8589L193.403 100.231H193.408V101.03V126.587Z" fill="#98F99C" stroke="black" stroke-width="0.761719"/>
<path id="Union_3" d="M186.807 124.828V124.996L186.805 125.165C186.624 148.581 167.54 167.51 144.023 167.51C120.506 167.51 101.423 148.581 101.242 125.165L101.24 124.997V124.828V102.789V102.152H101.243L101.252 101.78C101.789 78.6749 120.732 60.1074 144.023 60.1074C167.315 60.1074 186.258 78.6749 186.795 101.78L186.804 102.152H186.807V102.789V124.828Z" fill="#91A8ED" stroke="black" stroke-width="0.761719"/>
<path id="Polygon 1" d="M62.0721 158.868C62.0354 158.691 61.8797 158.564 61.6992 158.564C61.5188 158.564 61.3631 158.691 61.3263 158.868L58.6602 171.69L45.6279 174.314C45.4501 174.35 45.3223 174.506 45.3223 174.688C45.3223 174.869 45.4501 175.025 45.6279 175.061L58.6602 177.685L61.3263 190.507C61.3631 190.684 61.5188 190.811 61.6992 190.811C61.8797 190.811 62.0354 190.684 62.0721 190.507L64.7382 177.685L77.7705 175.061C77.9483 175.025 78.0762 174.869 78.0762 174.688C78.0762 174.506 77.9483 174.35 77.7705 174.314L64.7382 171.69L62.0721 158.868Z" fill="white" stroke="black" stroke-width="0.761719" stroke-linejoin="round"/>
<path id="Polygon 2" d="M191.056 50.7037C191.02 50.527 190.864 50.4004 190.684 50.4004C190.503 50.4004 190.347 50.527 190.311 50.7037L187.645 63.5256L174.612 66.1501C174.435 66.1859 174.307 66.3421 174.307 66.5234C174.307 66.7048 174.435 66.861 174.612 66.8968L187.645 69.5213L190.311 82.3432C190.347 82.5198 190.503 82.6465 190.684 82.6465C190.864 82.6465 191.02 82.5198 191.056 82.3432L193.723 69.5213L206.755 66.8968C206.933 66.861 207.061 66.7048 207.061 66.5234C207.061 66.3421 206.933 66.1859 206.755 66.1501L193.723 63.5256L191.056 50.7037Z" fill="white" stroke="black" stroke-width="0.761719" stroke-linejoin="round"/>
<path id="Rectangle 40" d="M161.562 128.558V111.997M116.016 123.518C116.016 123.518 116.016 127.459 118.637 132.349C120.437 135.708 124.099 137.456 127.88 137.924V137.924C137.138 139.068 145.306 131.847 145.306 122.519V117.758V114.188C145.306 111.132 142.599 108.786 139.575 109.22V109.22C137.103 109.574 135.268 111.691 135.268 114.188V123.689C135.268 126.378 133.088 128.558 130.399 128.558V128.558C127.71 128.558 125.53 126.378 125.53 123.689V114.518M116.016 115.598V109.57C116.016 96.9929 126.212 86.7969 138.789 86.7969V86.7969V86.7969C149.239 86.7969 158.344 93.9323 160.851 104.077V104.077M153.022 112.357V111.353C153.022 103.756 146.864 97.5971 139.267 97.5971V97.5971C133.791 97.5971 128.836 100.845 126.653 105.867L126.335 106.597M148.397 138.638L149.303 137.509C151.71 134.512 153.022 130.782 153.022 126.938V126.938V120.728" stroke="black" stroke-width="2.03125" stroke-linecap="round" stroke-linejoin="round"/>
</g>
</svg>
