<svg width="328" height="199" viewBox="0 0 328 199" fill="none" xmlns="http://www.w3.org/2000/svg">
<g clip-path="url(#clip0_201_1420)">
<path d="M223.923 267.846C281.514 234.596 301.096 161.514 267.846 103.923C234.596 46.332 161.514 26.7498 103.923 60C46.332 93.2502 26.7498 166.332 60 223.923C93.2502 281.514 166.332 301.096 223.923 267.846Z" fill="#010101" fill-opacity="0.02"/>
<path d="M202.002 163.877C193.252 148.722 181.159 148.776 161.722 157.111C147.732 162.879 143.134 160.915 139.633 154.852C136.133 148.789 138.214 142.393 146.874 137.393C154.668 132.893 160.499 132.991 166.413 138.237C167.597 139.285 169.396 139.401 170.695 138.651L177.622 134.651C179.355 133.651 179.904 131.602 178.904 129.871L178.654 129.437C171.421 120.911 159.377 118.05 148.918 122.934L142.918 112.542C141.918 110.81 139.869 110.261 137.454 111.077L130.959 114.827C129.227 115.827 128.678 117.876 129.495 120.292L135.245 130.251C123.254 139.484 120.028 152.893 126.278 163.719C134.528 178.008 146.437 178.637 165.874 170.303C179.249 165.467 184.646 165.815 188.646 172.744C192.646 179.672 189.333 187.935 181.107 192.685C169.848 199.185 163.2 196.672 158.151 190.926C156.719 189.445 154.92 189.328 153.621 190.078L146.259 194.328C144.527 195.328 143.978 197.377 144.979 199.109L145.229 199.543C153.21 209.368 164.638 213.162 180.178 207.078L186.178 217.47C187.178 219.201 189.227 219.75 191.642 218.934L198.137 215.184C199.869 214.184 200.418 212.135 199.602 209.72L193.602 199.327C205.342 189.662 208.752 175.569 202.002 163.877Z" fill="#010101" fill-opacity="0.05"/>
<path d="M177.589 238.594C136.815 245.97 97.7437 218.298 91.0514 177.705C87.0466 155.768 93.3362 133.662 107.339 116.917C108.572 115.051 108.688 113.253 107.437 111.087L103.937 105.025C102.937 103.293 101.322 102.493 99.3396 103.061C98.9062 103.311 98.0406 103.811 97.8568 104.494C64.2209 141.234 66.9543 197.969 103.695 231.605C125.489 251.353 154.859 259.223 183.607 253.018C185.839 252.883 187.072 251.017 186.504 249.035C186.688 248.353 186.437 247.919 185.938 247.054L182.437 240.991C181.687 239.692 179.389 238.71 177.589 238.594ZM145.489 76.9934C143.257 77.1279 142.024 78.9938 142.592 80.9758C142.409 81.6594 142.658 82.0917 143.159 82.9584L146.659 89.0202C147.659 90.7526 149.957 91.734 151.757 91.8507C192.531 84.4744 231.602 112.146 238.295 152.739C242.299 174.676 236.01 196.782 222.007 213.527C220.774 215.393 220.658 217.192 221.909 219.357L225.409 225.419C226.409 227.152 228.024 227.951 230.006 227.383C230.44 227.133 231.306 226.633 231.489 225.95C265.125 189.21 262.392 132.475 225.652 98.8392C203.607 78.6575 173.804 71.038 145.489 76.9934Z" fill="#010101" fill-opacity="0.05"/>
</g>
<defs>
<clipPath id="clip0_201_1420">
<rect width="240" height="240" fill="white" transform="translate(0 120) rotate(-30)"/>
</clipPath>
</defs>
</svg>
