<svg width="389" height="403" viewBox="0 0 389 403" fill="none" xmlns="http://www.w3.org/2000/svg">
<path d="M112.152 59.9527L13.4755 114.833C5.95401 119.016 3.0892 128.4 6.99169 136.071L83.3767 286.217C87.3872 294.1 97.0327 297.234 104.911 293.213L209.559 239.805C217.573 235.715 220.64 225.823 216.345 217.916L133.988 66.2986C129.741 58.4788 119.929 55.6274 112.152 59.9527Z" fill="#E9D6FE" stroke="#FAF5FF" stroke-width="6"/>
<path d="M121.82 16.1357C122.198 8.96599 128.316 3.46012 135.486 3.83804L263.141 10.5668C270.311 10.9448 275.817 17.0634 275.439 24.2331L262.191 275.57C261.813 282.74 255.694 288.245 248.525 287.868L120.869 281.139C113.699 280.761 108.194 274.642 108.572 267.472L121.82 16.1357Z" fill="#E2E8F0" stroke="#F8FAFC" stroke-width="6"/>
<path d="M125.844 297.65C116.815 290.371 115.396 277.151 122.675 268.121L254.529 104.566C261.808 95.5369 275.028 94.1181 284.058 101.397L368.432 169.417C377.461 176.697 378.88 189.917 371.601 198.946L239.748 362.502C232.468 371.531 219.248 372.95 210.219 365.67L125.844 297.65Z" fill="#F6F6F6" stroke="#FCFCFC" stroke-width="6"/>
<path d="M128 311.014L289.979 110.09L320.192 134.447L158.213 335.371L128 311.014Z" fill="#D1D1D1"/>
<g clip-path="url(#clip0_201_1449)">
<circle cx="143.075" cy="185.831" r="55.0989" transform="rotate(-30 143.075 185.831)" fill="#A5F3D6"/>
<path d="M115.526 138.114C89.1728 153.329 80.1432 187.028 95.358 213.381C110.573 239.734 144.272 248.763 170.625 233.549C196.978 218.334 206.007 184.635 190.792 158.282C175.577 131.929 141.879 122.899 115.526 138.114ZM166.099 225.71C144.075 238.425 115.912 230.879 103.197 208.855C90.4812 186.831 98.0274 158.669 120.051 145.953C142.075 133.238 170.238 140.784 182.953 162.808C195.669 184.832 188.123 212.994 166.099 225.71ZM149.795 162.402C151.368 163.791 151.513 166.195 150.121 167.764C148.726 169.335 146.326 169.484 144.758 168.09C142.626 166.206 138.239 165.098 132.887 168.189C128.456 170.747 127.548 175.244 128.941 178.362C130.655 182.199 135.436 183.362 141.413 181.398C153.371 177.472 160.619 182.799 163.193 188.556C165.886 194.578 164.131 201.581 159.183 206.136L161.564 210.259C162.613 212.076 161.989 214.402 160.173 215.45C158.356 216.499 156.031 215.876 154.982 214.059L152.668 210.051C145.259 212.874 138.894 210.707 135.403 207.617C133.831 206.228 133.685 203.824 135.078 202.254C136.464 200.68 138.871 200.536 140.441 201.929C142.573 203.813 146.959 204.921 152.312 201.83C156.743 199.272 157.65 194.775 156.258 191.656C154.543 187.82 149.762 186.657 143.786 188.621C131.827 192.547 124.579 187.22 122.006 181.463C119.312 175.441 121.067 168.438 126.015 163.883L123.634 159.76C122.586 157.943 123.209 155.617 125.025 154.569C126.842 153.52 129.167 154.143 130.216 155.96L132.53 159.968C139.939 157.145 146.305 159.312 149.795 162.402Z" fill="#EDFDF7"/>
</g>
<path d="M12.5 211.09C12.5 206.948 15.8579 203.59 20 203.59H274C295.815 203.59 313.5 221.275 313.5 243.09V402.59H12.5V211.09Z" fill="url(#paint0_linear_201_1449)" stroke="url(#paint1_linear_201_1449)"/>
<path d="M247.012 327.135C247.012 309.557 261.262 295.307 278.84 295.307H322.734C327.152 295.307 330.734 298.889 330.734 303.307V350.963C330.734 355.381 327.152 358.963 322.734 358.963H278.84C261.262 358.963 247.012 344.713 247.012 327.135Z" fill="#F8FAFC"/>
<circle cx="275.727" cy="327.481" r="13.4924" fill="#E2E8F0"/>
<path d="M258.341 273.045C255.957 257.222 261.35 233.028 288.902 234.03C304.815 234.609 318.163 250.489 318.163 262.424C318.163 274.359 318.163 281.051 318.163 292.986" stroke="#454545" stroke-width="10" stroke-linecap="round"/>
<path d="M241 309.923C241 299.97 249.068 291.902 259.021 291.902H318.348C328.301 291.902 336.369 299.97 336.369 309.923V328.316C336.369 354.651 315.02 376 288.685 376C262.349 376 241 354.651 241 328.316V309.923Z" fill="#36D399"/>
<path fill-rule="evenodd" clip-rule="evenodd" d="M293.682 333.526C295.902 332.002 297.358 329.447 297.358 326.551C297.358 321.883 293.573 318.098 288.905 318.098C284.236 318.098 280.451 321.883 280.451 326.551C280.451 329.445 281.905 331.999 284.123 333.523L279.148 349.743H298.656L293.682 333.526Z" fill="#454545"/>
<defs>
<linearGradient id="paint0_linear_201_1449" x1="163" y1="203.09" x2="163" y2="403.09" gradientUnits="userSpaceOnUse">
<stop stop-color="#F8FAFC"/>
<stop offset="1" stop-color="#E2E8F0"/>
</linearGradient>
<linearGradient id="paint1_linear_201_1449" x1="163" y1="203.09" x2="163" y2="403.09" gradientUnits="userSpaceOnUse">
<stop stop-color="#64748B" stop-opacity="0.1"/>
<stop offset="1" stop-color="#64748B" stop-opacity="0.01"/>
</linearGradient>
<clipPath id="clip0_201_1449">
<rect width="110.198" height="110.198" fill="white" transform="translate(67.8085 165.664) rotate(-30)"/>
</clipPath>
</defs>
</svg>
