<svg width="364" height="418" viewBox="0 0 364 418" fill="none" xmlns="http://www.w3.org/2000/svg">
<g clip-path="url(#clip0_201_1455)">
<circle cx="137.446" cy="224.016" r="55.0989" transform="rotate(-30 137.446 224.016)" fill="#A5F3D6"/>
<path d="M109.897 176.299C83.5438 191.513 74.5142 225.212 89.729 251.565C104.944 277.918 138.643 286.948 164.995 271.733C191.349 256.518 200.378 222.819 185.163 196.466C169.948 170.113 136.25 161.084 109.897 176.299ZM160.47 263.894C138.446 276.61 110.283 269.063 97.5677 247.039C84.8522 225.016 92.3984 196.853 114.422 184.137C136.446 171.422 164.609 178.968 177.324 200.992C190.04 223.016 182.494 251.178 160.47 263.894ZM144.166 200.586C145.738 201.975 145.884 204.379 144.492 205.949C143.097 207.519 140.697 207.668 139.129 206.274C136.997 204.39 132.61 203.282 127.258 206.373C122.827 208.931 121.919 213.428 123.312 216.547C125.026 220.383 129.807 221.546 135.784 219.583C147.742 215.656 154.99 220.983 157.564 226.74C160.257 232.762 158.502 239.765 153.554 244.32L155.935 248.443C156.984 250.26 156.36 252.586 154.544 253.634C152.727 254.683 150.402 254.06 149.353 252.243L147.039 248.235C139.63 251.058 133.265 248.891 129.774 245.801C128.202 244.412 128.056 242.008 129.449 240.439C130.835 238.864 133.242 238.72 134.811 240.113C136.944 241.997 141.33 243.105 146.683 240.015C151.114 237.456 152.021 232.959 150.629 229.841C148.914 226.004 144.133 224.841 138.156 226.805C126.198 230.731 118.95 225.404 116.377 219.647C113.683 213.625 115.438 206.622 120.386 202.068L118.005 197.944C116.957 196.127 117.58 193.802 119.396 192.753C121.213 191.704 123.538 192.327 124.587 194.144L126.901 198.152C134.31 195.329 140.676 197.496 144.166 200.586Z" fill="#EDFDF7"/>
</g>
<g clip-path="url(#clip1_201_1455)">
<circle cx="235.821" cy="111.39" r="40" transform="rotate(-30 235.821 111.39)" fill="#A5F3D6"/>
<path d="M215.821 76.7491C196.689 87.7946 190.134 112.259 201.179 131.39C212.225 150.522 236.689 157.077 255.821 146.031C274.952 134.986 281.507 110.522 270.462 91.3902C259.416 72.2589 234.952 65.7036 215.821 76.7491ZM252.535 140.341C236.546 149.572 216.101 144.093 206.87 128.105C197.639 112.116 203.117 91.6708 219.106 82.4398C235.095 73.2088 255.54 78.687 264.771 94.6757C274.002 110.664 268.524 131.109 252.535 140.341ZM240.699 94.381C241.841 95.3896 241.946 97.1345 240.935 98.2741C239.923 99.4145 238.181 99.5221 237.042 98.5103C235.494 97.1424 232.31 96.3385 228.424 98.582C225.207 100.439 224.549 103.704 225.559 105.968C226.804 108.753 230.275 109.597 234.614 108.172C243.295 105.321 248.557 109.189 250.425 113.368C252.381 117.74 251.107 122.824 247.514 126.13L249.243 129.124C250.004 130.443 249.552 132.131 248.233 132.892C246.914 133.654 245.226 133.201 244.465 131.883L242.785 128.973C237.406 131.022 232.785 129.449 230.251 127.206C229.109 126.197 229.004 124.452 230.015 123.313C231.021 122.17 232.768 122.065 233.908 123.077C235.456 124.444 238.64 125.248 242.526 123.005C245.743 121.148 246.402 117.883 245.391 115.619C244.146 112.834 240.675 111.99 236.336 113.415C227.655 116.266 222.393 112.398 220.525 108.219C218.569 103.847 219.844 98.7632 223.436 95.4566L221.707 92.4628C220.946 91.1441 221.398 89.4558 222.717 88.6944C224.036 87.9331 225.724 88.3854 226.485 89.7041L228.165 92.614C233.544 90.5644 238.165 92.1379 240.699 94.381Z" fill="#EDFDF7"/>
</g>
<g clip-path="url(#clip2_201_1455)">
<circle cx="336.5" cy="28.0697" r="20" transform="rotate(-30 336.5 28.0697)" fill="#A5F3D6"/>
<path d="M326.5 10.7491C316.934 16.2719 313.657 28.504 319.179 38.0697C324.702 47.6354 336.934 50.9129 346.5 45.3902C356.066 39.8674 359.343 27.6354 353.821 18.0697C348.298 8.50403 336.066 5.22638 326.5 10.7491ZM344.857 42.5448C336.863 47.1604 326.64 44.4212 322.025 36.4269C317.409 28.4326 320.148 18.21 328.143 13.5945C336.137 8.97895 346.36 11.7181 350.975 19.7124C355.591 27.7067 352.852 37.9293 344.857 42.5448ZM338.939 19.5651C339.51 20.0694 339.563 20.9418 339.057 21.5116C338.551 22.0818 337.68 22.1356 337.111 21.6297C336.337 20.9458 334.745 20.5438 332.802 21.6655C331.193 22.5941 330.864 24.2265 331.369 25.3585C331.992 26.7511 333.727 27.1732 335.897 26.4605C340.237 25.0352 342.868 26.969 343.802 29.0585C344.78 31.2445 344.143 33.7865 342.347 35.4397L343.211 36.9365C343.592 37.596 343.366 38.4401 342.706 38.8208C342.047 39.2015 341.203 38.9753 340.822 38.3159L339.982 36.861C337.293 37.8857 334.982 37.099 333.715 35.9775C333.144 35.4732 333.092 34.6007 333.597 34.0309C334.1 33.4594 334.974 33.4073 335.544 33.9129C336.318 34.5968 337.91 34.9987 339.853 33.877C341.461 32.9484 341.791 31.3161 341.285 30.184C340.663 28.7914 338.927 28.3693 336.758 29.082C332.417 30.5074 329.786 28.5736 328.852 26.4841C327.874 24.298 328.512 21.7562 330.308 20.1029L329.443 18.606C329.063 17.9466 329.289 17.1025 329.948 16.7218C330.608 16.3411 331.452 16.5673 331.832 17.2266L332.672 18.6816C335.362 17.6568 337.672 18.4435 338.939 19.5651Z" fill="#EDFDF7"/>
</g>
<path d="M1.36312 268.113C0.709419 263.743 3.72179 259.671 8.09144 259.018L259.296 221.437C281.144 218.169 301.505 233.231 304.774 255.079L328.447 413.318L29.7703 458L1.36312 268.113Z" fill="url(#paint0_linear_201_1455)"/>
<path d="M251.759 336.649C249.199 319.537 260.996 303.59 278.107 301.03L321.518 294.536C325.614 293.923 329.432 296.747 330.045 300.844L337.096 347.975C337.709 352.072 334.885 355.89 330.788 356.502L287.377 362.997C270.266 365.557 254.319 353.76 251.759 336.649Z" fill="url(#paint1_linear_201_1455)" stroke="url(#paint2_linear_201_1455)"/>
<circle cx="279.715" cy="332.816" r="12.9924" transform="rotate(-8.50837 279.715 332.816)" fill="#D7B6FC" stroke="url(#paint3_linear_201_1455)"/>
<path d="M178.248 232.786L134.693 239.303L98.2819 347.943L150.423 340.141L123.404 447.162L202.419 301.318L145.252 309.872L178.248 232.786Z" fill="url(#paint4_linear_201_1455)"/>
<defs>
<linearGradient id="paint0_linear_201_1455" x1="149.518" y1="237.86" x2="179.108" y2="435.659" gradientUnits="userSpaceOnUse">
<stop stop-color="#FAF5FF"/>
<stop offset="1" stop-color="#F3E9FE"/>
</linearGradient>
<linearGradient id="paint1_linear_201_1455" x1="287.956" y1="299.051" x2="297.374" y2="362.007" gradientUnits="userSpaceOnUse">
<stop stop-color="#FAF5FF"/>
<stop offset="1" stop-color="#F3E9FE"/>
</linearGradient>
<linearGradient id="paint2_linear_201_1455" x1="288.402" y1="292.031" x2="330.909" y2="337.878" gradientUnits="userSpaceOnUse">
<stop stop-color="#330A61" stop-opacity="0.3"/>
<stop offset="1" stop-color="#330A61" stop-opacity="0.01"/>
</linearGradient>
<linearGradient id="paint3_linear_201_1455" x1="280.192" y1="316.409" x2="296.146" y2="334.173" gradientUnits="userSpaceOnUse">
<stop stop-color="#330A61" stop-opacity="0.3"/>
<stop offset="1" stop-color="#330A61" stop-opacity="0.01"/>
</linearGradient>
<linearGradient id="paint4_linear_201_1455" x1="137.519" y1="238.88" x2="167.693" y2="440.535" gradientUnits="userSpaceOnUse">
<stop stop-color="#EAB308" stop-opacity="0.1"/>
<stop offset="1" stop-color="#EAB308" stop-opacity="0.01"/>
</linearGradient>
<clipPath id="clip0_201_1455">
<rect width="110.198" height="110.198" fill="white" transform="translate(62.1795 203.848) rotate(-30)"/>
</clipPath>
<clipPath id="clip1_201_1455">
<rect width="80" height="80" fill="white" transform="translate(181.179 96.7491) rotate(-30)"/>
</clipPath>
<clipPath id="clip2_201_1455">
<rect width="40" height="40" fill="white" transform="translate(309.179 20.7491) rotate(-30)"/>
</clipPath>
</defs>
</svg>
