<svg width="656" height="486" viewBox="0 0 656 486" fill="none" xmlns="http://www.w3.org/2000/svg">
<g clip-path="url(#clip0_201_1457)">
<rect x="-83.5" y="9.5" width="799" height="799" rx="399.5" stroke="url(#paint0_linear_201_1457)"/>
<circle cx="316" cy="409" r="79.5" stroke="url(#paint1_linear_201_1457)"/>
<circle cx="316" cy="409" r="159.5" stroke="url(#paint2_linear_201_1457)"/>
<circle cx="316" cy="409" r="239.5" stroke="url(#paint3_linear_201_1457)"/>
<circle cx="316" cy="409" r="319.5" stroke="url(#paint4_linear_201_1457)"/>
<mask id="path-7-inside-1_201_1457" fill="white">
<path d="M430 247C430 233.745 440.745 223 454 223H646C659.255 223 670 233.745 670 247V525.25H430V247Z"/>
</mask>
<path d="M430 247C430 233.745 440.745 223 454 223H646C659.255 223 670 233.745 670 247V525.25H430V247Z" fill="url(#paint5_linear_201_1457)"/>
<path d="M418 247C418 227.118 434.118 211 454 211H646C665.882 211 682 227.118 682 247H658C658 240.373 652.627 235 646 235H454C447.373 235 442 240.373 442 247H418ZM670 525.25H430H670ZM418 525.25V247C418 227.118 434.118 211 454 211V235C447.373 235 442 240.373 442 247V525.25H418ZM646 211C665.882 211 682 227.118 682 247V525.25H658V247C658 240.373 652.627 235 646 235V211Z" fill="#101010" mask="url(#path-7-inside-1_201_1457)"/>
<path d="M506 254.406C506 252.749 507.343 251.406 509 251.406H570C571.657 251.406 573 252.749 573 254.406C573 256.063 571.657 257.406 570 257.406H509C507.343 257.406 506 256.063 506 254.406Z" fill="#E7E7E7"/>
<path d="M589 254.406C589 252.749 590.343 251.406 592 251.406C593.657 251.406 595 252.749 595 254.406C595 256.063 593.657 257.406 592 257.406C590.343 257.406 589 256.063 589 254.406Z" fill="#E7E7E7"/>
<path d="M391.5 311C391.5 308.791 393.291 307 395.5 307H554.5C556.709 307 558.5 308.791 558.5 311V344C558.5 346.209 556.709 348 554.5 348H395.5C393.291 348 391.5 346.209 391.5 344V311Z" fill="#E2E8F0"/>
<path d="M407.5 327.5C407.5 320.873 412.873 315.5 419.5 315.5C426.127 315.5 431.5 320.873 431.5 327.5C431.5 334.127 426.127 339.5 419.5 339.5C412.873 339.5 407.5 334.127 407.5 327.5Z" fill="#1E293B"/>
<path d="M424.206 324.206C424.206 322.906 423.679 321.73 422.828 320.879C421.976 320.027 420.8 319.5 419.5 319.5C418.2 319.5 417.024 320.027 416.172 320.879C415.321 321.73 414.794 322.906 414.794 324.206C414.794 325.506 415.321 326.682 416.172 327.533C417.024 328.385 418.2 328.912 419.5 328.912C420.8 328.912 421.976 328.385 422.828 327.533C423.266 327.096 423.612 326.578 423.849 326.007C424.085 325.436 424.207 324.824 424.206 324.206ZM413.853 333.618C413.853 334.559 415.971 335.5 419.5 335.5C422.811 335.5 425.147 334.559 425.147 333.618C425.147 331.735 422.932 329.853 419.5 329.853C415.971 329.853 413.853 331.735 413.853 333.618Z" fill="#F1F5F9"/>
<rect x="437.5" y="322.5" width="105" height="2" rx="0.5" fill="#FCFCFC"/>
<rect x="437.5" y="328.5" width="105" height="4" rx="1" fill="#F6F6F6"/>
<path d="M529.643 360L520.5 348H536.5L529.643 360Z" fill="#E2E8F0"/>
<path d="M351.5 424C351.5 421.791 353.291 420 355.5 420H514.5C516.709 420 518.5 421.791 518.5 424V457C518.5 459.209 516.709 461 514.5 461H355.5C353.291 461 351.5 459.209 351.5 457V424Z" fill="#E9D6FE"/>
<path d="M367.5 440.5C367.5 433.873 372.873 428.5 379.5 428.5C386.127 428.5 391.5 433.873 391.5 440.5C391.5 447.127 386.127 452.5 379.5 452.5C372.873 452.5 367.5 447.127 367.5 440.5Z" fill="#6025A4"/>
<path d="M384.206 437.206C384.206 435.906 383.679 434.73 382.828 433.879C381.976 433.027 380.8 432.5 379.5 432.5C378.2 432.5 377.024 433.027 376.172 433.879C375.321 434.73 374.794 435.906 374.794 437.206C374.794 438.506 375.321 439.682 376.172 440.533C377.024 441.385 378.2 441.912 379.5 441.912C380.8 441.912 381.976 441.385 382.828 440.533C383.266 440.096 383.612 439.578 383.849 439.007C384.085 438.436 384.207 437.824 384.206 437.206ZM373.853 446.618C373.853 447.559 375.971 448.5 379.5 448.5C382.811 448.5 385.147 447.559 385.147 446.618C385.147 444.735 382.932 442.853 379.5 442.853C375.971 442.853 373.853 444.735 373.853 446.618Z" fill="#FAF5FF"/>
<rect x="397.5" y="435.5" width="105" height="2" rx="0.5" fill="#FCFCFC"/>
<rect x="397.5" y="441.5" width="105" height="4" rx="1" fill="#FAF5FF"/>
<path d="M489.643 473L480.5 461H496.5L489.643 473Z" fill="#E9D6FE"/>
<mask id="path-23-inside-2_201_1457" fill="white">
<path d="M-69 208C-69 194.745 -58.2548 184 -45 184H147C160.255 184 171 194.745 171 208V486.25H-69V208Z"/>
</mask>
<path d="M-69 208C-69 194.745 -58.2548 184 -45 184H147C160.255 184 171 194.745 171 208V486.25H-69V208Z" fill="url(#paint6_linear_201_1457)"/>
<path d="M-81 208C-81 188.118 -64.8823 172 -45 172H147C166.882 172 183 188.118 183 208H159C159 201.373 153.627 196 147 196H-45C-51.6274 196 -57 201.373 -57 208H-81ZM171 486.25H-69H171ZM-81 486.25V208C-81 188.118 -64.8823 172 -45 172V196C-51.6274 196 -57 201.373 -57 208V486.25H-81ZM147 172C166.882 172 183 188.118 183 208V486.25H159V208C159 201.373 153.627 196 147 196V172Z" fill="#101010" mask="url(#path-23-inside-2_201_1457)"/>
<path d="M7 215.406C7 213.749 8.34315 212.406 10 212.406H71C72.6569 212.406 74 213.749 74 215.406C74 217.063 72.6569 218.406 71 218.406H10C8.34315 218.406 7 217.063 7 215.406Z" fill="#E7E7E7"/>
<path d="M90 215.406C90 213.749 91.3431 212.406 93 212.406C94.6569 212.406 96 213.749 96 215.406C96 217.063 94.6569 218.406 93 218.406C91.3431 218.406 90 217.063 90 215.406Z" fill="#E7E7E7"/>
<path d="M92.5 231C92.5 228.791 94.2909 227 96.5 227H255.5C257.709 227 259.5 228.791 259.5 231V264C259.5 266.209 257.709 268 255.5 268H96.5C94.2909 268 92.5 266.209 92.5 264V231Z" fill="#E9D6FE"/>
<rect x="108.5" y="242.5" width="105" height="2" rx="0.5" fill="#FCFCFC"/>
<rect x="108.5" y="248.5" width="105" height="4" rx="1" fill="#F6F6F6"/>
<path d="M219.5 247.5C219.5 240.873 224.873 235.5 231.5 235.5C238.127 235.5 243.5 240.873 243.5 247.5C243.5 254.127 238.127 259.5 231.5 259.5C224.873 259.5 219.5 254.127 219.5 247.5Z" fill="#6025A4"/>
<path d="M236.206 244.206C236.206 242.906 235.679 241.73 234.828 240.879C233.976 240.027 232.8 239.5 231.5 239.5C230.2 239.5 229.024 240.027 228.172 240.879C227.321 241.73 226.794 242.906 226.794 244.206C226.794 245.506 227.321 246.682 228.172 247.533C229.024 248.385 230.2 248.912 231.5 248.912C232.8 248.912 233.976 248.385 234.828 247.533C235.266 247.096 235.612 246.578 235.849 246.007C236.085 245.436 236.207 244.824 236.206 244.206ZM225.853 253.618C225.853 254.559 227.971 255.5 231.5 255.5C234.811 255.5 237.147 254.559 237.147 253.618C237.147 251.735 234.932 249.853 231.5 249.853C227.971 249.853 225.853 251.735 225.853 253.618Z" fill="#FAF5FF"/>
<path d="M119.643 280L110.5 268H126.5L119.643 280Z" fill="#E9D6FE"/>
<path d="M47.5 364C47.5 361.791 49.2909 360 51.5 360H210.5C212.709 360 214.5 361.791 214.5 364V397C214.5 399.209 212.709 401 210.5 401H51.5C49.2909 401 47.5 399.209 47.5 397V364Z" fill="#E2E8F0"/>
<rect x="63.5" y="375.5" width="105" height="2" rx="0.5" fill="#FCFCFC"/>
<rect x="63.5" y="381.5" width="105" height="4" rx="1" fill="#F6F6F6"/>
<path d="M174.5 380.5C174.5 373.873 179.873 368.5 186.5 368.5C193.127 368.5 198.5 373.873 198.5 380.5C198.5 387.127 193.127 392.5 186.5 392.5C179.873 392.5 174.5 387.127 174.5 380.5Z" fill="#1E293B"/>
<path d="M191.206 377.206C191.206 375.906 190.679 374.73 189.828 373.879C188.976 373.027 187.8 372.5 186.5 372.5C185.2 372.5 184.024 373.027 183.172 373.879C182.321 374.73 181.794 375.906 181.794 377.206C181.794 378.506 182.321 379.682 183.172 380.533C184.024 381.385 185.2 381.912 186.5 381.912C187.8 381.912 188.976 381.385 189.828 380.533C190.266 380.096 190.612 379.578 190.849 379.007C191.085 378.436 191.207 377.824 191.206 377.206ZM180.853 386.618C180.853 387.559 182.971 388.5 186.5 388.5C189.811 388.5 192.147 387.559 192.147 386.618C192.147 384.735 189.932 382.853 186.5 382.853C182.971 382.853 180.853 384.735 180.853 386.618Z" fill="#F8FAFC"/>
<path d="M74.6429 413L65.5 401H81.5L74.6429 413Z" fill="#E2E8F0"/>
</g>
<defs>
<linearGradient id="paint0_linear_201_1457" x1="316" y1="9" x2="316" y2="809" gradientUnits="userSpaceOnUse">
<stop stop-color="#6B7280" stop-opacity="0.1"/>
<stop offset="1" stop-color="#6B7280" stop-opacity="0.01"/>
</linearGradient>
<linearGradient id="paint1_linear_201_1457" x1="316" y1="329" x2="316" y2="489" gradientUnits="userSpaceOnUse">
<stop stop-color="#6B7280" stop-opacity="0.1"/>
<stop offset="1" stop-color="#6B7280" stop-opacity="0.01"/>
</linearGradient>
<linearGradient id="paint2_linear_201_1457" x1="316" y1="249" x2="316" y2="569" gradientUnits="userSpaceOnUse">
<stop stop-color="#6B7280" stop-opacity="0.1"/>
<stop offset="1" stop-color="#6B7280" stop-opacity="0.01"/>
</linearGradient>
<linearGradient id="paint3_linear_201_1457" x1="316" y1="169" x2="316" y2="649" gradientUnits="userSpaceOnUse">
<stop stop-color="#6B7280" stop-opacity="0.1"/>
<stop offset="1" stop-color="#6B7280" stop-opacity="0.01"/>
</linearGradient>
<linearGradient id="paint4_linear_201_1457" x1="316" y1="89" x2="316" y2="729" gradientUnits="userSpaceOnUse">
<stop stop-color="#6B7280" stop-opacity="0.1"/>
<stop offset="1" stop-color="#6B7280" stop-opacity="0.01"/>
</linearGradient>
<linearGradient id="paint5_linear_201_1457" x1="550" y1="223" x2="550" y2="525.25" gradientUnits="userSpaceOnUse">
<stop stop-color="#F8FAFC"/>
<stop offset="1" stop-color="#E2E8F0"/>
</linearGradient>
<linearGradient id="paint6_linear_201_1457" x1="51" y1="184" x2="51" y2="486.25" gradientUnits="userSpaceOnUse">
<stop stop-color="#FAF5FF"/>
<stop offset="1" stop-color="#F3E9FE"/>
</linearGradient>
<clipPath id="clip0_201_1457">
<path d="M0 16C0 7.16343 7.16344 0 16 0H640C648.837 0 656 7.16344 656 16V470C656 478.837 648.837 486 640 486H16C7.16343 486 0 478.837 0 470V16Z" fill="white"/>
</clipPath>
</defs>
</svg>
