<svg width="279" height="47" viewBox="0 0 279 47" fill="none" xmlns="http://www.w3.org/2000/svg">
<g filter="url(#filter0_d_776_25645)">
<rect x="8" y="5.24414" width="263" height="30" rx="8" fill="white" shape-rendering="crispEdges"/>
<path d="M27 13.7441C25.7144 13.7441 24.4577 14.1254 23.3888 14.8396C22.3199 15.5538 21.4868 16.569 20.9948 17.7567C20.5028 18.9444 20.3741 20.2514 20.6249 21.5122C20.8757 22.7731 21.4948 23.9313 22.4038 24.8403C23.3129 25.7494 24.471 26.3684 25.7319 26.6192C26.9928 26.87 28.2997 26.7413 29.4874 26.2494C30.6752 25.7574 31.6903 24.9243 32.4046 23.8553C33.1188 22.7864 33.5 21.5297 33.5 20.2441C33.4982 18.5208 32.8128 16.8685 31.5942 15.65C30.3756 14.4314 28.7234 13.746 27 13.7441ZM29.8538 19.0979L26.3538 22.5979C26.3073 22.6444 26.2522 22.6813 26.1915 22.7064C26.1308 22.7316 26.0657 22.7445 26 22.7445C25.9343 22.7445 25.8692 22.7316 25.8085 22.7064C25.7478 22.6813 25.6927 22.6444 25.6463 22.5979L24.1463 21.0979C24.0524 21.0041 23.9997 20.8768 23.9997 20.7441C23.9997 20.6115 24.0524 20.4842 24.1463 20.3904C24.2401 20.2966 24.3673 20.2439 24.5 20.2439C24.6327 20.2439 24.7599 20.2966 24.8538 20.3904L26 21.5373L29.1463 18.3904C29.1927 18.3439 29.2479 18.3071 29.3086 18.2819C29.3693 18.2568 29.4343 18.2439 29.5 18.2439C29.5657 18.2439 29.6308 18.2568 29.6915 18.2819C29.7521 18.3071 29.8073 18.3439 29.8538 18.3904C29.9002 18.4368 29.9371 18.492 29.9622 18.5527C29.9873 18.6134 30.0003 18.6784 30.0003 18.7441C30.0003 18.8098 29.9873 18.8749 29.9622 18.9356C29.9371 18.9963 29.9002 19.0514 29.8538 19.0979Z" fill="#74DB50"/>
<path d="M43.996 25.2441H42.148V15.4721H46.558C47.006 15.4721 47.4073 15.5421 47.762 15.6821C48.1167 15.8221 48.4153 16.0275 48.658 16.2981C48.91 16.5595 49.1013 16.8768 49.232 17.2501C49.372 17.6235 49.442 18.0388 49.442 18.4961C49.442 19.1681 49.288 19.7468 48.98 20.2321C48.6813 20.7175 48.2287 21.0628 47.622 21.2681L49.624 25.2441H47.566L45.746 21.4781H43.996V25.2441ZM46.376 19.9241C46.7307 19.9241 47.0107 19.8308 47.216 19.6441C47.4213 19.4481 47.524 19.1728 47.524 18.8181V18.1741C47.524 17.8195 47.4213 17.5488 47.216 17.3621C47.0107 17.1755 46.7307 17.0821 46.376 17.0821H43.996V19.9241H46.376ZM54.0818 25.4121C53.5405 25.4121 53.0551 25.3235 52.6258 25.1461C52.2058 24.9595 51.8465 24.7028 51.5478 24.3761C51.2585 24.0401 51.0345 23.6388 50.8758 23.1721C50.7171 22.6961 50.6378 22.1641 50.6378 21.5761C50.6378 20.9975 50.7125 20.4748 50.8618 20.0081C51.0205 19.5415 51.2445 19.1448 51.5338 18.8181C51.8231 18.4821 52.1778 18.2255 52.5978 18.0481C53.0178 17.8615 53.4938 17.7681 54.0258 17.7681C54.5951 17.7681 55.0898 17.8661 55.5098 18.0621C55.9298 18.2581 56.2751 18.5241 56.5458 18.8601C56.8165 19.1961 57.0171 19.5881 57.1478 20.0361C57.2878 20.4748 57.3578 20.9461 57.3578 21.4501V22.0381H52.4998V22.2201C52.4998 22.7521 52.6491 23.1815 52.9478 23.5081C53.2465 23.8255 53.6898 23.9841 54.2778 23.9841C54.7258 23.9841 55.0898 23.8908 55.3698 23.7041C55.6591 23.5175 55.9158 23.2795 56.1398 22.9901L57.1058 24.0681C56.8071 24.4881 56.3965 24.8195 55.8738 25.0621C55.3605 25.2955 54.7631 25.4121 54.0818 25.4121ZM54.0538 19.1121C53.5778 19.1121 53.1998 19.2708 52.9198 19.5881C52.6398 19.9055 52.4998 20.3161 52.4998 20.8201V20.9321H55.4958V20.8061C55.4958 20.3021 55.3698 19.8961 55.1178 19.5881C54.8751 19.2708 54.5205 19.1121 54.0538 19.1121ZM61.8184 25.4121C61.2771 25.4121 60.7964 25.3235 60.3764 25.1461C59.9564 24.9688 59.6018 24.7121 59.3124 24.3761C59.0324 24.0401 58.8178 23.6388 58.6684 23.1721C58.5191 22.6961 58.4444 22.1641 58.4444 21.5761C58.4444 20.9881 58.5191 20.4608 58.6684 19.9941C58.8178 19.5275 59.0324 19.1308 59.3124 18.8041C59.6018 18.4681 59.9564 18.2115 60.3764 18.0341C60.7964 17.8568 61.2771 17.7681 61.8184 17.7681C62.5558 17.7681 63.1624 17.9315 63.6384 18.2581C64.1238 18.5848 64.4738 19.0375 64.6884 19.6161L63.2184 20.2741C63.1344 19.9661 62.9758 19.7141 62.7424 19.5181C62.5184 19.3128 62.2104 19.2101 61.8184 19.2101C61.3144 19.2101 60.9364 19.3688 60.6844 19.6861C60.4418 20.0035 60.3204 20.4188 60.3204 20.9321V22.2621C60.3204 22.7755 60.4418 23.1908 60.6844 23.5081C60.9364 23.8161 61.3144 23.9701 61.8184 23.9701C62.2478 23.9701 62.5791 23.8628 62.8124 23.6481C63.0458 23.4241 63.2278 23.1488 63.3584 22.8221L64.7304 23.4801C64.4878 24.1241 64.1191 24.6095 63.6244 24.9361C63.1298 25.2535 62.5278 25.4121 61.8184 25.4121ZM68.9978 25.4121C68.4565 25.4121 67.9711 25.3235 67.5418 25.1461C67.1218 24.9595 66.7625 24.7028 66.4638 24.3761C66.1745 24.0401 65.9505 23.6388 65.7918 23.1721C65.6331 22.6961 65.5538 22.1641 65.5538 21.5761C65.5538 20.9975 65.6285 20.4748 65.7778 20.0081C65.9365 19.5415 66.1605 19.1448 66.4498 18.8181C66.7391 18.4821 67.0938 18.2255 67.5138 18.0481C67.9338 17.8615 68.4098 17.7681 68.9418 17.7681C69.5111 17.7681 70.0058 17.8661 70.4258 18.0621C70.8458 18.2581 71.1911 18.5241 71.4618 18.8601C71.7325 19.1961 71.9331 19.5881 72.0638 20.0361C72.2038 20.4748 72.2738 20.9461 72.2738 21.4501V22.0381H67.4158V22.2201C67.4158 22.7521 67.5651 23.1815 67.8638 23.5081C68.1625 23.8255 68.6058 23.9841 69.1938 23.9841C69.6418 23.9841 70.0058 23.8908 70.2858 23.7041C70.5751 23.5175 70.8318 23.2795 71.0558 22.9901L72.0218 24.0681C71.7231 24.4881 71.3125 24.8195 70.7898 25.0621C70.2765 25.2955 69.6791 25.4121 68.9978 25.4121ZM68.9698 19.1121C68.4938 19.1121 68.1158 19.2708 67.8358 19.5881C67.5558 19.9055 67.4158 20.3161 67.4158 20.8201V20.9321H70.4118V20.8061C70.4118 20.3021 70.2858 19.8961 70.0338 19.5881C69.7911 19.2708 69.4365 19.1121 68.9698 19.1121ZM74.7465 16.8721C74.3731 16.8721 74.1025 16.7881 73.9345 16.6201C73.7758 16.4521 73.6965 16.2375 73.6965 15.9761V15.6961C73.6965 15.4348 73.7758 15.2201 73.9345 15.0521C74.1025 14.8841 74.3731 14.8001 74.7465 14.8001C75.1105 14.8001 75.3765 14.8841 75.5445 15.0521C75.7125 15.2201 75.7965 15.4348 75.7965 15.6961V15.9761C75.7965 16.2375 75.7125 16.4521 75.5445 16.6201C75.3765 16.7881 75.1105 16.8721 74.7465 16.8721ZM73.8505 17.9361H75.6425V25.2441H73.8505V17.9361ZM79.2876 25.2441L76.8516 17.9361H78.6156L79.6376 21.0861L80.3516 23.6901H80.4496L81.1636 21.0861L82.1576 17.9361H83.8656L81.4156 25.2441H79.2876ZM87.906 25.4121C87.3647 25.4121 86.8793 25.3235 86.45 25.1461C86.03 24.9595 85.6707 24.7028 85.372 24.3761C85.0827 24.0401 84.8587 23.6388 84.7 23.1721C84.5413 22.6961 84.462 22.1641 84.462 21.5761C84.462 20.9975 84.5367 20.4748 84.686 20.0081C84.8447 19.5415 85.0687 19.1448 85.358 18.8181C85.6473 18.4821 86.002 18.2255 86.422 18.0481C86.842 17.8615 87.318 17.7681 87.85 17.7681C88.4193 17.7681 88.914 17.8661 89.334 18.0621C89.754 18.2581 90.0993 18.5241 90.37 18.8601C90.6407 19.1961 90.8413 19.5881 90.972 20.0361C91.112 20.4748 91.182 20.9461 91.182 21.4501V22.0381H86.324V22.2201C86.324 22.7521 86.4733 23.1815 86.772 23.5081C87.0707 23.8255 87.514 23.9841 88.102 23.9841C88.55 23.9841 88.914 23.8908 89.194 23.7041C89.4833 23.5175 89.74 23.2795 89.964 22.9901L90.93 24.0681C90.6313 24.4881 90.2207 24.8195 89.698 25.0621C89.1847 25.2955 88.5873 25.4121 87.906 25.4121ZM87.878 19.1121C87.402 19.1121 87.024 19.2708 86.744 19.5881C86.464 19.9055 86.324 20.3161 86.324 20.8201V20.9321H89.32V20.8061C89.32 20.3021 89.194 19.8961 88.942 19.5881C88.6993 19.2708 88.3447 19.1121 87.878 19.1121ZM97.2947 24.0261H97.2247C97.094 24.4461 96.8467 24.7821 96.4827 25.0341C96.1187 25.2861 95.694 25.4121 95.2087 25.4121C94.2847 25.4121 93.5753 25.0808 93.0807 24.4181C92.5953 23.7555 92.3527 22.8081 92.3527 21.5761C92.3527 20.3535 92.5953 19.4155 93.0807 18.7621C93.5753 18.0995 94.2847 17.7681 95.2087 17.7681C95.694 17.7681 96.1187 17.8941 96.4827 18.1461C96.8467 18.3888 97.094 18.7201 97.2247 19.1401H97.2947V14.8841H99.0867V25.2441H97.2947V24.0261ZM95.7827 23.9281C96.212 23.9281 96.5713 23.8255 96.8607 23.6201C97.15 23.4148 97.2947 23.1208 97.2947 22.7381V20.4141C97.2947 20.0595 97.15 19.7748 96.8607 19.5601C96.5713 19.3455 96.212 19.2381 95.7827 19.2381C95.316 19.2381 94.938 19.3968 94.6487 19.7141C94.3687 20.0221 94.2287 20.4375 94.2287 20.9601V22.2201C94.2287 22.7428 94.3687 23.1581 94.6487 23.4661C94.938 23.7741 95.316 23.9281 95.7827 23.9281ZM104.7 25.2441V23.7461H107.388V16.8021H107.262L105.134 19.3221L103.986 18.3561L106.408 15.4721H109.194V23.7461H111.434V25.2441H104.7ZM119.03 17.0681H114.634L114.41 20.3441H114.508C114.611 20.1388 114.723 19.9475 114.844 19.7701C114.966 19.5928 115.106 19.4435 115.264 19.3221C115.423 19.2008 115.605 19.1075 115.81 19.0421C116.025 18.9675 116.282 18.9301 116.58 18.9301C117 18.9301 117.392 19.0001 117.756 19.1401C118.12 19.2801 118.433 19.4855 118.694 19.7561C118.965 20.0175 119.175 20.3395 119.324 20.7221C119.483 21.1048 119.562 21.5388 119.562 22.0241C119.562 22.5188 119.483 22.9715 119.324 23.3821C119.166 23.7928 118.932 24.1521 118.624 24.4601C118.316 24.7588 117.938 24.9921 117.49 25.1601C117.042 25.3281 116.529 25.4121 115.95 25.4121C115.502 25.4121 115.101 25.3608 114.746 25.2581C114.392 25.1648 114.079 25.0341 113.808 24.8661C113.538 24.6981 113.304 24.5068 113.108 24.2921C112.912 24.0681 112.74 23.8348 112.59 23.5921L113.934 22.5561C114.046 22.7428 114.163 22.9201 114.284 23.0881C114.406 23.2468 114.546 23.3868 114.704 23.5081C114.872 23.6295 115.054 23.7275 115.25 23.8021C115.456 23.8675 115.694 23.9001 115.964 23.9001C116.515 23.9001 116.93 23.7461 117.21 23.4381C117.5 23.1301 117.644 22.7101 117.644 22.1781V22.0661C117.644 21.5621 117.5 21.1655 117.21 20.8761C116.921 20.5868 116.52 20.4421 116.006 20.4421C115.605 20.4421 115.278 20.5215 115.026 20.6801C114.774 20.8295 114.574 20.9928 114.424 21.1701L112.912 20.9601L113.276 15.4721H119.03V17.0681ZM122.301 23.0881C122.684 23.0881 122.964 23.1861 123.141 23.3821C123.328 23.5781 123.421 23.8255 123.421 24.1241V24.3761C123.421 24.6281 123.384 24.8895 123.309 25.1601C123.244 25.4308 123.146 25.6921 123.015 25.9441C122.894 26.1961 122.744 26.4341 122.567 26.6581C122.399 26.8821 122.208 27.0781 121.993 27.2461H120.719C121.036 26.9381 121.302 26.6348 121.517 26.3361C121.732 26.0468 121.895 25.7248 122.007 25.3701C121.718 25.3235 121.508 25.2115 121.377 25.0341C121.246 24.8475 121.181 24.6281 121.181 24.3761V24.1241C121.181 23.8255 121.27 23.5781 121.447 23.3821C121.624 23.1861 121.909 23.0881 122.301 23.0881ZM128.585 25.4121C127.959 25.4121 127.418 25.3001 126.961 25.0761C126.503 24.8428 126.125 24.5115 125.827 24.0821C125.528 23.6528 125.304 23.1255 125.155 22.5001C125.015 21.8748 124.945 21.1608 124.945 20.3581C124.945 19.5648 125.015 18.8555 125.155 18.2301C125.304 17.5955 125.528 17.0635 125.827 16.6341C126.125 16.2048 126.503 15.8781 126.961 15.6541C127.418 15.4208 127.959 15.3041 128.585 15.3041C129.826 15.3041 130.741 15.7475 131.329 16.6341C131.926 17.5208 132.225 18.7621 132.225 20.3581C132.225 21.9541 131.926 23.1955 131.329 24.0821C130.741 24.9688 129.826 25.4121 128.585 25.4121ZM128.585 23.8581C129.21 23.8581 129.644 23.6248 129.887 23.1581C130.139 22.6821 130.265 22.0428 130.265 21.2401V19.4761C130.265 18.6735 130.139 18.0388 129.887 17.5721C129.644 17.0961 129.21 16.8581 128.585 16.8581C127.959 16.8581 127.521 17.0961 127.269 17.5721C127.026 18.0388 126.905 18.6735 126.905 19.4761V21.2401C126.905 22.0428 127.026 22.6821 127.269 23.1581C127.521 23.6248 127.959 23.8581 128.585 23.8581ZM136.979 25.4121C136.354 25.4121 135.813 25.3001 135.355 25.0761C134.898 24.8428 134.52 24.5115 134.221 24.0821C133.923 23.6528 133.699 23.1255 133.549 22.5001C133.409 21.8748 133.339 21.1608 133.339 20.3581C133.339 19.5648 133.409 18.8555 133.549 18.2301C133.699 17.5955 133.923 17.0635 134.221 16.6341C134.52 16.2048 134.898 15.8781 135.355 15.6541C135.813 15.4208 136.354 15.3041 136.979 15.3041C138.221 15.3041 139.135 15.7475 139.723 16.6341C140.321 17.5208 140.619 18.7621 140.619 20.3581C140.619 21.9541 140.321 23.1955 139.723 24.0821C139.135 24.9688 138.221 25.4121 136.979 25.4121ZM136.979 23.8581C137.605 23.8581 138.039 23.6248 138.281 23.1581C138.533 22.6821 138.659 22.0428 138.659 21.2401V19.4761C138.659 18.6735 138.533 18.0388 138.281 17.5721C138.039 17.0961 137.605 16.8581 136.979 16.8581C136.354 16.8581 135.915 17.0961 135.663 17.5721C135.421 18.0388 135.299 18.6735 135.299 19.4761V21.2401C135.299 22.0428 135.421 22.6821 135.663 23.1581C135.915 23.6248 136.354 23.8581 136.979 23.8581ZM145.374 25.4121C144.748 25.4121 144.207 25.3001 143.75 25.0761C143.292 24.8428 142.914 24.5115 142.616 24.0821C142.317 23.6528 142.093 23.1255 141.944 22.5001C141.804 21.8748 141.734 21.1608 141.734 20.3581C141.734 19.5648 141.804 18.8555 141.944 18.2301C142.093 17.5955 142.317 17.0635 142.616 16.6341C142.914 16.2048 143.292 15.8781 143.75 15.6541C144.207 15.4208 144.748 15.3041 145.374 15.3041C146.615 15.3041 147.53 15.7475 148.118 16.6341C148.715 17.5208 149.014 18.7621 149.014 20.3581C149.014 21.9541 148.715 23.1955 148.118 24.0821C147.53 24.9688 146.615 25.4121 145.374 25.4121ZM145.374 23.8581C145.999 23.8581 146.433 23.6248 146.676 23.1581C146.928 22.6821 147.054 22.0428 147.054 21.2401V19.4761C147.054 18.6735 146.928 18.0388 146.676 17.5721C146.433 17.0961 145.999 16.8581 145.374 16.8581C144.748 16.8581 144.31 17.0961 144.058 17.5721C143.815 18.0388 143.694 18.6735 143.694 19.4761V21.2401C143.694 22.0428 143.815 22.6821 144.058 23.1581C144.31 23.6248 144.748 23.8581 145.374 23.8581ZM156.307 25.4121C155.607 25.4121 155.019 25.2955 154.543 25.0621C154.067 24.8195 153.647 24.4881 153.283 24.0681L154.375 23.0041C154.646 23.3121 154.94 23.5548 155.257 23.7321C155.584 23.9095 155.957 23.9981 156.377 23.9981C156.806 23.9981 157.114 23.9235 157.301 23.7741C157.497 23.6248 157.595 23.4195 157.595 23.1581C157.595 22.9435 157.525 22.7755 157.385 22.6541C157.254 22.5235 157.026 22.4348 156.699 22.3881L155.971 22.2901C155.178 22.1875 154.571 21.9635 154.151 21.6181C153.74 21.2635 153.535 20.7501 153.535 20.0781C153.535 19.7235 153.6 19.4061 153.731 19.1261C153.862 18.8368 154.048 18.5941 154.291 18.3981C154.534 18.1928 154.823 18.0388 155.159 17.9361C155.504 17.8241 155.887 17.7681 156.307 17.7681C156.662 17.7681 156.974 17.7961 157.245 17.8521C157.525 17.8988 157.777 17.9735 158.001 18.0761C158.225 18.1695 158.43 18.2908 158.617 18.4401C158.804 18.5801 158.986 18.7388 159.163 18.9161L158.113 19.9661C157.898 19.7421 157.642 19.5555 157.343 19.4061C157.044 19.2568 156.718 19.1821 156.363 19.1821C155.971 19.1821 155.686 19.2521 155.509 19.3921C155.341 19.5321 155.257 19.7141 155.257 19.9381C155.257 20.1808 155.327 20.3675 155.467 20.4981C155.616 20.6195 155.864 20.7081 156.209 20.7641L156.951 20.8621C158.528 21.0861 159.317 21.8048 159.317 23.0181C159.317 23.3728 159.242 23.6995 159.093 23.9981C158.953 24.2875 158.752 24.5395 158.491 24.7541C158.23 24.9595 157.912 25.1228 157.539 25.2441C157.175 25.3561 156.764 25.4121 156.307 25.4121ZM166.275 25.2441C165.883 25.2441 165.571 25.1321 165.337 24.9081C165.113 24.6748 164.973 24.3668 164.917 23.9841H164.833C164.712 24.4601 164.465 24.8195 164.091 25.0621C163.718 25.2955 163.256 25.4121 162.705 25.4121C161.959 25.4121 161.385 25.2161 160.983 24.8241C160.582 24.4321 160.381 23.9095 160.381 23.2561C160.381 22.5001 160.652 21.9401 161.193 21.5761C161.735 21.2028 162.505 21.0161 163.503 21.0161H164.749V20.4841C164.749 20.0735 164.642 19.7561 164.427 19.5321C164.213 19.3081 163.867 19.1961 163.391 19.1961C162.971 19.1961 162.631 19.2895 162.369 19.4761C162.117 19.6535 161.903 19.8681 161.725 20.1201L160.661 19.1681C160.932 18.7481 161.291 18.4121 161.739 18.1601C162.187 17.8988 162.78 17.7681 163.517 17.7681C164.507 17.7681 165.258 17.9921 165.771 18.4401C166.285 18.8881 166.541 19.5321 166.541 20.3721V23.8161H167.269V25.2441H166.275ZM163.307 24.1101C163.709 24.1101 164.049 24.0215 164.329 23.8441C164.609 23.6668 164.749 23.4055 164.749 23.0601V22.0941H163.601C162.668 22.0941 162.201 22.3928 162.201 22.9901V23.2281C162.201 23.5268 162.295 23.7508 162.481 23.9001C162.677 24.0401 162.953 24.1101 163.307 24.1101ZM170.947 25.2441C170.331 25.2441 169.86 25.0855 169.533 24.7681C169.216 24.4415 169.057 23.9795 169.057 23.3821V19.3641H167.979V17.9361H168.539C168.81 17.9361 168.992 17.8755 169.085 17.7541C169.188 17.6235 169.239 17.4321 169.239 17.1801V15.9341H170.849V17.9361H172.347V19.3641H170.849V23.8161H172.235V25.2441H170.947ZM176.295 25.4121C175.595 25.4121 175.007 25.2955 174.531 25.0621C174.055 24.8195 173.635 24.4881 173.271 24.0681L174.363 23.0041C174.634 23.3121 174.928 23.5548 175.245 23.7321C175.572 23.9095 175.945 23.9981 176.365 23.9981C176.795 23.9981 177.103 23.9235 177.289 23.7741C177.485 23.6248 177.583 23.4195 177.583 23.1581C177.583 22.9435 177.513 22.7755 177.373 22.6541C177.243 22.5235 177.014 22.4348 176.687 22.3881L175.959 22.2901C175.166 22.1875 174.559 21.9635 174.139 21.6181C173.729 21.2635 173.523 20.7501 173.523 20.0781C173.523 19.7235 173.589 19.4061 173.719 19.1261C173.85 18.8368 174.037 18.5941 174.279 18.3981C174.522 18.1928 174.811 18.0388 175.147 17.9361C175.493 17.8241 175.875 17.7681 176.295 17.7681C176.65 17.7681 176.963 17.7961 177.233 17.8521C177.513 17.8988 177.765 17.9735 177.989 18.0761C178.213 18.1695 178.419 18.2908 178.605 18.4401C178.792 18.5801 178.974 18.7388 179.151 18.9161L178.101 19.9661C177.887 19.7421 177.63 19.5555 177.331 19.4061C177.033 19.2568 176.706 19.1821 176.351 19.1821C175.959 19.1821 175.675 19.2521 175.497 19.3921C175.329 19.5321 175.245 19.7141 175.245 19.9381C175.245 20.1808 175.315 20.3675 175.455 20.4981C175.605 20.6195 175.852 20.7081 176.197 20.7641L176.939 20.8621C178.517 21.0861 179.305 21.8048 179.305 23.0181C179.305 23.3728 179.231 23.6995 179.081 23.9981C178.941 24.2875 178.741 24.5395 178.479 24.7541C178.218 24.9595 177.901 25.1228 177.527 25.2441C177.163 25.3561 176.753 25.4121 176.295 25.4121ZM184.56 19.3501H183.482V17.9361H184.56V16.8861C184.56 16.2421 184.728 15.7475 185.064 15.4021C185.409 15.0568 185.913 14.8841 186.576 14.8841H187.85V16.3121H186.352V17.9361H187.85V19.3501H186.352V25.2441H184.56V19.3501ZM189.091 25.2441V17.9361H190.883V19.4481H190.953C190.999 19.2521 191.069 19.0655 191.163 18.8881C191.265 18.7015 191.396 18.5381 191.555 18.3981C191.713 18.2581 191.9 18.1461 192.115 18.0621C192.339 17.9781 192.595 17.9361 192.885 17.9361H193.277V19.6301H192.717C192.11 19.6301 191.653 19.7188 191.345 19.8961C191.037 20.0735 190.883 20.3628 190.883 20.7641V25.2441H189.091ZM197.416 25.4121C196.894 25.4121 196.422 25.3235 196.002 25.1461C195.592 24.9688 195.237 24.7121 194.938 24.3761C194.649 24.0401 194.425 23.6388 194.266 23.1721C194.108 22.6961 194.028 22.1641 194.028 21.5761C194.028 20.9881 194.108 20.4608 194.266 19.9941C194.425 19.5275 194.649 19.1308 194.938 18.8041C195.237 18.4681 195.592 18.2115 196.002 18.0341C196.422 17.8568 196.894 17.7681 197.416 17.7681C197.939 17.7681 198.41 17.8568 198.83 18.0341C199.25 18.2115 199.605 18.4681 199.894 18.8041C200.193 19.1308 200.422 19.5275 200.58 19.9941C200.739 20.4608 200.818 20.9881 200.818 21.5761C200.818 22.1641 200.739 22.6961 200.58 23.1721C200.422 23.6388 200.193 24.0401 199.894 24.3761C199.605 24.7121 199.25 24.9688 198.83 25.1461C198.41 25.3235 197.939 25.4121 197.416 25.4121ZM197.416 23.9701C197.892 23.9701 198.266 23.8255 198.536 23.5361C198.807 23.2468 198.942 22.8221 198.942 22.2621V20.9041C198.942 20.3535 198.807 19.9335 198.536 19.6441C198.266 19.3548 197.892 19.2101 197.416 19.2101C196.95 19.2101 196.581 19.3548 196.31 19.6441C196.04 19.9335 195.904 20.3535 195.904 20.9041V22.2621C195.904 22.8221 196.04 23.2468 196.31 23.5361C196.581 23.8255 196.95 23.9701 197.416 23.9701ZM202.407 25.2441V17.9361H204.199V19.1541H204.269C204.409 18.7715 204.633 18.4448 204.941 18.1741C205.249 17.9035 205.678 17.7681 206.229 17.7681C206.733 17.7681 207.167 17.8895 207.531 18.1321C207.895 18.3748 208.166 18.7435 208.343 19.2381H208.371C208.502 18.8275 208.758 18.4821 209.141 18.2021C209.533 17.9128 210.023 17.7681 210.611 17.7681C211.33 17.7681 211.88 18.0155 212.263 18.5101C212.655 19.0048 212.851 19.7095 212.851 20.6241V25.2441H211.059V20.8061C211.059 19.7608 210.667 19.2381 209.883 19.2381C209.706 19.2381 209.533 19.2661 209.365 19.3221C209.206 19.3688 209.062 19.4435 208.931 19.5461C208.81 19.6395 208.712 19.7608 208.637 19.9101C208.562 20.0501 208.525 20.2181 208.525 20.4141V25.2441H206.733V20.8061C206.733 19.7608 206.341 19.2381 205.557 19.2381C205.389 19.2381 205.221 19.2661 205.053 19.3221C204.894 19.3688 204.75 19.4435 204.619 19.5461C204.498 19.6395 204.395 19.7608 204.311 19.9101C204.236 20.0501 204.199 20.2181 204.199 20.4141V25.2441H202.407ZM225.633 18.2301H225.577L224.821 19.7841L222.819 23.4801L220.817 19.7841L220.061 18.2301H220.005V25.2441H218.255V15.4721H220.341L222.847 20.2461H222.903L225.381 15.4721H227.383V25.2441H225.633V18.2301ZM234.949 25.2441C234.557 25.2441 234.244 25.1321 234.011 24.9081C233.787 24.6748 233.647 24.3668 233.591 23.9841H233.507C233.386 24.4601 233.138 24.8195 232.765 25.0621C232.392 25.2955 231.93 25.4121 231.379 25.4121C230.632 25.4121 230.058 25.2161 229.657 24.8241C229.256 24.4321 229.055 23.9095 229.055 23.2561C229.055 22.5001 229.326 21.9401 229.867 21.5761C230.408 21.2028 231.178 21.0161 232.177 21.0161H233.423V20.4841C233.423 20.0735 233.316 19.7561 233.101 19.5321C232.886 19.3081 232.541 19.1961 232.065 19.1961C231.645 19.1961 231.304 19.2895 231.043 19.4761C230.791 19.6535 230.576 19.8681 230.399 20.1201L229.335 19.1681C229.606 18.7481 229.965 18.4121 230.413 18.1601C230.861 17.8988 231.454 17.7681 232.191 17.7681C233.18 17.7681 233.932 17.9921 234.445 18.4401C234.958 18.8881 235.215 19.5321 235.215 20.3721V23.8161H235.943V25.2441H234.949ZM231.981 24.1101C232.382 24.1101 232.723 24.0215 233.003 23.8441C233.283 23.6668 233.423 23.4055 233.423 23.0601V22.0941H232.275C231.342 22.0941 230.875 22.3928 230.875 22.9901V23.2281C230.875 23.5268 230.968 23.7508 231.155 23.9001C231.351 24.0401 231.626 24.1101 231.981 24.1101ZM237.393 25.2441V17.9361H239.185V19.4481H239.255C239.302 19.2521 239.372 19.0655 239.465 18.8881C239.568 18.7015 239.699 18.5381 239.857 18.3981C240.016 18.2581 240.203 18.1461 240.417 18.0621C240.641 17.9781 240.898 17.9361 241.187 17.9361H241.579V19.6301H241.019C240.413 19.6301 239.955 19.7188 239.647 19.8961C239.339 20.0735 239.185 20.3628 239.185 20.7641V25.2441H237.393ZM245.226 25.2441C244.61 25.2441 244.139 25.0855 243.812 24.7681C243.495 24.4415 243.336 23.9795 243.336 23.3821V19.3641H242.258V17.9361H242.818C243.089 17.9361 243.271 17.8755 243.364 17.7541C243.467 17.6235 243.518 17.4321 243.518 17.1801V15.9341H245.128V17.9361H246.626V19.3641H245.128V23.8161H246.514V25.2441H245.226ZM253.557 25.2441C253.165 25.2441 252.852 25.1321 252.619 24.9081C252.395 24.6748 252.255 24.3668 252.199 23.9841H252.115C251.993 24.4601 251.746 24.8195 251.373 25.0621C250.999 25.2955 250.537 25.4121 249.987 25.4121C249.24 25.4121 248.666 25.2161 248.265 24.8241C247.863 24.4321 247.663 23.9095 247.663 23.2561C247.663 22.5001 247.933 21.9401 248.475 21.5761C249.016 21.2028 249.786 21.0161 250.785 21.0161H252.031V20.4841C252.031 20.0735 251.923 19.7561 251.709 19.5321C251.494 19.3081 251.149 19.1961 250.673 19.1961C250.253 19.1961 249.912 19.2895 249.651 19.4761C249.399 19.6535 249.184 19.8681 249.007 20.1201L247.943 19.1681C248.213 18.7481 248.573 18.4121 249.021 18.1601C249.469 17.8988 250.061 17.7681 250.799 17.7681C251.788 17.7681 252.539 17.9921 253.053 18.4401C253.566 18.8881 253.823 19.5321 253.823 20.3721V23.8161H254.551V25.2441H253.557ZM250.589 24.1101C250.99 24.1101 251.331 24.0215 251.611 23.8441C251.891 23.6668 252.031 23.4055 252.031 23.0601V22.0941H250.883C249.949 22.0941 249.483 22.3928 249.483 22.9901V23.2281C249.483 23.5268 249.576 23.7508 249.763 23.9001C249.959 24.0401 250.234 24.1101 250.589 24.1101ZM256.757 22.3041L256.183 18.2301V15.4721H258.087V18.2301L257.541 22.3041H256.757ZM257.135 25.4121C256.734 25.4121 256.444 25.3188 256.267 25.1321C256.09 24.9455 256.001 24.7075 256.001 24.4181V24.1381C256.001 23.8488 256.09 23.6108 256.267 23.4241C256.444 23.2375 256.734 23.1441 257.135 23.1441C257.527 23.1441 257.812 23.2375 257.989 23.4241C258.166 23.6108 258.255 23.8488 258.255 24.1381V24.4181C258.255 24.7075 258.166 24.9455 257.989 25.1321C257.812 25.3188 257.527 25.4121 257.135 25.4121Z" fill="black"/>
</g>
<defs>
<filter id="filter0_d_776_25645" x="0" y="0.244141" width="279" height="46" filterUnits="userSpaceOnUse" color-interpolation-filters="sRGB">
<feFlood flood-opacity="0" result="BackgroundImageFix"/>
<feColorMatrix in="SourceAlpha" type="matrix" values="0 0 0 0 0 0 0 0 0 0 0 0 0 0 0 0 0 0 127 0" result="hardAlpha"/>
<feOffset dy="3"/>
<feGaussianBlur stdDeviation="4"/>
<feComposite in2="hardAlpha" operator="out"/>
<feColorMatrix type="matrix" values="0 0 0 0 0 0 0 0 0 0 0 0 0 0 0 0 0 0 0.09 0"/>
<feBlend mode="normal" in2="BackgroundImageFix" result="effect1_dropShadow_776_25645"/>
<feBlend mode="normal" in="SourceGraphic" in2="effect1_dropShadow_776_25645" result="shape"/>
</filter>
</defs>
</svg>
