<svg width="188" height="47" viewBox="0 0 188 47" fill="none" xmlns="http://www.w3.org/2000/svg">
<g filter="url(#filter0_d_776_25641)">
<rect x="8" y="5.24414" width="172" height="30" rx="8" fill="white" shape-rendering="crispEdges"/>
<path d="M27 13.7441C25.7144 13.7441 24.4577 14.1254 23.3888 14.8396C22.3199 15.5538 21.4868 16.569 20.9948 17.7567C20.5028 18.9444 20.3741 20.2514 20.6249 21.5122C20.8757 22.7731 21.4948 23.9313 22.4038 24.8403C23.3129 25.7494 24.471 26.3684 25.7319 26.6192C26.9928 26.87 28.2997 26.7413 29.4874 26.2494C30.6752 25.7574 31.6903 24.9243 32.4046 23.8553C33.1188 22.7864 33.5 21.5297 33.5 20.2441C33.4982 18.5208 32.8128 16.8685 31.5942 15.65C30.3756 14.4314 28.7234 13.746 27 13.7441ZM29.8538 19.0979L26.3538 22.5979C26.3073 22.6444 26.2522 22.6813 26.1915 22.7064C26.1308 22.7316 26.0657 22.7445 26 22.7445C25.9343 22.7445 25.8692 22.7316 25.8085 22.7064C25.7478 22.6813 25.6927 22.6444 25.6463 22.5979L24.1463 21.0979C24.0524 21.0041 23.9997 20.8768 23.9997 20.7441C23.9997 20.6115 24.0524 20.4842 24.1463 20.3904C24.2401 20.2966 24.3673 20.2439 24.5 20.2439C24.6327 20.2439 24.7599 20.2966 24.8538 20.3904L26 21.5373L29.1463 18.3904C29.1927 18.3439 29.2479 18.3071 29.3086 18.2819C29.3693 18.2568 29.4343 18.2439 29.5 18.2439C29.5657 18.2439 29.6308 18.2568 29.6915 18.2819C29.7521 18.3071 29.8073 18.3439 29.8538 18.3904C29.9002 18.4368 29.9371 18.492 29.9622 18.5527C29.9873 18.6134 30.0003 18.6784 30.0003 18.7441C30.0003 18.8098 29.9873 18.8749 29.9622 18.9356C29.9371 18.9963 29.9002 19.0514 29.8538 19.0979Z" fill="#5E80E1"/>
<path d="M45.186 25.4121C44.346 25.4121 43.632 25.2628 43.044 24.9641C42.4653 24.6655 41.966 24.2735 41.546 23.7881L42.792 22.5841C43.128 22.9761 43.5013 23.2748 43.912 23.4801C44.332 23.6855 44.794 23.7881 45.298 23.7881C45.8673 23.7881 46.2967 23.6668 46.586 23.4241C46.8753 23.1721 47.02 22.8361 47.02 22.4161C47.02 22.0895 46.9267 21.8235 46.74 21.6181C46.5533 21.4128 46.2033 21.2635 45.69 21.1701L44.766 21.0301C42.8153 20.7221 41.84 19.7748 41.84 18.1881C41.84 17.7495 41.9193 17.3528 42.078 16.9981C42.246 16.6435 42.484 16.3401 42.792 16.0881C43.1 15.8361 43.4687 15.6448 43.898 15.5141C44.3367 15.3741 44.8313 15.3041 45.382 15.3041C46.1193 15.3041 46.7633 15.4255 47.314 15.6681C47.8647 15.9108 48.336 16.2701 48.728 16.7461L47.468 17.9361C47.2253 17.6375 46.9313 17.3948 46.586 17.2081C46.2407 17.0215 45.8067 16.9281 45.284 16.9281C44.752 16.9281 44.3507 17.0308 44.08 17.2361C43.8187 17.4321 43.688 17.7121 43.688 18.0761C43.688 18.4495 43.7953 18.7248 44.01 18.9021C44.2247 19.0795 44.57 19.2101 45.046 19.2941L45.956 19.4621C46.9453 19.6395 47.6733 19.9568 48.14 20.4141C48.616 20.8621 48.854 21.4921 48.854 22.3041C48.854 22.7708 48.77 23.1955 48.602 23.5781C48.4433 23.9515 48.2053 24.2781 47.888 24.5581C47.58 24.8288 47.1973 25.0388 46.74 25.1881C46.292 25.3375 45.774 25.4121 45.186 25.4121ZM53.5486 25.4121C53.0073 25.4121 52.5219 25.3235 52.0926 25.1461C51.6726 24.9595 51.3133 24.7028 51.0146 24.3761C50.7253 24.0401 50.5013 23.6388 50.3426 23.1721C50.1839 22.6961 50.1046 22.1641 50.1046 21.5761C50.1046 20.9975 50.1793 20.4748 50.3286 20.0081C50.4873 19.5415 50.7113 19.1448 51.0006 18.8181C51.2899 18.4821 51.6446 18.2255 52.0646 18.0481C52.4846 17.8615 52.9606 17.7681 53.4926 17.7681C54.0619 17.7681 54.5566 17.8661 54.9766 18.0621C55.3966 18.2581 55.7419 18.5241 56.0126 18.8601C56.2833 19.1961 56.4839 19.5881 56.6146 20.0361C56.7546 20.4748 56.8246 20.9461 56.8246 21.4501V22.0381H51.9666V22.2201C51.9666 22.7521 52.1159 23.1815 52.4146 23.5081C52.7133 23.8255 53.1566 23.9841 53.7446 23.9841C54.1926 23.9841 54.5566 23.8908 54.8366 23.7041C55.1259 23.5175 55.3826 23.2795 55.6066 22.9901L56.5726 24.0681C56.2739 24.4881 55.8633 24.8195 55.3406 25.0621C54.8273 25.2955 54.2299 25.4121 53.5486 25.4121ZM53.5206 19.1121C53.0446 19.1121 52.6666 19.2708 52.3866 19.5881C52.1066 19.9055 51.9666 20.3161 51.9666 20.8201V20.9321H54.9626V20.8061C54.9626 20.3021 54.8366 19.8961 54.5846 19.5881C54.3419 19.2708 53.9873 19.1121 53.5206 19.1121ZM58.4012 25.2441V17.9361H60.1932V19.1541H60.2632C60.4126 18.7621 60.6459 18.4355 60.9632 18.1741C61.2899 17.9035 61.7379 17.7681 62.3072 17.7681C63.0632 17.7681 63.6419 18.0155 64.0432 18.5101C64.4446 19.0048 64.6452 19.7095 64.6452 20.6241V25.2441H62.8532V20.8061C62.8532 20.2835 62.7599 19.8915 62.5732 19.6301C62.3866 19.3688 62.0786 19.2381 61.6492 19.2381C61.4626 19.2381 61.2806 19.2661 61.1032 19.3221C60.9352 19.3688 60.7812 19.4435 60.6412 19.5461C60.5106 19.6395 60.4032 19.7608 60.3192 19.9101C60.2352 20.0501 60.1932 20.2181 60.1932 20.4141V25.2441H58.4012ZM68.9137 25.2441C68.2977 25.2441 67.8264 25.0855 67.4997 24.7681C67.1824 24.4415 67.0237 23.9795 67.0237 23.3821V19.3641H65.9457V17.9361H66.5057C66.7764 17.9361 66.9584 17.8755 67.0517 17.7541C67.1544 17.6235 67.2057 17.4321 67.2057 17.1801V15.9341H68.8157V17.9361H70.3137V19.3641H68.8157V23.8161H70.2017V25.2441H68.9137ZM77.7246 26.3921V25.1461C77.0153 25.0901 76.418 24.9268 75.9326 24.6561C75.4473 24.3761 75.0273 24.0308 74.6726 23.6201L75.8066 22.5841C76.0773 22.9015 76.3806 23.1628 76.7166 23.3681C77.0526 23.5641 77.4306 23.6901 77.8506 23.7461V20.9041C76.824 20.6895 76.082 20.3628 75.6246 19.9241C75.1766 19.4761 74.9526 18.9068 74.9526 18.2161C74.9526 17.4695 75.1953 16.8721 75.6806 16.4241C76.166 15.9668 76.8473 15.6868 77.7246 15.5841V14.3241H79.1106V15.5841C79.6986 15.6495 80.2026 15.7941 80.6226 16.0181C81.052 16.2421 81.4253 16.5501 81.7426 16.9421L80.5946 17.9361C80.408 17.7121 80.184 17.5161 79.9226 17.3481C79.6706 17.1801 79.358 17.0588 78.9846 16.9841V19.5881C79.9833 19.8215 80.716 20.1481 81.1826 20.5681C81.6493 20.9788 81.8826 21.5481 81.8826 22.2761C81.8826 22.9948 81.6493 23.6155 81.1826 24.1381C80.716 24.6515 80.0253 24.9735 79.1106 25.1041V26.3921H77.7246ZM76.6466 18.1461C76.6466 18.4728 76.74 18.7248 76.9266 18.9021C77.1226 19.0795 77.4306 19.2241 77.8506 19.3361V16.9701C77.048 17.1101 76.6466 17.5021 76.6466 18.1461ZM80.2026 22.4021C80.2026 22.1221 80.114 21.8795 79.9366 21.6741C79.7686 21.4595 79.4513 21.2868 78.9846 21.1561V23.7321C79.3766 23.6481 79.6753 23.4895 79.8806 23.2561C80.0953 23.0135 80.2026 22.7288 80.2026 22.4021ZM89.7452 17.0681H85.3492L85.1252 20.3441H85.2232C85.3258 20.1388 85.4378 19.9475 85.5592 19.7701C85.6805 19.5928 85.8205 19.4435 85.9792 19.3221C86.1378 19.2008 86.3198 19.1075 86.5252 19.0421C86.7398 18.9675 86.9965 18.9301 87.2952 18.9301C87.7152 18.9301 88.1072 19.0001 88.4712 19.1401C88.8352 19.2801 89.1478 19.4855 89.4092 19.7561C89.6798 20.0175 89.8898 20.3395 90.0392 20.7221C90.1978 21.1048 90.2772 21.5388 90.2772 22.0241C90.2772 22.5188 90.1978 22.9715 90.0392 23.3821C89.8805 23.7928 89.6472 24.1521 89.3392 24.4601C89.0312 24.7588 88.6532 24.9921 88.2052 25.1601C87.7572 25.3281 87.2438 25.4121 86.6652 25.4121C86.2172 25.4121 85.8158 25.3608 85.4612 25.2581C85.1065 25.1648 84.7938 25.0341 84.5232 24.8661C84.2525 24.6981 84.0192 24.5068 83.8232 24.2921C83.6272 24.0681 83.4545 23.8348 83.3052 23.5921L84.6492 22.5561C84.7612 22.7428 84.8778 22.9201 84.9992 23.0881C85.1205 23.2468 85.2605 23.3868 85.4192 23.5081C85.5872 23.6295 85.7692 23.7275 85.9652 23.8021C86.1705 23.8675 86.4085 23.9001 86.6792 23.9001C87.2298 23.9001 87.6452 23.7461 87.9252 23.4381C88.2145 23.1301 88.3592 22.7101 88.3592 22.1781V22.0661C88.3592 21.5621 88.2145 21.1655 87.9252 20.8761C87.6358 20.5868 87.2345 20.4421 86.7212 20.4421C86.3198 20.4421 85.9932 20.5215 85.7412 20.6801C85.4892 20.8295 85.2885 20.9928 85.1392 21.1701L83.6272 20.9601L83.9912 15.4721H89.7452V17.0681ZM97.5563 25.2441C96.9403 25.2441 96.4689 25.0855 96.1423 24.7681C95.8249 24.4415 95.6663 23.9795 95.6663 23.3821V19.3641H94.5883V17.9361H95.1483C95.4189 17.9361 95.6009 17.8755 95.6943 17.7541C95.7969 17.6235 95.8483 17.4321 95.8483 17.1801V15.9341H97.4583V17.9361H98.9563V19.3641H97.4583V23.8161H98.8443V25.2441H97.5563ZM103.354 25.4121C102.831 25.4121 102.36 25.3235 101.94 25.1461C101.529 24.9688 101.175 24.7121 100.876 24.3761C100.587 24.0401 100.363 23.6388 100.204 23.1721C100.045 22.6961 99.9659 22.1641 99.9659 21.5761C99.9659 20.9881 100.045 20.4608 100.204 19.9941C100.363 19.5275 100.587 19.1308 100.876 18.8041C101.175 18.4681 101.529 18.2115 101.94 18.0341C102.36 17.8568 102.831 17.7681 103.354 17.7681C103.877 17.7681 104.348 17.8568 104.768 18.0341C105.188 18.2115 105.543 18.4681 105.832 18.8041C106.131 19.1308 106.359 19.5275 106.518 19.9941C106.677 20.4608 106.756 20.9881 106.756 21.5761C106.756 22.1641 106.677 22.6961 106.518 23.1721C106.359 23.6388 106.131 24.0401 105.832 24.3761C105.543 24.7121 105.188 24.9688 104.768 25.1461C104.348 25.3235 103.877 25.4121 103.354 25.4121ZM103.354 23.9701C103.83 23.9701 104.203 23.8255 104.474 23.5361C104.745 23.2468 104.88 22.8221 104.88 22.2621V20.9041C104.88 20.3535 104.745 19.9335 104.474 19.6441C104.203 19.3548 103.83 19.2101 103.354 19.2101C102.887 19.2101 102.519 19.3548 102.248 19.6441C101.977 19.9335 101.842 20.3535 101.842 20.9041V22.2621C101.842 22.8221 101.977 23.2468 102.248 23.5361C102.519 23.8255 102.887 23.9701 103.354 23.9701ZM113.613 25.2441H111.765V15.4721H116.175C116.623 15.4721 117.025 15.5421 117.379 15.6821C117.734 15.8221 118.033 16.0275 118.275 16.2981C118.527 16.5595 118.719 16.8768 118.849 17.2501C118.989 17.6235 119.059 18.0388 119.059 18.4961C119.059 19.1681 118.905 19.7468 118.597 20.2321C118.299 20.7175 117.846 21.0628 117.239 21.2681L119.241 25.2441H117.183L115.363 21.4781H113.613V25.2441ZM115.993 19.9241C116.348 19.9241 116.628 19.8308 116.833 19.6441C117.039 19.4481 117.141 19.1728 117.141 18.8181V18.1741C117.141 17.8195 117.039 17.5488 116.833 17.3621C116.628 17.1755 116.348 17.0821 115.993 17.0821H113.613V19.9241H115.993ZM126.189 25.2441C125.797 25.2441 125.485 25.1321 125.251 24.9081C125.027 24.6748 124.887 24.3668 124.831 23.9841H124.747C124.626 24.4601 124.379 24.8195 124.005 25.0621C123.632 25.2955 123.17 25.4121 122.619 25.4121C121.873 25.4121 121.299 25.2161 120.897 24.8241C120.496 24.4321 120.295 23.9095 120.295 23.2561C120.295 22.5001 120.566 21.9401 121.107 21.5761C121.649 21.2028 122.419 21.0161 123.417 21.0161H124.663V20.4841C124.663 20.0735 124.556 19.7561 124.341 19.5321C124.127 19.3081 123.781 19.1961 123.305 19.1961C122.885 19.1961 122.545 19.2895 122.283 19.4761C122.031 19.6535 121.817 19.8681 121.639 20.1201L120.575 19.1681C120.846 18.7481 121.205 18.4121 121.653 18.1601C122.101 17.8988 122.694 17.7681 123.431 17.7681C124.421 17.7681 125.172 17.9921 125.685 18.4401C126.199 18.8881 126.455 19.5321 126.455 20.3721V23.8161H127.183V25.2441H126.189ZM123.221 24.1101C123.623 24.1101 123.963 24.0215 124.243 23.8441C124.523 23.6668 124.663 23.4055 124.663 23.0601V22.0941H123.515C122.582 22.0941 122.115 22.3928 122.115 22.9901V23.2281C122.115 23.5268 122.209 23.7508 122.395 23.9001C122.591 24.0401 122.867 24.1101 123.221 24.1101ZM128.634 25.2441V17.9361H130.426V19.1541H130.496C130.636 18.7715 130.86 18.4448 131.168 18.1741C131.476 17.9035 131.905 17.7681 132.456 17.7681C132.96 17.7681 133.394 17.8895 133.758 18.1321C134.122 18.3748 134.392 18.7435 134.57 19.2381H134.598C134.728 18.8275 134.985 18.4821 135.368 18.2021C135.76 17.9128 136.25 17.7681 136.838 17.7681C137.556 17.7681 138.107 18.0155 138.49 18.5101C138.882 19.0048 139.078 19.7095 139.078 20.6241V25.2441H137.286V20.8061C137.286 19.7608 136.894 19.2381 136.11 19.2381C135.932 19.2381 135.76 19.2661 135.592 19.3221C135.433 19.3688 135.288 19.4435 135.158 19.5461C135.036 19.6395 134.938 19.7608 134.864 19.9101C134.789 20.0501 134.752 20.2181 134.752 20.4141V25.2441H132.96V20.8061C132.96 19.7608 132.568 19.2381 131.784 19.2381C131.616 19.2381 131.448 19.2661 131.28 19.3221C131.121 19.3688 130.976 19.4435 130.846 19.5461C130.724 19.6395 130.622 19.7608 130.538 19.9101C130.463 20.0501 130.426 20.2181 130.426 20.4141V25.2441H128.634ZM143.959 25.4121C143.437 25.4121 142.965 25.3235 142.545 25.1461C142.135 24.9688 141.78 24.7121 141.481 24.3761C141.192 24.0401 140.968 23.6388 140.809 23.1721C140.651 22.6961 140.571 22.1641 140.571 21.5761C140.571 20.9881 140.651 20.4608 140.809 19.9941C140.968 19.5275 141.192 19.1308 141.481 18.8041C141.78 18.4681 142.135 18.2115 142.545 18.0341C142.965 17.8568 143.437 17.7681 143.959 17.7681C144.482 17.7681 144.953 17.8568 145.373 18.0341C145.793 18.2115 146.148 18.4681 146.437 18.8041C146.736 19.1308 146.965 19.5275 147.123 19.9941C147.282 20.4608 147.361 20.9881 147.361 21.5761C147.361 22.1641 147.282 22.6961 147.123 23.1721C146.965 23.6388 146.736 24.0401 146.437 24.3761C146.148 24.7121 145.793 24.9688 145.373 25.1461C144.953 25.3235 144.482 25.4121 143.959 25.4121ZM143.959 23.9701C144.435 23.9701 144.809 23.8255 145.079 23.5361C145.35 23.2468 145.485 22.8221 145.485 22.2621V20.9041C145.485 20.3535 145.35 19.9335 145.079 19.6441C144.809 19.3548 144.435 19.2101 143.959 19.2101C143.493 19.2101 143.124 19.3548 142.853 19.6441C142.583 19.9335 142.447 20.3535 142.447 20.9041V22.2621C142.447 22.8221 142.583 23.2468 142.853 23.5361C143.124 23.8255 143.493 23.9701 143.959 23.9701ZM148.95 25.2441V17.9361H150.742V19.1541H150.812C150.961 18.7621 151.195 18.4355 151.512 18.1741C151.839 17.9035 152.287 17.7681 152.856 17.7681C153.612 17.7681 154.191 18.0155 154.592 18.5101C154.993 19.0048 155.194 19.7095 155.194 20.6241V25.2441H153.402V20.8061C153.402 20.2835 153.309 19.8915 153.122 19.6301C152.935 19.3688 152.627 19.2381 152.198 19.2381C152.011 19.2381 151.829 19.2661 151.652 19.3221C151.484 19.3688 151.33 19.4435 151.19 19.5461C151.059 19.6395 150.952 19.7608 150.868 19.9101C150.784 20.0501 150.742 20.2181 150.742 20.4141V25.2441H148.95ZM160.135 25.4121C159.593 25.4121 159.108 25.3235 158.679 25.1461C158.259 24.9595 157.899 24.7028 157.601 24.3761C157.311 24.0401 157.087 23.6388 156.929 23.1721C156.77 22.6961 156.691 22.1641 156.691 21.5761C156.691 20.9975 156.765 20.4748 156.915 20.0081C157.073 19.5415 157.297 19.1448 157.587 18.8181C157.876 18.4821 158.231 18.2255 158.651 18.0481C159.071 17.8615 159.547 17.7681 160.079 17.7681C160.648 17.7681 161.143 17.8661 161.563 18.0621C161.983 18.2581 162.328 18.5241 162.599 18.8601C162.869 19.1961 163.07 19.5881 163.201 20.0361C163.341 20.4748 163.411 20.9461 163.411 21.4501V22.0381H158.553V22.2201C158.553 22.7521 158.702 23.1815 159.001 23.5081C159.299 23.8255 159.743 23.9841 160.331 23.9841C160.779 23.9841 161.143 23.8908 161.423 23.7041C161.712 23.5175 161.969 23.2795 162.193 22.9901L163.159 24.0681C162.86 24.4881 162.449 24.8195 161.927 25.0621C161.413 25.2955 160.816 25.4121 160.135 25.4121ZM160.107 19.1121C159.631 19.1121 159.253 19.2708 158.973 19.5881C158.693 19.9055 158.553 20.3161 158.553 20.8201V20.9321H161.549V20.8061C161.549 20.3021 161.423 19.8961 161.171 19.5881C160.928 19.2708 160.573 19.1121 160.107 19.1121ZM165.743 22.3041L165.169 18.2301V15.4721H167.073V18.2301L166.527 22.3041H165.743ZM166.121 25.4121C165.72 25.4121 165.431 25.3188 165.253 25.1321C165.076 24.9455 164.987 24.7075 164.987 24.4181V24.1381C164.987 23.8488 165.076 23.6108 165.253 23.4241C165.431 23.2375 165.72 23.1441 166.121 23.1441C166.513 23.1441 166.798 23.2375 166.975 23.4241C167.153 23.6108 167.241 23.8488 167.241 24.1381V24.4181C167.241 24.7075 167.153 24.9455 166.975 25.1321C166.798 25.3188 166.513 25.4121 166.121 25.4121Z" fill="black"/>
</g>
<defs>
<filter id="filter0_d_776_25641" x="0" y="0.244141" width="188" height="46" filterUnits="userSpaceOnUse" color-interpolation-filters="sRGB">
<feFlood flood-opacity="0" result="BackgroundImageFix"/>
<feColorMatrix in="SourceAlpha" type="matrix" values="0 0 0 0 0 0 0 0 0 0 0 0 0 0 0 0 0 0 127 0" result="hardAlpha"/>
<feOffset dy="3"/>
<feGaussianBlur stdDeviation="4"/>
<feComposite in2="hardAlpha" operator="out"/>
<feColorMatrix type="matrix" values="0 0 0 0 0 0 0 0 0 0 0 0 0 0 0 0 0 0 0.09 0"/>
<feBlend mode="normal" in2="BackgroundImageFix" result="effect1_dropShadow_776_25641"/>
<feBlend mode="normal" in="SourceGraphic" in2="effect1_dropShadow_776_25641" result="shape"/>
</filter>
</defs>
</svg>
